solid 
   facet normal -0.000000e+00 -0.000000e+00 -1.000000e+00
      outer loop
         vertex 4.000000e+00 2.500000e+01 -8.500000e+00
         vertex 1.400000e+01 2.500000e+01 -8.500000e+00
         vertex 1.400000e+01 -2.500000e+01 -8.500000e+00
      endloop
   endfacet
   facet normal 0.000000e+00 0.000000e+00 -1.000000e+00
      outer loop
         vertex 4.000000e+00 2.500000e+01 -8.500000e+00
         vertex 1.400000e+01 -2.500000e+01 -8.500000e+00
         vertex 4.000000e+00 -2.500000e+01 -8.500000e+00
      endloop
   endfacet
   facet normal 0.000000e+00 1.000000e+00 0.000000e+00
      outer loop
         vertex 1.928819e-15 2.500000e+01 1.050000e+01
         vertex 4.000000e+00 2.500000e+01 1.050000e+01
         vertex -1.928819e-15 2.500000e+01 -1.050000e+01
      endloop
   endfacet
   facet normal 0.000000e+00 1.000000e+00 -0.000000e+00
      outer loop
         vertex 4.000000e+00 2.500000e+01 1.050000e+01
         vertex 4.000000e+00 2.500000e+01 -8.500000e+00
         vertex -1.928819e-15 2.500000e+01 -1.050000e+01
      endloop
   endfacet
   facet normal 0.000000e+00 1.000000e+00 0.000000e+00
      outer loop
         vertex -1.928819e-15 2.500000e+01 -1.050000e+01
         vertex 4.000000e+00 2.500000e+01 -8.500000e+00
         vertex 4.000000e+00 2.500000e+01 -1.050000e+01
      endloop
   endfacet
   facet normal 0.000000e+00 1.000000e+00 0.000000e+00
      outer loop
         vertex 4.000000e+00 2.500000e+01 -8.500000e+00
         vertex 4.000000e+00 2.500000e+01 1.050000e+01
         vertex 1.400000e+01 2.500000e+01 -8.500000e+00
      endloop
   endfacet
   facet normal 1.000000e+00 0.000000e+00 0.000000e+00
      outer loop
         vertex 4.000000e+00 -7.500000e+00 6.050000e+01
         vertex 4.000000e+00 -2.500000e+01 1.050000e+01
         vertex 4.000000e+00 2.500000e+01 1.050000e+01
      endloop
   endfacet
   facet normal 1.000000e+00 0.000000e+00 0.000000e+00
      outer loop
         vertex 4.000000e+00 -7.500000e+00 6.050000e+01
         vertex 4.000000e+00 2.500000e+01 1.050000e+01
         vertex 4.000000e+00 7.500000e+00 6.050000e+01
      endloop
   endfacet
   facet normal 0.000000e+00 -1.000000e+00 0.000000e+00
      outer loop
         vertex 1.400000e+01 -2.500000e+01 -8.500000e+00
         vertex 4.000000e+00 -2.500000e+01 1.050000e+01
         vertex 4.000000e+00 -2.500000e+01 -8.500000e+00
      endloop
   endfacet
   facet normal 0.000000e+00 -1.000000e+00 0.000000e+00
      outer loop
         vertex 4.000000e+00 -2.500000e+01 1.050000e+01
         vertex 1.928819e-15 -2.500000e+01 1.050000e+01
         vertex 4.000000e+00 -2.500000e+01 -8.500000e+00
      endloop
   endfacet
   facet normal 0.000000e+00 -1.000000e+00 0.000000e+00
      outer loop
         vertex 4.000000e+00 -2.500000e+01 -8.500000e+00
         vertex 1.928819e-15 -2.500000e+01 1.050000e+01
         vertex 4.000000e+00 -2.500000e+01 -1.050000e+01
      endloop
   endfacet
   facet normal 0.000000e+00 -1.000000e+00 0.000000e+00
      outer loop
         vertex 1.928819e-15 -2.500000e+01 1.050000e+01
         vertex -1.928819e-15 -2.500000e+01 -1.050000e+01
         vertex 4.000000e+00 -2.500000e+01 -1.050000e+01
      endloop
   endfacet
   facet normal 8.849182e-01 -0.000000e+00 4.657464e-01
      outer loop
         vertex 4.000000e+00 2.500000e+01 1.050000e+01
         vertex 4.000000e+00 -2.500000e+01 1.050000e+01
         vertex 1.400000e+01 -2.500000e+01 -8.500000e+00
      endloop
   endfacet
   facet normal 8.849182e-01 0.000000e+00 4.657464e-01
      outer loop
         vertex 1.400000e+01 2.500000e+01 -8.500000e+00
         vertex 4.000000e+00 2.500000e+01 1.050000e+01
         vertex 1.400000e+01 -2.500000e+01 -8.500000e+00
      endloop
   endfacet
   facet normal 1.000000e+00 0.000000e+00 0.000000e+00
      outer loop
         vertex 4.000000e+00 2.500000e+01 -1.050000e+01
         vertex 4.000000e+00 2.500000e+01 -8.500000e+00
         vertex 4.000000e+00 -2.500000e+01 -8.500000e+00
      endloop
   endfacet
   facet normal 1.000000e+00 0.000000e+00 0.000000e+00
      outer loop
         vertex 4.000000e+00 2.500000e+01 -1.050000e+01
         vertex 4.000000e+00 -2.500000e+01 -8.500000e+00
         vertex 4.000000e+00 -2.500000e+01 -1.050000e+01
      endloop
   endfacet
   facet normal 0.000000e+00 0.000000e+00 -1.000000e+00
      outer loop
         vertex 4.000000e+00 -2.500000e+01 -1.050000e+01
         vertex -1.928819e-15 -2.500000e+01 -1.050000e+01
         vertex -1.928819e-15 2.500000e+01 -1.050000e+01
      endloop
   endfacet
   facet normal 0.000000e+00 0.000000e+00 -1.000000e+00
      outer loop
         vertex 4.000000e+00 -2.500000e+01 -1.050000e+01
         vertex -1.928819e-15 2.500000e+01 -1.050000e+01
         vertex 4.000000e+00 2.500000e+01 -1.050000e+01
      endloop
   endfacet
   facet normal -1.000000e+00 0.000000e+00 1.836970e-16
      outer loop
         vertex -1.928819e-15 -2.500000e+01 -1.050000e+01
         vertex 1.928819e-15 -2.500000e+01 1.050000e+01
         vertex -1.928819e-15 2.500000e+01 -1.050000e+01
      endloop
   endfacet
   facet normal -1.000000e+00 -3.618537e-24 1.836970e-16
      outer loop
         vertex 1.928819e-15 -2.500000e+01 1.050000e+01
         vertex 1.111367e-14 -7.500000e+00 6.050000e+01
         vertex -1.928819e-15 2.500000e+01 -1.050000e+01
      endloop
   endfacet
   facet normal -1.000000e+00 1.520316e-23 1.836970e-16
      outer loop
         vertex -1.928819e-15 2.500000e+01 -1.050000e+01
         vertex 1.111367e-14 -7.500000e+00 6.050000e+01
         vertex 1.928819e-15 2.500000e+01 1.050000e+01
      endloop
   endfacet
   facet normal -1.000000e+00 0.000000e+00 1.836970e-16
      outer loop
         vertex 1.111367e-14 -7.500000e+00 6.050000e+01
         vertex 1.111367e-14 7.500000e+00 6.050000e+01
         vertex 1.928819e-15 2.500000e+01 1.050000e+01
      endloop
   endfacet
   facet normal -0.000000e+00 9.438584e-01 3.303504e-01
      outer loop
         vertex 4.000000e+00 2.500000e+01 1.050000e+01
         vertex 1.928819e-15 2.500000e+01 1.050000e+01
         vertex 1.111367e-14 7.500000e+00 6.050000e+01
      endloop
   endfacet
   facet normal -0.000000e+00 9.438584e-01 3.303504e-01
      outer loop
         vertex 4.000000e+00 2.500000e+01 1.050000e+01
         vertex 1.111367e-14 7.500000e+00 6.050000e+01
         vertex 4.000000e+00 7.500000e+00 6.050000e+01
      endloop
   endfacet
   facet normal -0.000000e+00 0.000000e+00 1.000000e+00
      outer loop
         vertex 4.000000e+00 7.500000e+00 6.050000e+01
         vertex 1.111367e-14 7.500000e+00 6.050000e+01
         vertex 1.111367e-14 -7.500000e+00 6.050000e+01
      endloop
   endfacet
   facet normal 0.000000e+00 0.000000e+00 1.000000e+00
      outer loop
         vertex 4.000000e+00 7.500000e+00 6.050000e+01
         vertex 1.111367e-14 -7.500000e+00 6.050000e+01
         vertex 4.000000e+00 -7.500000e+00 6.050000e+01
      endloop
   endfacet
   facet normal 0.000000e+00 -9.438584e-01 3.303504e-01
      outer loop
         vertex 1.111367e-14 -7.500000e+00 6.050000e+01
         vertex 1.928819e-15 -2.500000e+01 1.050000e+01
         vertex 4.000000e+00 -2.500000e+01 1.050000e+01
      endloop
   endfacet
   facet normal 0.000000e+00 -9.438584e-01 3.303504e-01
      outer loop
         vertex 1.111367e-14 -7.500000e+00 6.050000e+01
         vertex 4.000000e+00 -2.500000e+01 1.050000e+01
         vertex 4.000000e+00 -7.500000e+00 6.050000e+01
      endloop
   endfacet
endsolid
