solid 
   facet normal 0.000000e+00 0.000000e+00 -1.000000e+00
      outer loop
         vertex -7.500000e+00 -6.050000e+01 0.000000e+00
         vertex -2.500000e+01 -1.050000e+01 0.000000e+00
         vertex 7.500000e+00 -6.050000e+01 0.000000e+00
      endloop
   endfacet
   facet normal 0.000000e+00 0.000000e+00 -1.000000e+00
      outer loop
         vertex -2.500000e+01 -1.050000e+01 0.000000e+00
         vertex -2.500000e+01 1.050000e+01 0.000000e+00
         vertex 7.500000e+00 -6.050000e+01 0.000000e+00
      endloop
   endfacet
   facet normal 0.000000e+00 0.000000e+00 -1.000000e+00
      outer loop
         vertex 7.500000e+00 -6.050000e+01 0.000000e+00
         vertex -2.500000e+01 1.050000e+01 0.000000e+00
         vertex 2.500000e+01 -1.050000e+01 0.000000e+00
      endloop
   endfacet
   facet normal -0.000000e+00 -0.000000e+00 -1.000000e+00
      outer loop
         vertex -2.500000e+01 1.050000e+01 0.000000e+00
         vertex 2.500000e+01 1.050000e+01 0.000000e+00
         vertex 2.500000e+01 -1.050000e+01 0.000000e+00
      endloop
   endfacet
   facet normal 0.000000e+00 0.000000e+00 1.000000e+00
      outer loop
         vertex 7.500000e+00 -6.050000e+01 4.000000e+00
         vertex 8.900837e-01 -6.009971e+01 4.000000e+00
         vertex -7.500000e+00 -6.050000e+01 4.000000e+00
      endloop
   endfacet
   facet normal -0.000000e+00 0.000000e+00 1.000000e+00
      outer loop
         vertex 8.900837e-01 -6.009971e+01 4.000000e+00
         vertex -8.900837e-01 -6.009971e+01 4.000000e+00
         vertex -7.500000e+00 -6.050000e+01 4.000000e+00
      endloop
   endfacet
   facet normal 0.000000e+00 0.000000e+00 1.000000e+00
      outer loop
         vertex -7.500000e+00 -6.050000e+01 4.000000e+00
         vertex -3.603875e+00 -5.793554e+01 4.000000e+00
         vertex -2.500000e+01 -1.050000e+01 4.000000e+00
      endloop
   endfacet
   facet normal 0.000000e+00 0.000000e+00 1.000000e+00
      outer loop
         vertex -3.603875e+00 -5.793554e+01 4.000000e+00
         vertex -4.000000e+00 -5.620000e+01 4.000000e+00
         vertex -2.500000e+01 -1.050000e+01 4.000000e+00
      endloop
   endfacet
   facet normal 0.000000e+00 -0.000000e+00 1.000000e+00
      outer loop
         vertex -2.500000e+01 -1.050000e+01 4.000000e+00
         vertex -3.603875e+00 -5.446447e+01 4.000000e+00
         vertex 2.500000e+01 -1.050000e+01 4.000000e+00
      endloop
   endfacet
   facet normal 0.000000e+00 -0.000000e+00 1.000000e+00
      outer loop
         vertex -3.603875e+00 -5.446447e+01 4.000000e+00
         vertex -2.493959e+00 -5.307267e+01 4.000000e+00
         vertex 2.500000e+01 -1.050000e+01 4.000000e+00
      endloop
   endfacet
   facet normal -0.000000e+00 0.000000e+00 1.000000e+00
      outer loop
         vertex 2.500000e+01 -1.050000e+01 4.000000e+00
         vertex 3.603875e+00 -5.446447e+01 4.000000e+00
         vertex 7.500000e+00 -6.050000e+01 4.000000e+00
      endloop
   endfacet
   facet normal -0.000000e+00 -0.000000e+00 1.000000e+00
      outer loop
         vertex 3.603875e+00 -5.446447e+01 4.000000e+00
         vertex 4.000000e+00 -5.620000e+01 4.000000e+00
         vertex 7.500000e+00 -6.050000e+01 4.000000e+00
      endloop
   endfacet
   facet normal 0.000000e+00 0.000000e+00 1.000000e+00
      outer loop
         vertex 7.500000e+00 -6.050000e+01 4.000000e+00
         vertex 4.000000e+00 -5.620000e+01 4.000000e+00
         vertex 3.603875e+00 -5.793554e+01 4.000000e+00
      endloop
   endfacet
   facet normal 0.000000e+00 0.000000e+00 1.000000e+00
      outer loop
         vertex 3.603875e+00 -5.446447e+01 4.000000e+00
         vertex 2.500000e+01 -1.050000e+01 4.000000e+00
         vertex 2.493959e+00 -5.307267e+01 4.000000e+00
      endloop
   endfacet
   facet normal 0.000000e+00 0.000000e+00 1.000000e+00
      outer loop
         vertex 2.493959e+00 -5.307267e+01 4.000000e+00
         vertex 2.500000e+01 -1.050000e+01 4.000000e+00
         vertex 8.900837e-01 -5.230029e+01 4.000000e+00
      endloop
   endfacet
   facet normal 0.000000e+00 0.000000e+00 1.000000e+00
      outer loop
         vertex 2.500000e+01 -1.050000e+01 4.000000e+00
         vertex -8.900837e-01 -5.230029e+01 4.000000e+00
         vertex 8.900837e-01 -5.230029e+01 4.000000e+00
      endloop
   endfacet
   facet normal 0.000000e+00 0.000000e+00 1.000000e+00
      outer loop
         vertex -8.900837e-01 -5.230029e+01 4.000000e+00
         vertex 2.500000e+01 -1.050000e+01 4.000000e+00
         vertex -2.493959e+00 -5.307267e+01 4.000000e+00
      endloop
   endfacet
   facet normal 0.000000e+00 0.000000e+00 1.000000e+00
      outer loop
         vertex -3.603875e+00 -5.446447e+01 4.000000e+00
         vertex -2.500000e+01 -1.050000e+01 4.000000e+00
         vertex -4.000000e+00 -5.620000e+01 4.000000e+00
      endloop
   endfacet
   facet normal 0.000000e+00 0.000000e+00 1.000000e+00
      outer loop
         vertex -3.603875e+00 -5.793554e+01 4.000000e+00
         vertex -7.500000e+00 -6.050000e+01 4.000000e+00
         vertex -2.493959e+00 -5.932733e+01 4.000000e+00
      endloop
   endfacet
   facet normal 0.000000e+00 0.000000e+00 1.000000e+00
      outer loop
         vertex -7.500000e+00 -6.050000e+01 4.000000e+00
         vertex -8.900837e-01 -6.009971e+01 4.000000e+00
         vertex -2.493959e+00 -5.932733e+01 4.000000e+00
      endloop
   endfacet
   facet normal 0.000000e+00 0.000000e+00 1.000000e+00
      outer loop
         vertex 8.900837e-01 -6.009971e+01 4.000000e+00
         vertex 7.500000e+00 -6.050000e+01 4.000000e+00
         vertex 2.493959e+00 -5.932733e+01 4.000000e+00
      endloop
   endfacet
   facet normal 0.000000e+00 0.000000e+00 1.000000e+00
      outer loop
         vertex 7.500000e+00 -6.050000e+01 4.000000e+00
         vertex 3.603875e+00 -5.793554e+01 4.000000e+00
         vertex 2.493959e+00 -5.932733e+01 4.000000e+00
      endloop
   endfacet
   facet normal 9.749279e-01 -2.225210e-01 0.000000e+00
      outer loop
         vertex 4.000000e+00 -5.620000e+01 2.100000e+01
         vertex 3.603875e+00 -5.793554e+01 2.100000e+01
         vertex 3.603875e+00 -5.793554e+01 4.000000e+00
      endloop
   endfacet
   facet normal 9.749279e-01 -2.225210e-01 0.000000e+00
      outer loop
         vertex 4.000000e+00 -5.620000e+01 2.100000e+01
         vertex 3.603875e+00 -5.793554e+01 4.000000e+00
         vertex 4.000000e+00 -5.620000e+01 4.000000e+00
      endloop
   endfacet
   facet normal 7.818318e-01 -6.234894e-01 0.000000e+00
      outer loop
         vertex 3.603875e+00 -5.793554e+01 2.100000e+01
         vertex 2.493959e+00 -5.932733e+01 2.100000e+01
         vertex 2.493959e+00 -5.932733e+01 4.000000e+00
      endloop
   endfacet
   facet normal 7.818318e-01 -6.234894e-01 0.000000e+00
      outer loop
         vertex 3.603875e+00 -5.793554e+01 2.100000e+01
         vertex 2.493959e+00 -5.932733e+01 4.000000e+00
         vertex 3.603875e+00 -5.793554e+01 4.000000e+00
      endloop
   endfacet
   facet normal 4.338833e-01 -9.009691e-01 0.000000e+00
      outer loop
         vertex 2.493959e+00 -5.932733e+01 2.100000e+01
         vertex 8.900837e-01 -6.009971e+01 2.100000e+01
         vertex 8.900837e-01 -6.009971e+01 4.000000e+00
      endloop
   endfacet
   facet normal 4.338833e-01 -9.009691e-01 0.000000e+00
      outer loop
         vertex 2.493959e+00 -5.932733e+01 2.100000e+01
         vertex 8.900837e-01 -6.009971e+01 4.000000e+00
         vertex 2.493959e+00 -5.932733e+01 4.000000e+00
      endloop
   endfacet
   facet normal 0.000000e+00 -1.000000e+00 0.000000e+00
      outer loop
         vertex 8.900837e-01 -6.009971e+01 2.100000e+01
         vertex -8.900837e-01 -6.009971e+01 2.100000e+01
         vertex -8.900837e-01 -6.009971e+01 4.000000e+00
      endloop
   endfacet
   facet normal 0.000000e+00 -1.000000e+00 0.000000e+00
      outer loop
         vertex 8.900837e-01 -6.009971e+01 2.100000e+01
         vertex -8.900837e-01 -6.009971e+01 4.000000e+00
         vertex 8.900837e-01 -6.009971e+01 4.000000e+00
      endloop
   endfacet
   facet normal -4.338833e-01 -9.009691e-01 -0.000000e+00
      outer loop
         vertex -8.900837e-01 -6.009971e+01 2.100000e+01
         vertex -2.493959e+00 -5.932733e+01 2.100000e+01
         vertex -2.493959e+00 -5.932733e+01 4.000000e+00
      endloop
   endfacet
   facet normal -4.338833e-01 -9.009691e-01 0.000000e+00
      outer loop
         vertex -8.900837e-01 -6.009971e+01 2.100000e+01
         vertex -2.493959e+00 -5.932733e+01 4.000000e+00
         vertex -8.900837e-01 -6.009971e+01 4.000000e+00
      endloop
   endfacet
   facet normal -7.818318e-01 -6.234894e-01 -0.000000e+00
      outer loop
         vertex -2.493959e+00 -5.932733e+01 2.100000e+01
         vertex -3.603875e+00 -5.793554e+01 2.100000e+01
         vertex -3.603875e+00 -5.793554e+01 4.000000e+00
      endloop
   endfacet
   facet normal -7.818318e-01 -6.234894e-01 0.000000e+00
      outer loop
         vertex -2.493959e+00 -5.932733e+01 2.100000e+01
         vertex -3.603875e+00 -5.793554e+01 4.000000e+00
         vertex -2.493959e+00 -5.932733e+01 4.000000e+00
      endloop
   endfacet
   facet normal -9.749279e-01 -2.225210e-01 -0.000000e+00
      outer loop
         vertex -3.603875e+00 -5.793554e+01 2.100000e+01
         vertex -4.000000e+00 -5.620000e+01 2.100000e+01
         vertex -4.000000e+00 -5.620000e+01 4.000000e+00
      endloop
   endfacet
   facet normal -9.749279e-01 -2.225210e-01 0.000000e+00
      outer loop
         vertex -3.603875e+00 -5.793554e+01 2.100000e+01
         vertex -4.000000e+00 -5.620000e+01 4.000000e+00
         vertex -3.603875e+00 -5.793554e+01 4.000000e+00
      endloop
   endfacet
   facet normal -9.749279e-01 2.225210e-01 0.000000e+00
      outer loop
         vertex -4.000000e+00 -5.620000e+01 2.100000e+01
         vertex -3.603875e+00 -5.446447e+01 2.100000e+01
         vertex -3.603875e+00 -5.446447e+01 4.000000e+00
      endloop
   endfacet
   facet normal -9.749279e-01 2.225210e-01 0.000000e+00
      outer loop
         vertex -4.000000e+00 -5.620000e+01 2.100000e+01
         vertex -3.603875e+00 -5.446447e+01 4.000000e+00
         vertex -4.000000e+00 -5.620000e+01 4.000000e+00
      endloop
   endfacet
   facet normal -7.818318e-01 6.234894e-01 0.000000e+00
      outer loop
         vertex -3.603875e+00 -5.446447e+01 2.100000e+01
         vertex -2.493959e+00 -5.307267e+01 2.100000e+01
         vertex -2.493959e+00 -5.307267e+01 4.000000e+00
      endloop
   endfacet
   facet normal -7.818318e-01 6.234894e-01 0.000000e+00
      outer loop
         vertex -3.603875e+00 -5.446447e+01 2.100000e+01
         vertex -2.493959e+00 -5.307267e+01 4.000000e+00
         vertex -3.603875e+00 -5.446447e+01 4.000000e+00
      endloop
   endfacet
   facet normal -4.338833e-01 9.009691e-01 0.000000e+00
      outer loop
         vertex -2.493959e+00 -5.307267e+01 2.100000e+01
         vertex -8.900837e-01 -5.230029e+01 2.100000e+01
         vertex -8.900837e-01 -5.230029e+01 4.000000e+00
      endloop
   endfacet
   facet normal -4.338833e-01 9.009691e-01 0.000000e+00
      outer loop
         vertex -2.493959e+00 -5.307267e+01 2.100000e+01
         vertex -8.900837e-01 -5.230029e+01 4.000000e+00
         vertex -2.493959e+00 -5.307267e+01 4.000000e+00
      endloop
   endfacet
   facet normal 0.000000e+00 1.000000e+00 0.000000e+00
      outer loop
         vertex -8.900837e-01 -5.230029e+01 2.100000e+01
         vertex 8.900837e-01 -5.230029e+01 2.100000e+01
         vertex 8.900837e-01 -5.230029e+01 4.000000e+00
      endloop
   endfacet
   facet normal 0.000000e+00 1.000000e+00 0.000000e+00
      outer loop
         vertex -8.900837e-01 -5.230029e+01 2.100000e+01
         vertex 8.900837e-01 -5.230029e+01 4.000000e+00
         vertex -8.900837e-01 -5.230029e+01 4.000000e+00
      endloop
   endfacet
   facet normal 4.338833e-01 9.009691e-01 0.000000e+00
      outer loop
         vertex 8.900837e-01 -5.230029e+01 2.100000e+01
         vertex 2.493959e+00 -5.307267e+01 2.100000e+01
         vertex 2.493959e+00 -5.307267e+01 4.000000e+00
      endloop
   endfacet
   facet normal 4.338833e-01 9.009691e-01 0.000000e+00
      outer loop
         vertex 8.900837e-01 -5.230029e+01 2.100000e+01
         vertex 2.493959e+00 -5.307267e+01 4.000000e+00
         vertex 8.900837e-01 -5.230029e+01 4.000000e+00
      endloop
   endfacet
   facet normal 7.818318e-01 6.234894e-01 0.000000e+00
      outer loop
         vertex 2.493959e+00 -5.307267e+01 2.100000e+01
         vertex 3.603875e+00 -5.446447e+01 2.100000e+01
         vertex 3.603875e+00 -5.446447e+01 4.000000e+00
      endloop
   endfacet
   facet normal 7.818318e-01 6.234894e-01 0.000000e+00
      outer loop
         vertex 2.493959e+00 -5.307267e+01 2.100000e+01
         vertex 3.603875e+00 -5.446447e+01 4.000000e+00
         vertex 2.493959e+00 -5.307267e+01 4.000000e+00
      endloop
   endfacet
   facet normal 9.749279e-01 2.225210e-01 0.000000e+00
      outer loop
         vertex 3.603875e+00 -5.446447e+01 2.100000e+01
         vertex 4.000000e+00 -5.620000e+01 2.100000e+01
         vertex 4.000000e+00 -5.620000e+01 4.000000e+00
      endloop
   endfacet
   facet normal 9.749279e-01 2.225210e-01 0.000000e+00
      outer loop
         vertex 3.603875e+00 -5.446447e+01 2.100000e+01
         vertex 4.000000e+00 -5.620000e+01 4.000000e+00
         vertex 3.603875e+00 -5.446447e+01 4.000000e+00
      endloop
   endfacet
   facet normal -1.000000e+00 0.000000e+00 0.000000e+00
      outer loop
         vertex -2.500000e+01 1.050000e+01 0.000000e+00
         vertex -2.500000e+01 7.545664e+00 9.240851e+00
         vertex -2.500000e+01 1.050000e+01 2.100000e+01
      endloop
   endfacet
   facet normal -1.000000e+00 0.000000e+00 0.000000e+00
      outer loop
         vertex -2.500000e+01 7.545664e+00 9.240851e+00
         vertex -2.500000e+01 7.545664e+00 1.175915e+01
         vertex -2.500000e+01 1.050000e+01 2.100000e+01
      endloop
   endfacet
   facet normal -1.000000e+00 0.000000e+00 0.000000e+00
      outer loop
         vertex -2.500000e+01 1.050000e+01 2.100000e+01
         vertex -2.500000e+01 3.072970e+00 1.750567e+01
         vertex -2.500000e+01 -1.050000e+01 2.100000e+01
      endloop
   endfacet
   facet normal -1.000000e+00 0.000000e+00 0.000000e+00
      outer loop
         vertex -2.500000e+01 3.072970e+00 1.750567e+01
         vertex -2.500000e+01 6.317320e-01 1.812387e+01
         vertex -2.500000e+01 -1.050000e+01 2.100000e+01
      endloop
   endfacet
   facet normal -1.000000e+00 -0.000000e+00 0.000000e+00
      outer loop
         vertex -2.500000e+01 -1.050000e+01 2.100000e+01
         vertex -2.500000e+01 -7.235502e+00 1.298395e+01
         vertex -2.500000e+01 -1.050000e+01 4.000000e+00
      endloop
   endfacet
   facet normal -1.000000e+00 -0.000000e+00 0.000000e+00
      outer loop
         vertex -2.500000e+01 -7.235502e+00 1.298395e+01
         vertex -2.500000e+01 -7.650000e+00 1.050000e+01
         vertex -2.500000e+01 -1.050000e+01 4.000000e+00
      endloop
   endfacet
   facet normal -1.000000e+00 0.000000e+00 0.000000e+00
      outer loop
         vertex -2.500000e+01 -1.050000e+01 4.000000e+00
         vertex -2.500000e+01 -7.650000e+00 1.050000e+01
         vertex -2.500000e+01 -1.050000e+01 0.000000e+00
      endloop
   endfacet
   facet normal -1.000000e+00 -0.000000e+00 0.000000e+00
      outer loop
         vertex -2.500000e+01 -7.650000e+00 1.050000e+01
         vertex -2.500000e+01 -7.235502e+00 8.016049e+00
         vertex -2.500000e+01 -1.050000e+01 0.000000e+00
      endloop
   endfacet
   facet normal -1.000000e+00 0.000000e+00 -0.000000e+00
      outer loop
         vertex -2.500000e+01 -1.050000e+01 0.000000e+00
         vertex -2.500000e+01 -1.877964e+00 3.084088e+00
         vertex -2.500000e+01 1.050000e+01 0.000000e+00
      endloop
   endfacet
   facet normal -1.000000e+00 -0.000000e+00 -0.000000e+00
      outer loop
         vertex -2.500000e+01 -1.877964e+00 3.084088e+00
         vertex -2.500000e+01 6.317320e-01 2.876129e+00
         vertex -2.500000e+01 1.050000e+01 0.000000e+00
      endloop
   endfacet
   facet normal -1.000000e+00 0.000000e+00 0.000000e+00
      outer loop
         vertex -2.500000e+01 1.050000e+01 0.000000e+00
         vertex -2.500000e+01 3.072970e+00 3.494334e+00
         vertex -2.500000e+01 5.181204e+00 4.871712e+00
      endloop
   endfacet
   facet normal -1.000000e+00 0.000000e+00 0.000000e+00
      outer loop
         vertex -2.500000e+01 3.072970e+00 3.494334e+00
         vertex -2.500000e+01 1.050000e+01 0.000000e+00
         vertex -2.500000e+01 6.317320e-01 2.876129e+00
      endloop
   endfacet
   facet normal -1.000000e+00 0.000000e+00 0.000000e+00
      outer loop
         vertex -2.500000e+01 -1.877964e+00 3.084088e+00
         vertex -2.500000e+01 -1.050000e+01 0.000000e+00
         vertex -2.500000e+01 -4.184154e+00 4.095676e+00
      endloop
   endfacet
   facet normal -1.000000e+00 0.000000e+00 0.000000e+00
      outer loop
         vertex -2.500000e+01 -4.184154e+00 4.095676e+00
         vertex -2.500000e+01 -1.050000e+01 0.000000e+00
         vertex -2.500000e+01 -6.036925e+00 5.801273e+00
      endloop
   endfacet
   facet normal -1.000000e+00 0.000000e+00 -0.000000e+00
      outer loop
         vertex -2.500000e+01 -1.050000e+01 0.000000e+00
         vertex -2.500000e+01 -7.235502e+00 8.016049e+00
         vertex -2.500000e+01 -6.036925e+00 5.801273e+00
      endloop
   endfacet
   facet normal -1.000000e+00 0.000000e+00 0.000000e+00
      outer loop
         vertex -2.500000e+01 -7.235502e+00 1.298395e+01
         vertex -2.500000e+01 -1.050000e+01 2.100000e+01
         vertex -2.500000e+01 -6.036925e+00 1.519873e+01
      endloop
   endfacet
   facet normal -1.000000e+00 0.000000e+00 0.000000e+00
      outer loop
         vertex -2.500000e+01 -6.036925e+00 1.519873e+01
         vertex -2.500000e+01 -1.050000e+01 2.100000e+01
         vertex -2.500000e+01 -4.184154e+00 1.690432e+01
      endloop
   endfacet
   facet normal -1.000000e+00 -0.000000e+00 0.000000e+00
      outer loop
         vertex -2.500000e+01 -1.050000e+01 2.100000e+01
         vertex -2.500000e+01 -1.877964e+00 1.791591e+01
         vertex -2.500000e+01 -4.184154e+00 1.690432e+01
      endloop
   endfacet
   facet normal -1.000000e+00 0.000000e+00 0.000000e+00
      outer loop
         vertex -2.500000e+01 -1.877964e+00 1.791591e+01
         vertex -2.500000e+01 -1.050000e+01 2.100000e+01
         vertex -2.500000e+01 6.317320e-01 1.812387e+01
      endloop
   endfacet
   facet normal -1.000000e+00 0.000000e+00 0.000000e+00
      outer loop
         vertex -2.500000e+01 3.072970e+00 1.750567e+01
         vertex -2.500000e+01 1.050000e+01 2.100000e+01
         vertex -2.500000e+01 5.181204e+00 1.612829e+01
      endloop
   endfacet
   facet normal -1.000000e+00 0.000000e+00 0.000000e+00
      outer loop
         vertex -2.500000e+01 1.050000e+01 2.100000e+01
         vertex -2.500000e+01 6.727974e+00 1.414100e+01
         vertex -2.500000e+01 5.181204e+00 1.612829e+01
      endloop
   endfacet
   facet normal -1.000000e+00 0.000000e+00 0.000000e+00
      outer loop
         vertex -2.500000e+01 6.727974e+00 1.414100e+01
         vertex -2.500000e+01 1.050000e+01 2.100000e+01
         vertex -2.500000e+01 7.545664e+00 1.175915e+01
      endloop
   endfacet
   facet normal -1.000000e+00 0.000000e+00 0.000000e+00
      outer loop
         vertex -2.500000e+01 7.545664e+00 9.240851e+00
         vertex -2.500000e+01 1.050000e+01 0.000000e+00
         vertex -2.500000e+01 6.727974e+00 6.859003e+00
      endloop
   endfacet
   facet normal -1.000000e+00 0.000000e+00 0.000000e+00
      outer loop
         vertex -2.500000e+01 1.050000e+01 0.000000e+00
         vertex -2.500000e+01 5.181204e+00 4.871712e+00
         vertex -2.500000e+01 6.727974e+00 6.859003e+00
      endloop
   endfacet
   facet normal 0.000000e+00 1.000000e+00 -0.000000e+00
      outer loop
         vertex 2.500000e+01 1.050000e+01 2.100000e+01
         vertex 2.500000e+01 1.050000e+01 0.000000e+00
         vertex -2.500000e+01 1.050000e+01 0.000000e+00
      endloop
   endfacet
   facet normal 0.000000e+00 1.000000e+00 0.000000e+00
      outer loop
         vertex 2.500000e+01 1.050000e+01 2.100000e+01
         vertex -2.500000e+01 1.050000e+01 0.000000e+00
         vertex -2.500000e+01 1.050000e+01 2.100000e+01
      endloop
   endfacet
   facet normal 1.000000e+00 0.000000e+00 -0.000000e+00
      outer loop
         vertex 2.500000e+01 -1.050000e+01 2.100000e+01
         vertex 2.500000e+01 -1.778923e+00 1.419397e+01
         vertex 2.500000e+01 1.050000e+01 2.100000e+01
      endloop
   endfacet
   facet normal 1.000000e+00 0.000000e+00 -0.000000e+00
      outer loop
         vertex 2.500000e+01 -1.778923e+00 1.419397e+01
         vertex 2.500000e+01 5.021052e-16 1.460000e+01
         vertex 2.500000e+01 1.050000e+01 2.100000e+01
      endloop
   endfacet
   facet normal 1.000000e+00 -0.000000e+00 0.000000e+00
      outer loop
         vertex 2.500000e+01 1.050000e+01 2.100000e+01
         vertex 2.500000e+01 3.205509e+00 1.305631e+01
         vertex 2.500000e+01 1.050000e+01 0.000000e+00
      endloop
   endfacet
   facet normal 1.000000e+00 -0.000000e+00 -0.000000e+00
      outer loop
         vertex 2.500000e+01 3.205509e+00 1.305631e+01
         vertex 2.500000e+01 3.997205e+00 1.141234e+01
         vertex 2.500000e+01 1.050000e+01 0.000000e+00
      endloop
   endfacet
   facet normal 1.000000e+00 0.000000e+00 0.000000e+00
      outer loop
         vertex 2.500000e+01 1.050000e+01 0.000000e+00
         vertex 2.500000e+01 1.778923e+00 6.806027e+00
         vertex 2.500000e+01 -1.050000e+01 0.000000e+00
      endloop
   endfacet
   facet normal 1.000000e+00 -0.000000e+00 0.000000e+00
      outer loop
         vertex 2.500000e+01 1.778923e+00 6.806027e+00
         vertex 2.500000e+01 -2.510526e-16 6.400000e+00
         vertex 2.500000e+01 -1.050000e+01 0.000000e+00
      endloop
   endfacet
   facet normal 1.000000e+00 0.000000e+00 0.000000e+00
      outer loop
         vertex 2.500000e+01 -1.050000e+01 0.000000e+00
         vertex 2.500000e+01 -2.510526e-16 6.400000e+00
         vertex 2.500000e+01 -1.050000e+01 4.000000e+00
      endloop
   endfacet
   facet normal 1.000000e+00 0.000000e+00 0.000000e+00
      outer loop
         vertex 2.500000e+01 -2.510526e-16 6.400000e+00
         vertex 2.500000e+01 -1.778923e+00 6.806027e+00
         vertex 2.500000e+01 -1.050000e+01 4.000000e+00
      endloop
   endfacet
   facet normal 1.000000e+00 0.000000e+00 0.000000e+00
      outer loop
         vertex 2.500000e+01 -1.050000e+01 4.000000e+00
         vertex 2.500000e+01 -3.205509e+00 7.943692e+00
         vertex 2.500000e+01 -1.050000e+01 2.100000e+01
      endloop
   endfacet
   facet normal 1.000000e+00 0.000000e+00 0.000000e+00
      outer loop
         vertex 2.500000e+01 -3.205509e+00 7.943692e+00
         vertex 2.500000e+01 -3.997205e+00 9.587665e+00
         vertex 2.500000e+01 -1.050000e+01 2.100000e+01
      endloop
   endfacet
   facet normal 1.000000e+00 0.000000e+00 -0.000000e+00
      outer loop
         vertex 2.500000e+01 -1.050000e+01 2.100000e+01
         vertex 2.500000e+01 -3.997205e+00 1.141234e+01
         vertex 2.500000e+01 -3.205509e+00 1.305631e+01
      endloop
   endfacet
   facet normal 1.000000e+00 0.000000e+00 0.000000e+00
      outer loop
         vertex 2.500000e+01 -3.997205e+00 1.141234e+01
         vertex 2.500000e+01 -1.050000e+01 2.100000e+01
         vertex 2.500000e+01 -3.997205e+00 9.587665e+00
      endloop
   endfacet
   facet normal 1.000000e+00 0.000000e+00 0.000000e+00
      outer loop
         vertex 2.500000e+01 -3.205509e+00 7.943692e+00
         vertex 2.500000e+01 -1.050000e+01 4.000000e+00
         vertex 2.500000e+01 -1.778923e+00 6.806027e+00
      endloop
   endfacet
   facet normal 1.000000e+00 0.000000e+00 0.000000e+00
      outer loop
         vertex 2.500000e+01 1.778923e+00 6.806027e+00
         vertex 2.500000e+01 1.050000e+01 0.000000e+00
         vertex 2.500000e+01 3.205509e+00 7.943692e+00
      endloop
   endfacet
   facet normal 1.000000e+00 0.000000e+00 0.000000e+00
      outer loop
         vertex 2.500000e+01 1.050000e+01 0.000000e+00
         vertex 2.500000e+01 3.997205e+00 9.587665e+00
         vertex 2.500000e+01 3.205509e+00 7.943692e+00
      endloop
   endfacet
   facet normal 1.000000e+00 0.000000e+00 0.000000e+00
      outer loop
         vertex 2.500000e+01 3.997205e+00 9.587665e+00
         vertex 2.500000e+01 1.050000e+01 0.000000e+00
         vertex 2.500000e+01 3.997205e+00 1.141234e+01
      endloop
   endfacet
   facet normal 1.000000e+00 0.000000e+00 0.000000e+00
      outer loop
         vertex 2.500000e+01 3.205509e+00 1.305631e+01
         vertex 2.500000e+01 1.050000e+01 2.100000e+01
         vertex 2.500000e+01 1.778923e+00 1.419397e+01
      endloop
   endfacet
   facet normal 1.000000e+00 -0.000000e+00 0.000000e+00
      outer loop
         vertex 2.500000e+01 1.050000e+01 2.100000e+01
         vertex 2.500000e+01 5.021052e-16 1.460000e+01
         vertex 2.500000e+01 1.778923e+00 1.419397e+01
      endloop
   endfacet
   facet normal 1.000000e+00 0.000000e+00 0.000000e+00
      outer loop
         vertex 2.500000e+01 -1.778923e+00 1.419397e+01
         vertex 2.500000e+01 -1.050000e+01 2.100000e+01
         vertex 2.500000e+01 -3.205509e+00 1.305631e+01
      endloop
   endfacet
   facet normal 9.438584e-01 -3.303504e-01 0.000000e+00
      outer loop
         vertex 7.500000e+00 -6.050000e+01 0.000000e+00
         vertex 2.500000e+01 -1.050000e+01 0.000000e+00
         vertex 2.500000e+01 -1.050000e+01 4.000000e+00
      endloop
   endfacet
   facet normal 9.438584e-01 -3.303504e-01 0.000000e+00
      outer loop
         vertex 7.500000e+00 -6.050000e+01 0.000000e+00
         vertex 2.500000e+01 -1.050000e+01 4.000000e+00
         vertex 7.500000e+00 -6.050000e+01 4.000000e+00
      endloop
   endfacet
   facet normal -0.000000e+00 -1.000000e+00 -0.000000e+00
      outer loop
         vertex 7.500000e+00 -6.050000e+01 0.000000e+00
         vertex 7.500000e+00 -6.050000e+01 4.000000e+00
         vertex -7.500000e+00 -6.050000e+01 4.000000e+00
      endloop
   endfacet
   facet normal 0.000000e+00 -1.000000e+00 0.000000e+00
      outer loop
         vertex 7.500000e+00 -6.050000e+01 0.000000e+00
         vertex -7.500000e+00 -6.050000e+01 4.000000e+00
         vertex -7.500000e+00 -6.050000e+01 0.000000e+00
      endloop
   endfacet
   facet normal -9.438584e-01 -3.303504e-01 -0.000000e+00
      outer loop
         vertex -7.500000e+00 -6.050000e+01 4.000000e+00
         vertex -2.500000e+01 -1.050000e+01 4.000000e+00
         vertex -2.500000e+01 -1.050000e+01 0.000000e+00
      endloop
   endfacet
   facet normal -9.438584e-01 -3.303504e-01 0.000000e+00
      outer loop
         vertex -7.500000e+00 -6.050000e+01 4.000000e+00
         vertex -2.500000e+01 -1.050000e+01 0.000000e+00
         vertex -7.500000e+00 -6.050000e+01 0.000000e+00
      endloop
   endfacet
   facet normal 0.000000e+00 -1.000000e+00 0.000000e+00
      outer loop
         vertex -2.500000e+01 -1.050000e+01 2.100000e+01
         vertex -2.500000e+01 -1.050000e+01 4.000000e+00
         vertex 2.500000e+01 -1.050000e+01 4.000000e+00
      endloop
   endfacet
   facet normal 0.000000e+00 -1.000000e+00 0.000000e+00
      outer loop
         vertex -2.500000e+01 -1.050000e+01 2.100000e+01
         vertex 2.500000e+01 -1.050000e+01 4.000000e+00
         vertex 2.500000e+01 -1.050000e+01 2.100000e+01
      endloop
   endfacet
   facet normal 0.000000e+00 0.000000e+00 1.000000e+00
      outer loop
         vertex 3.603875e+00 -5.793554e+01 2.100000e+01
         vertex 4.000000e+00 -5.620000e+01 2.100000e+01
         vertex 2.493959e+00 -5.932733e+01 2.100000e+01
      endloop
   endfacet
   facet normal 0.000000e+00 0.000000e+00 1.000000e+00
      outer loop
         vertex 4.000000e+00 -5.620000e+01 2.100000e+01
         vertex 3.603875e+00 -5.446447e+01 2.100000e+01
         vertex 2.493959e+00 -5.932733e+01 2.100000e+01
      endloop
   endfacet
   facet normal 0.000000e+00 0.000000e+00 1.000000e+00
      outer loop
         vertex 2.493959e+00 -5.932733e+01 2.100000e+01
         vertex 3.603875e+00 -5.446447e+01 2.100000e+01
         vertex 8.900837e-01 -6.009971e+01 2.100000e+01
      endloop
   endfacet
   facet normal 0.000000e+00 0.000000e+00 1.000000e+00
      outer loop
         vertex 3.603875e+00 -5.446447e+01 2.100000e+01
         vertex 2.493959e+00 -5.307267e+01 2.100000e+01
         vertex 8.900837e-01 -6.009971e+01 2.100000e+01
      endloop
   endfacet
   facet normal 0.000000e+00 0.000000e+00 1.000000e+00
      outer loop
         vertex 8.900837e-01 -6.009971e+01 2.100000e+01
         vertex 2.493959e+00 -5.307267e+01 2.100000e+01
         vertex -8.900837e-01 -6.009971e+01 2.100000e+01
      endloop
   endfacet
   facet normal 0.000000e+00 0.000000e+00 1.000000e+00
      outer loop
         vertex 2.493959e+00 -5.307267e+01 2.100000e+01
         vertex 8.900837e-01 -5.230029e+01 2.100000e+01
         vertex -8.900837e-01 -6.009971e+01 2.100000e+01
      endloop
   endfacet
   facet normal 0.000000e+00 0.000000e+00 1.000000e+00
      outer loop
         vertex -8.900837e-01 -6.009971e+01 2.100000e+01
         vertex 8.900837e-01 -5.230029e+01 2.100000e+01
         vertex -2.493959e+00 -5.932733e+01 2.100000e+01
      endloop
   endfacet
   facet normal -0.000000e+00 0.000000e+00 1.000000e+00
      outer loop
         vertex 8.900837e-01 -5.230029e+01 2.100000e+01
         vertex -8.900837e-01 -5.230029e+01 2.100000e+01
         vertex -2.493959e+00 -5.932733e+01 2.100000e+01
      endloop
   endfacet
   facet normal 0.000000e+00 0.000000e+00 1.000000e+00
      outer loop
         vertex -2.493959e+00 -5.932733e+01 2.100000e+01
         vertex -8.900837e-01 -5.230029e+01 2.100000e+01
         vertex -3.603875e+00 -5.793554e+01 2.100000e+01
      endloop
   endfacet
   facet normal -0.000000e+00 0.000000e+00 1.000000e+00
      outer loop
         vertex -8.900837e-01 -5.230029e+01 2.100000e+01
         vertex -2.493959e+00 -5.307267e+01 2.100000e+01
         vertex -3.603875e+00 -5.793554e+01 2.100000e+01
      endloop
   endfacet
   facet normal 0.000000e+00 0.000000e+00 1.000000e+00
      outer loop
         vertex -3.603875e+00 -5.793554e+01 2.100000e+01
         vertex -2.493959e+00 -5.307267e+01 2.100000e+01
         vertex -4.000000e+00 -5.620000e+01 2.100000e+01
      endloop
   endfacet
   facet normal -0.000000e+00 0.000000e+00 1.000000e+00
      outer loop
         vertex -2.493959e+00 -5.307267e+01 2.100000e+01
         vertex -3.603875e+00 -5.446447e+01 2.100000e+01
         vertex -4.000000e+00 -5.620000e+01 2.100000e+01
      endloop
   endfacet
   facet normal 0.000000e+00 0.000000e+00 1.000000e+00
      outer loop
         vertex -2.500000e+01 1.050000e+01 2.100000e+01
         vertex -2.500000e+01 -1.050000e+01 2.100000e+01
         vertex 2.500000e+01 -1.050000e+01 2.100000e+01
      endloop
   endfacet
   facet normal 0.000000e+00 -0.000000e+00 1.000000e+00
      outer loop
         vertex -2.500000e+01 1.050000e+01 2.100000e+01
         vertex 2.500000e+01 -1.050000e+01 2.100000e+01
         vertex 2.500000e+01 1.050000e+01 2.100000e+01
      endloop
   endfacet
   facet normal 0.000000e+00 9.863613e-01 -1.645947e-01
      outer loop
         vertex -2.500000e+01 -7.235502e+00 1.298395e+01
         vertex 2.000000e+01 -7.235502e+00 1.298395e+01
         vertex 2.000000e+01 -7.650000e+00 1.050000e+01
      endloop
   endfacet
   facet normal 0.000000e+00 9.863613e-01 -1.645947e-01
      outer loop
         vertex -2.500000e+01 -7.650000e+00 1.050000e+01
         vertex -2.500000e+01 -7.235502e+00 1.298395e+01
         vertex 2.000000e+01 -7.650000e+00 1.050000e+01
      endloop
   endfacet
   facet normal 0.000000e+00 8.794738e-01 -4.759473e-01
      outer loop
         vertex -2.500000e+01 -6.036925e+00 1.519873e+01
         vertex 2.000000e+01 -6.036925e+00 1.519873e+01
         vertex 2.000000e+01 -7.235502e+00 1.298395e+01
      endloop
   endfacet
   facet normal 0.000000e+00 8.794738e-01 -4.759473e-01
      outer loop
         vertex -2.500000e+01 -7.235502e+00 1.298395e+01
         vertex -2.500000e+01 -6.036925e+00 1.519873e+01
         vertex 2.000000e+01 -7.235502e+00 1.298395e+01
      endloop
   endfacet
   facet normal 0.000000e+00 6.772815e-01 -7.357239e-01
      outer loop
         vertex -2.500000e+01 -4.184154e+00 1.690432e+01
         vertex 2.000000e+01 -4.184154e+00 1.690432e+01
         vertex 2.000000e+01 -6.036925e+00 1.519873e+01
      endloop
   endfacet
   facet normal 0.000000e+00 6.772815e-01 -7.357239e-01
      outer loop
         vertex -2.500000e+01 -6.036925e+00 1.519873e+01
         vertex -2.500000e+01 -4.184154e+00 1.690432e+01
         vertex 2.000000e+01 -6.036925e+00 1.519873e+01
      endloop
   endfacet
   facet normal 0.000000e+00 4.016956e-01 -9.157732e-01
      outer loop
         vertex -2.500000e+01 -1.877964e+00 1.791591e+01
         vertex 2.000000e+01 -1.877964e+00 1.791591e+01
         vertex 2.000000e+01 -4.184154e+00 1.690432e+01
      endloop
   endfacet
   facet normal 0.000000e+00 4.016956e-01 -9.157732e-01
      outer loop
         vertex -2.500000e+01 -4.184154e+00 1.690432e+01
         vertex -2.500000e+01 -1.877964e+00 1.791591e+01
         vertex 2.000000e+01 -4.184154e+00 1.690432e+01
      endloop
   endfacet
   facet normal 0.000000e+00 8.257890e-02 -9.965845e-01
      outer loop
         vertex -2.500000e+01 6.317320e-01 1.812387e+01
         vertex 2.000000e+01 6.317320e-01 1.812387e+01
         vertex 2.000000e+01 -1.877964e+00 1.791591e+01
      endloop
   endfacet
   facet normal 0.000000e+00 8.257890e-02 -9.965845e-01
      outer loop
         vertex -2.500000e+01 -1.877964e+00 1.791591e+01
         vertex -2.500000e+01 6.317320e-01 1.812387e+01
         vertex 2.000000e+01 -1.877964e+00 1.791591e+01
      endloop
   endfacet
   facet normal -0.000000e+00 -2.454850e-01 -9.694004e-01
      outer loop
         vertex -2.500000e+01 3.072970e+00 1.750567e+01
         vertex 2.000000e+01 3.072970e+00 1.750567e+01
         vertex 2.000000e+01 6.317320e-01 1.812387e+01
      endloop
   endfacet
   facet normal 0.000000e+00 -2.454850e-01 -9.694004e-01
      outer loop
         vertex -2.500000e+01 6.317320e-01 1.812387e+01
         vertex -2.500000e+01 3.072970e+00 1.750567e+01
         vertex 2.000000e+01 6.317320e-01 1.812387e+01
      endloop
   endfacet
   facet normal -0.000000e+00 -5.469483e-01 -8.371664e-01
      outer loop
         vertex -2.500000e+01 5.181204e+00 1.612829e+01
         vertex 2.000000e+01 5.181204e+00 1.612829e+01
         vertex 2.000000e+01 3.072970e+00 1.750567e+01
      endloop
   endfacet
   facet normal 0.000000e+00 -5.469483e-01 -8.371664e-01
      outer loop
         vertex -2.500000e+01 3.072970e+00 1.750567e+01
         vertex -2.500000e+01 5.181204e+00 1.612829e+01
         vertex 2.000000e+01 3.072970e+00 1.750567e+01
      endloop
   endfacet
   facet normal -0.000000e+00 -7.891404e-01 -6.142128e-01
      outer loop
         vertex -2.500000e+01 6.727974e+00 1.414100e+01
         vertex 2.000000e+01 6.727974e+00 1.414100e+01
         vertex 2.000000e+01 5.181204e+00 1.612829e+01
      endloop
   endfacet
   facet normal 0.000000e+00 -7.891404e-01 -6.142128e-01
      outer loop
         vertex -2.500000e+01 5.181204e+00 1.612829e+01
         vertex -2.500000e+01 6.727974e+00 1.414100e+01
         vertex 2.000000e+01 5.181204e+00 1.612829e+01
      endloop
   endfacet
   facet normal -0.000000e+00 -9.458173e-01 -3.246993e-01
      outer loop
         vertex -2.500000e+01 7.545664e+00 1.175915e+01
         vertex 2.000000e+01 7.545664e+00 1.175915e+01
         vertex 2.000000e+01 6.727974e+00 1.414100e+01
      endloop
   endfacet
   facet normal 0.000000e+00 -9.458173e-01 -3.246993e-01
      outer loop
         vertex -2.500000e+01 6.727974e+00 1.414100e+01
         vertex -2.500000e+01 7.545664e+00 1.175915e+01
         vertex 2.000000e+01 6.727974e+00 1.414100e+01
      endloop
   endfacet
   facet normal 0.000000e+00 -1.000000e+00 0.000000e+00
      outer loop
         vertex -2.500000e+01 7.545664e+00 9.240851e+00
         vertex 2.000000e+01 7.545664e+00 9.240851e+00
         vertex 2.000000e+01 7.545664e+00 1.175915e+01
      endloop
   endfacet
   facet normal 0.000000e+00 -1.000000e+00 0.000000e+00
      outer loop
         vertex -2.500000e+01 7.545664e+00 1.175915e+01
         vertex -2.500000e+01 7.545664e+00 9.240851e+00
         vertex 2.000000e+01 7.545664e+00 1.175915e+01
      endloop
   endfacet
   facet normal 0.000000e+00 -9.458173e-01 3.246994e-01
      outer loop
         vertex -2.500000e+01 6.727974e+00 6.859003e+00
         vertex 2.000000e+01 6.727974e+00 6.859003e+00
         vertex 2.000000e+01 7.545664e+00 9.240851e+00
      endloop
   endfacet
   facet normal 0.000000e+00 -9.458173e-01 3.246994e-01
      outer loop
         vertex -2.500000e+01 7.545664e+00 9.240851e+00
         vertex -2.500000e+01 6.727974e+00 6.859003e+00
         vertex 2.000000e+01 7.545664e+00 9.240851e+00
      endloop
   endfacet
   facet normal 0.000000e+00 -7.891404e-01 6.142128e-01
      outer loop
         vertex -2.500000e+01 5.181204e+00 4.871712e+00
         vertex 2.000000e+01 5.181204e+00 4.871712e+00
         vertex 2.000000e+01 6.727974e+00 6.859003e+00
      endloop
   endfacet
   facet normal 0.000000e+00 -7.891404e-01 6.142128e-01
      outer loop
         vertex -2.500000e+01 6.727974e+00 6.859003e+00
         vertex -2.500000e+01 5.181204e+00 4.871712e+00
         vertex 2.000000e+01 6.727974e+00 6.859003e+00
      endloop
   endfacet
   facet normal 0.000000e+00 -5.469482e-01 8.371664e-01
      outer loop
         vertex -2.500000e+01 3.072970e+00 3.494334e+00
         vertex 2.000000e+01 3.072970e+00 3.494334e+00
         vertex 2.000000e+01 5.181204e+00 4.871712e+00
      endloop
   endfacet
   facet normal 0.000000e+00 -5.469482e-01 8.371664e-01
      outer loop
         vertex -2.500000e+01 5.181204e+00 4.871712e+00
         vertex -2.500000e+01 3.072970e+00 3.494334e+00
         vertex 2.000000e+01 5.181204e+00 4.871712e+00
      endloop
   endfacet
   facet normal 0.000000e+00 -2.454855e-01 9.694003e-01
      outer loop
         vertex -2.500000e+01 6.317320e-01 2.876129e+00
         vertex 2.000000e+01 6.317320e-01 2.876129e+00
         vertex 2.000000e+01 3.072970e+00 3.494334e+00
      endloop
   endfacet
   facet normal 0.000000e+00 -2.454855e-01 9.694003e-01
      outer loop
         vertex -2.500000e+01 3.072970e+00 3.494334e+00
         vertex -2.500000e+01 6.317320e-01 2.876129e+00
         vertex 2.000000e+01 3.072970e+00 3.494334e+00
      endloop
   endfacet
   facet normal 0.000000e+00 8.257928e-02 9.965845e-01
      outer loop
         vertex -2.500000e+01 -1.877964e+00 3.084088e+00
         vertex 2.000000e+01 -1.877964e+00 3.084088e+00
         vertex 2.000000e+01 6.317320e-01 2.876129e+00
      endloop
   endfacet
   facet normal 0.000000e+00 8.257928e-02 9.965845e-01
      outer loop
         vertex -2.500000e+01 6.317320e-01 2.876129e+00
         vertex -2.500000e+01 -1.877964e+00 3.084088e+00
         vertex 2.000000e+01 6.317320e-01 2.876129e+00
      endloop
   endfacet
   facet normal 0.000000e+00 4.016954e-01 9.157733e-01
      outer loop
         vertex -2.500000e+01 -4.184154e+00 4.095676e+00
         vertex 2.000000e+01 -4.184154e+00 4.095676e+00
         vertex 2.000000e+01 -1.877964e+00 3.084088e+00
      endloop
   endfacet
   facet normal 0.000000e+00 4.016954e-01 9.157733e-01
      outer loop
         vertex -2.500000e+01 -1.877964e+00 3.084088e+00
         vertex -2.500000e+01 -4.184154e+00 4.095676e+00
         vertex 2.000000e+01 -1.877964e+00 3.084088e+00
      endloop
   endfacet
   facet normal 0.000000e+00 6.772816e-01 7.357238e-01
      outer loop
         vertex -2.500000e+01 -6.036925e+00 5.801273e+00
         vertex 2.000000e+01 -6.036925e+00 5.801273e+00
         vertex 2.000000e+01 -4.184154e+00 4.095676e+00
      endloop
   endfacet
   facet normal 0.000000e+00 6.772816e-01 7.357238e-01
      outer loop
         vertex -2.500000e+01 -4.184154e+00 4.095676e+00
         vertex -2.500000e+01 -6.036925e+00 5.801273e+00
         vertex 2.000000e+01 -4.184154e+00 4.095676e+00
      endloop
   endfacet
   facet normal 0.000000e+00 8.794738e-01 4.759473e-01
      outer loop
         vertex -2.500000e+01 -7.235502e+00 8.016049e+00
         vertex 2.000000e+01 -7.235502e+00 8.016049e+00
         vertex 2.000000e+01 -6.036925e+00 5.801273e+00
      endloop
   endfacet
   facet normal 0.000000e+00 8.794738e-01 4.759473e-01
      outer loop
         vertex -2.500000e+01 -6.036925e+00 5.801273e+00
         vertex -2.500000e+01 -7.235502e+00 8.016049e+00
         vertex 2.000000e+01 -6.036925e+00 5.801273e+00
      endloop
   endfacet
   facet normal 0.000000e+00 9.863613e-01 1.645947e-01
      outer loop
         vertex -2.500000e+01 -7.650000e+00 1.050000e+01
         vertex 2.000000e+01 -7.650000e+00 1.050000e+01
         vertex 2.000000e+01 -7.235502e+00 8.016049e+00
      endloop
   endfacet
   facet normal 0.000000e+00 9.863613e-01 1.645947e-01
      outer loop
         vertex -2.500000e+01 -7.235502e+00 8.016049e+00
         vertex -2.500000e+01 -7.650000e+00 1.050000e+01
         vertex 2.000000e+01 -7.235502e+00 8.016049e+00
      endloop
   endfacet
   facet normal 0.000000e+00 2.225210e-01 -9.749279e-01
      outer loop
         vertex 2.500000e+01 -1.778923e+00 1.419397e+01
         vertex 2.000000e+01 -1.778923e+00 1.419397e+01
         vertex 2.000000e+01 0.000000e+00 1.460000e+01
      endloop
   endfacet
   facet normal 0.000000e+00 2.225210e-01 -9.749279e-01
      outer loop
         vertex 2.500000e+01 0.000000e+00 1.460000e+01
         vertex 2.500000e+01 -1.778923e+00 1.419397e+01
         vertex 2.000000e+01 0.000000e+00 1.460000e+01
      endloop
   endfacet
   facet normal 0.000000e+00 6.234900e-01 -7.818314e-01
      outer loop
         vertex 2.500000e+01 -3.205509e+00 1.305631e+01
         vertex 2.000000e+01 -3.205509e+00 1.305631e+01
         vertex 2.000000e+01 -1.778923e+00 1.419397e+01
      endloop
   endfacet
   facet normal 0.000000e+00 6.234900e-01 -7.818314e-01
      outer loop
         vertex 2.500000e+01 -1.778923e+00 1.419397e+01
         vertex 2.500000e+01 -3.205509e+00 1.305631e+01
         vertex 2.000000e+01 -1.778923e+00 1.419397e+01
      endloop
   endfacet
   facet normal 0.000000e+00 9.009689e-01 -4.338837e-01
      outer loop
         vertex 2.500000e+01 -3.997205e+00 1.141234e+01
         vertex 2.000000e+01 -3.997205e+00 1.141234e+01
         vertex 2.000000e+01 -3.205509e+00 1.305631e+01
      endloop
   endfacet
   facet normal 0.000000e+00 9.009689e-01 -4.338837e-01
      outer loop
         vertex 2.500000e+01 -3.205509e+00 1.305631e+01
         vertex 2.500000e+01 -3.997205e+00 1.141234e+01
         vertex 2.000000e+01 -3.205509e+00 1.305631e+01
      endloop
   endfacet
   facet normal 0.000000e+00 1.000000e+00 0.000000e+00
      outer loop
         vertex 2.500000e+01 -3.997205e+00 9.587665e+00
         vertex 2.000000e+01 -3.997205e+00 9.587665e+00
         vertex 2.000000e+01 -3.997205e+00 1.141234e+01
      endloop
   endfacet
   facet normal 0.000000e+00 1.000000e+00 -0.000000e+00
      outer loop
         vertex 2.500000e+01 -3.997205e+00 1.141234e+01
         vertex 2.500000e+01 -3.997205e+00 9.587665e+00
         vertex 2.000000e+01 -3.997205e+00 1.141234e+01
      endloop
   endfacet
   facet normal -0.000000e+00 9.009689e-01 4.338836e-01
      outer loop
         vertex 2.500000e+01 -3.205509e+00 7.943692e+00
         vertex 2.000000e+01 -3.205509e+00 7.943692e+00
         vertex 2.000000e+01 -3.997205e+00 9.587665e+00
      endloop
   endfacet
   facet normal 0.000000e+00 9.009689e-01 4.338836e-01
      outer loop
         vertex 2.500000e+01 -3.997205e+00 9.587665e+00
         vertex 2.500000e+01 -3.205509e+00 7.943692e+00
         vertex 2.000000e+01 -3.997205e+00 9.587665e+00
      endloop
   endfacet
   facet normal -0.000000e+00 6.234898e-01 7.818315e-01
      outer loop
         vertex 2.500000e+01 -1.778923e+00 6.806027e+00
         vertex 2.000000e+01 -1.778923e+00 6.806027e+00
         vertex 2.000000e+01 -3.205509e+00 7.943692e+00
      endloop
   endfacet
   facet normal 0.000000e+00 6.234898e-01 7.818315e-01
      outer loop
         vertex 2.500000e+01 -3.205509e+00 7.943692e+00
         vertex 2.500000e+01 -1.778923e+00 6.806027e+00
         vertex 2.000000e+01 -3.205509e+00 7.943692e+00
      endloop
   endfacet
   facet normal -0.000000e+00 2.225208e-01 9.749279e-01
      outer loop
         vertex 2.500000e+01 -5.021052e-16 6.400000e+00
         vertex 2.000000e+01 -5.021052e-16 6.400000e+00
         vertex 2.000000e+01 -1.778923e+00 6.806027e+00
      endloop
   endfacet
   facet normal 0.000000e+00 2.225208e-01 9.749279e-01
      outer loop
         vertex 2.500000e+01 -1.778923e+00 6.806027e+00
         vertex 2.500000e+01 -5.021052e-16 6.400000e+00
         vertex 2.000000e+01 -1.778923e+00 6.806027e+00
      endloop
   endfacet
   facet normal 0.000000e+00 -2.225208e-01 9.749279e-01
      outer loop
         vertex 2.500000e+01 1.778923e+00 6.806027e+00
         vertex 2.000000e+01 1.778923e+00 6.806027e+00
         vertex 2.000000e+01 -5.021052e-16 6.400000e+00
      endloop
   endfacet
   facet normal 0.000000e+00 -2.225208e-01 9.749279e-01
      outer loop
         vertex 2.500000e+01 -5.021052e-16 6.400000e+00
         vertex 2.500000e+01 1.778923e+00 6.806027e+00
         vertex 2.000000e+01 -5.021052e-16 6.400000e+00
      endloop
   endfacet
   facet normal 0.000000e+00 -6.234898e-01 7.818315e-01
      outer loop
         vertex 2.500000e+01 3.205509e+00 7.943692e+00
         vertex 2.000000e+01 3.205509e+00 7.943692e+00
         vertex 2.000000e+01 1.778923e+00 6.806027e+00
      endloop
   endfacet
   facet normal 0.000000e+00 -6.234898e-01 7.818315e-01
      outer loop
         vertex 2.500000e+01 1.778923e+00 6.806027e+00
         vertex 2.500000e+01 3.205509e+00 7.943692e+00
         vertex 2.000000e+01 1.778923e+00 6.806027e+00
      endloop
   endfacet
   facet normal 0.000000e+00 -9.009689e-01 4.338836e-01
      outer loop
         vertex 2.500000e+01 3.997205e+00 9.587665e+00
         vertex 2.000000e+01 3.997205e+00 9.587665e+00
         vertex 2.000000e+01 3.205509e+00 7.943692e+00
      endloop
   endfacet
   facet normal 0.000000e+00 -9.009689e-01 4.338836e-01
      outer loop
         vertex 2.500000e+01 3.205509e+00 7.943692e+00
         vertex 2.500000e+01 3.997205e+00 9.587665e+00
         vertex 2.000000e+01 3.205509e+00 7.943692e+00
      endloop
   endfacet
   facet normal 0.000000e+00 -1.000000e+00 0.000000e+00
      outer loop
         vertex 2.500000e+01 3.997205e+00 1.141234e+01
         vertex 2.000000e+01 3.997205e+00 1.141234e+01
         vertex 2.000000e+01 3.997205e+00 9.587665e+00
      endloop
   endfacet
   facet normal 0.000000e+00 -1.000000e+00 -0.000000e+00
      outer loop
         vertex 2.500000e+01 3.997205e+00 9.587665e+00
         vertex 2.500000e+01 3.997205e+00 1.141234e+01
         vertex 2.000000e+01 3.997205e+00 9.587665e+00
      endloop
   endfacet
   facet normal 0.000000e+00 -9.009689e-01 -4.338837e-01
      outer loop
         vertex 2.500000e+01 3.205509e+00 1.305631e+01
         vertex 2.000000e+01 3.205509e+00 1.305631e+01
         vertex 2.000000e+01 3.997205e+00 1.141234e+01
      endloop
   endfacet
   facet normal 0.000000e+00 -9.009689e-01 -4.338837e-01
      outer loop
         vertex 2.500000e+01 3.997205e+00 1.141234e+01
         vertex 2.500000e+01 3.205509e+00 1.305631e+01
         vertex 2.000000e+01 3.997205e+00 1.141234e+01
      endloop
   endfacet
   facet normal 0.000000e+00 -6.234900e-01 -7.818314e-01
      outer loop
         vertex 2.500000e+01 1.778923e+00 1.419397e+01
         vertex 2.000000e+01 1.778923e+00 1.419397e+01
         vertex 2.000000e+01 3.205509e+00 1.305631e+01
      endloop
   endfacet
   facet normal 0.000000e+00 -6.234900e-01 -7.818314e-01
      outer loop
         vertex 2.500000e+01 3.205509e+00 1.305631e+01
         vertex 2.500000e+01 1.778923e+00 1.419397e+01
         vertex 2.000000e+01 3.205509e+00 1.305631e+01
      endloop
   endfacet
   facet normal 0.000000e+00 -2.225210e-01 -9.749279e-01
      outer loop
         vertex 2.500000e+01 1.004210e-15 1.460000e+01
         vertex 2.000000e+01 1.004210e-15 1.460000e+01
         vertex 2.000000e+01 1.778923e+00 1.419397e+01
      endloop
   endfacet
   facet normal 0.000000e+00 -2.225210e-01 -9.749279e-01
      outer loop
         vertex 2.500000e+01 1.778923e+00 1.419397e+01
         vertex 2.500000e+01 1.004210e-15 1.460000e+01
         vertex 2.000000e+01 1.778923e+00 1.419397e+01
      endloop
   endfacet
   facet normal -1.000000e+00 0.000000e+00 0.000000e+00
      outer loop
         vertex 2.000000e+01 -7.235502e+00 8.016049e+00
         vertex 2.000000e+01 -7.650000e+00 1.050000e+01
         vertex 2.000000e+01 -6.036925e+00 5.801273e+00
      endloop
   endfacet
   facet normal -1.000000e+00 0.000000e+00 -0.000000e+00
      outer loop
         vertex 2.000000e+01 -7.650000e+00 1.050000e+01
         vertex 2.000000e+01 -7.235502e+00 1.298395e+01
         vertex 2.000000e+01 -6.036925e+00 5.801273e+00
      endloop
   endfacet
   facet normal -1.000000e+00 0.000000e+00 0.000000e+00
      outer loop
         vertex 2.000000e+01 -6.036925e+00 5.801273e+00
         vertex 2.000000e+01 -7.235502e+00 1.298395e+01
         vertex 2.000000e+01 -4.184154e+00 4.095676e+00
      endloop
   endfacet
   facet normal -1.000000e+00 0.000000e+00 -0.000000e+00
      outer loop
         vertex 2.000000e+01 -7.235502e+00 1.298395e+01
         vertex 2.000000e+01 -6.036925e+00 1.519873e+01
         vertex 2.000000e+01 -4.184154e+00 4.095676e+00
      endloop
   endfacet
   facet normal -1.000000e+00 0.000000e+00 0.000000e+00
      outer loop
         vertex 2.000000e+01 -4.184154e+00 4.095676e+00
         vertex 2.000000e+01 -6.036925e+00 1.519873e+01
         vertex 2.000000e+01 -1.877964e+00 3.084088e+00
      endloop
   endfacet
   facet normal -1.000000e+00 -0.000000e+00 -0.000000e+00
      outer loop
         vertex 2.000000e+01 -6.036925e+00 1.519873e+01
         vertex 2.000000e+01 -3.997205e+00 9.587665e+00
         vertex 2.000000e+01 -1.877964e+00 3.084088e+00
      endloop
   endfacet
   facet normal -1.000000e+00 0.000000e+00 0.000000e+00
      outer loop
         vertex 2.000000e+01 -1.877964e+00 3.084088e+00
         vertex 2.000000e+01 -3.205509e+00 7.943692e+00
         vertex 2.000000e+01 6.317320e-01 2.876129e+00
      endloop
   endfacet
   facet normal -1.000000e+00 -0.000000e+00 -0.000000e+00
      outer loop
         vertex 2.000000e+01 -3.205509e+00 7.943692e+00
         vertex 2.000000e+01 -1.778923e+00 6.806027e+00
         vertex 2.000000e+01 6.317320e-01 2.876129e+00
      endloop
   endfacet
   facet normal -1.000000e+00 0.000000e+00 0.000000e+00
      outer loop
         vertex 2.000000e+01 6.317320e-01 2.876129e+00
         vertex 2.000000e+01 -1.778923e+00 6.806027e+00
         vertex 2.000000e+01 3.072970e+00 3.494334e+00
      endloop
   endfacet
   facet normal -1.000000e+00 -0.000000e+00 -0.000000e+00
      outer loop
         vertex 2.000000e+01 -1.778923e+00 6.806027e+00
         vertex 2.000000e+01 -5.021052e-16 6.400000e+00
         vertex 2.000000e+01 3.072970e+00 3.494334e+00
      endloop
   endfacet
   facet normal -1.000000e+00 0.000000e+00 0.000000e+00
      outer loop
         vertex 2.000000e+01 3.072970e+00 3.494334e+00
         vertex 2.000000e+01 -5.021052e-16 6.400000e+00
         vertex 2.000000e+01 5.181204e+00 4.871712e+00
      endloop
   endfacet
   facet normal -1.000000e+00 0.000000e+00 -0.000000e+00
      outer loop
         vertex 2.000000e+01 -5.021052e-16 6.400000e+00
         vertex 2.000000e+01 1.778923e+00 6.806027e+00
         vertex 2.000000e+01 5.181204e+00 4.871712e+00
      endloop
   endfacet
   facet normal -1.000000e+00 0.000000e+00 0.000000e+00
      outer loop
         vertex 2.000000e+01 5.181204e+00 4.871712e+00
         vertex 2.000000e+01 1.778923e+00 6.806027e+00
         vertex 2.000000e+01 6.727974e+00 6.859003e+00
      endloop
   endfacet
   facet normal -1.000000e+00 0.000000e+00 -0.000000e+00
      outer loop
         vertex 2.000000e+01 1.778923e+00 6.806027e+00
         vertex 2.000000e+01 3.205509e+00 7.943692e+00
         vertex 2.000000e+01 6.727974e+00 6.859003e+00
      endloop
   endfacet
   facet normal -1.000000e+00 0.000000e+00 0.000000e+00
      outer loop
         vertex 2.000000e+01 6.727974e+00 6.859003e+00
         vertex 2.000000e+01 3.205509e+00 7.943692e+00
         vertex 2.000000e+01 7.545664e+00 9.240851e+00
      endloop
   endfacet
   facet normal -1.000000e+00 0.000000e+00 -0.000000e+00
      outer loop
         vertex 2.000000e+01 3.205509e+00 7.943692e+00
         vertex 2.000000e+01 3.997205e+00 9.587665e+00
         vertex 2.000000e+01 7.545664e+00 9.240851e+00
      endloop
   endfacet
   facet normal -1.000000e+00 0.000000e+00 0.000000e+00
      outer loop
         vertex 2.000000e+01 7.545664e+00 9.240851e+00
         vertex 2.000000e+01 3.997205e+00 9.587665e+00
         vertex 2.000000e+01 7.545664e+00 1.175915e+01
      endloop
   endfacet
   facet normal -1.000000e+00 0.000000e+00 0.000000e+00
      outer loop
         vertex 2.000000e+01 3.997205e+00 9.587665e+00
         vertex 2.000000e+01 3.997205e+00 1.141234e+01
         vertex 2.000000e+01 7.545664e+00 1.175915e+01
      endloop
   endfacet
   facet normal -1.000000e+00 0.000000e+00 0.000000e+00
      outer loop
         vertex 2.000000e+01 7.545664e+00 1.175915e+01
         vertex 2.000000e+01 3.997205e+00 1.141234e+01
         vertex 2.000000e+01 6.727974e+00 1.414100e+01
      endloop
   endfacet
   facet normal -1.000000e+00 0.000000e+00 0.000000e+00
      outer loop
         vertex 2.000000e+01 3.997205e+00 1.141234e+01
         vertex 2.000000e+01 3.205509e+00 1.305631e+01
         vertex 2.000000e+01 6.727974e+00 1.414100e+01
      endloop
   endfacet
   facet normal -1.000000e+00 0.000000e+00 0.000000e+00
      outer loop
         vertex 2.000000e+01 6.727974e+00 1.414100e+01
         vertex 2.000000e+01 3.205509e+00 1.305631e+01
         vertex 2.000000e+01 5.181204e+00 1.612829e+01
      endloop
   endfacet
   facet normal -1.000000e+00 0.000000e+00 0.000000e+00
      outer loop
         vertex 2.000000e+01 3.205509e+00 1.305631e+01
         vertex 2.000000e+01 1.778923e+00 1.419397e+01
         vertex 2.000000e+01 5.181204e+00 1.612829e+01
      endloop
   endfacet
   facet normal -1.000000e+00 0.000000e+00 0.000000e+00
      outer loop
         vertex 2.000000e+01 5.181204e+00 1.612829e+01
         vertex 2.000000e+01 1.778923e+00 1.419397e+01
         vertex 2.000000e+01 3.072970e+00 1.750567e+01
      endloop
   endfacet
   facet normal -1.000000e+00 0.000000e+00 0.000000e+00
      outer loop
         vertex 2.000000e+01 1.778923e+00 1.419397e+01
         vertex 2.000000e+01 5.021052e-16 1.460000e+01
         vertex 2.000000e+01 3.072970e+00 1.750567e+01
      endloop
   endfacet
   facet normal -1.000000e+00 0.000000e+00 0.000000e+00
      outer loop
         vertex 2.000000e+01 3.072970e+00 1.750567e+01
         vertex 2.000000e+01 5.021052e-16 1.460000e+01
         vertex 2.000000e+01 6.317320e-01 1.812387e+01
      endloop
   endfacet
   facet normal -1.000000e+00 0.000000e+00 0.000000e+00
      outer loop
         vertex 2.000000e+01 5.021052e-16 1.460000e+01
         vertex 2.000000e+01 -1.778923e+00 1.419397e+01
         vertex 2.000000e+01 6.317320e-01 1.812387e+01
      endloop
   endfacet
   facet normal -1.000000e+00 0.000000e+00 0.000000e+00
      outer loop
         vertex 2.000000e+01 6.317320e-01 1.812387e+01
         vertex 2.000000e+01 -1.778923e+00 1.419397e+01
         vertex 2.000000e+01 -1.877964e+00 1.791591e+01
      endloop
   endfacet
   facet normal -1.000000e+00 0.000000e+00 0.000000e+00
      outer loop
         vertex 2.000000e+01 -1.778923e+00 1.419397e+01
         vertex 2.000000e+01 -3.205509e+00 1.305631e+01
         vertex 2.000000e+01 -1.877964e+00 1.791591e+01
      endloop
   endfacet
   facet normal -1.000000e+00 0.000000e+00 0.000000e+00
      outer loop
         vertex 2.000000e+01 -1.877964e+00 1.791591e+01
         vertex 2.000000e+01 -3.205509e+00 1.305631e+01
         vertex 2.000000e+01 -4.184154e+00 1.690432e+01
      endloop
   endfacet
   facet normal -1.000000e+00 0.000000e+00 0.000000e+00
      outer loop
         vertex 2.000000e+01 -3.205509e+00 1.305631e+01
         vertex 2.000000e+01 -3.997205e+00 1.141234e+01
         vertex 2.000000e+01 -4.184154e+00 1.690432e+01
      endloop
   endfacet
   facet normal -1.000000e+00 0.000000e+00 0.000000e+00
      outer loop
         vertex 2.000000e+01 -4.184154e+00 1.690432e+01
         vertex 2.000000e+01 -3.997205e+00 1.141234e+01
         vertex 2.000000e+01 -6.036925e+00 1.519873e+01
      endloop
   endfacet
   facet normal -1.000000e+00 0.000000e+00 0.000000e+00
      outer loop
         vertex 2.000000e+01 -3.997205e+00 1.141234e+01
         vertex 2.000000e+01 -3.997205e+00 9.587665e+00
         vertex 2.000000e+01 -6.036925e+00 1.519873e+01
      endloop
   endfacet
   facet normal -1.000000e+00 0.000000e+00 0.000000e+00
      outer loop
         vertex 2.000000e+01 -3.205509e+00 7.943692e+00
         vertex 2.000000e+01 -1.877964e+00 3.084088e+00
         vertex 2.000000e+01 -3.997205e+00 9.587665e+00
      endloop
   endfacet
endsolid
