solid 
   facet normal 0.000000e+00 -7.071068e-01 -7.071068e-01
      outer loop
         vertex 2.400000e+01 2.100000e+01 -4.200000e+01
         vertex 2.400000e+01 -2.100000e+01 9.251859e-18
         vertex 2.100000e+01 2.100000e+01 -4.200000e+01
      endloop
   endfacet
   facet normal 0.000000e+00 -7.071068e-01 -7.071068e-01
      outer loop
         vertex 2.400000e+01 -2.100000e+01 9.251859e-18
         vertex 2.100000e+01 -1.800000e+01 -3.000000e+00
         vertex 2.100000e+01 2.100000e+01 -4.200000e+01
      endloop
   endfacet
   facet normal 0.000000e+00 -7.071068e-01 -7.071068e-01
      outer loop
         vertex 2.100000e+01 -1.800000e+01 -3.000000e+00
         vertex 2.400000e+01 -2.100000e+01 9.251859e-18
         vertex 1.650000e+01 -1.800000e+01 -3.000000e+00
      endloop
   endfacet
   facet normal 2.107995e-17 -7.071068e-01 -7.071068e-01
      outer loop
         vertex 2.400000e+01 -2.100000e+01 9.251859e-18
         vertex -2.100000e+01 -2.100000e+01 -1.332268e-15
         vertex 1.650000e+01 -1.800000e+01 -3.000000e+00
      endloop
   endfacet
   facet normal 0.000000e+00 -7.071068e-01 -7.071068e-01
      outer loop
         vertex 1.650000e+01 -1.800000e+01 -3.000000e+00
         vertex -2.100000e+01 -2.100000e+01 -1.332268e-15
         vertex -1.650000e+01 -1.800000e+01 -3.000000e+00
      endloop
   endfacet
   facet normal 0.000000e+00 -7.071068e-01 -7.071068e-01
      outer loop
         vertex -2.100000e+01 -2.100000e+01 -1.332268e-15
         vertex -2.100000e+01 -1.800000e+01 -3.000000e+00
         vertex -1.650000e+01 -1.800000e+01 -3.000000e+00
      endloop
   endfacet
   facet normal 0.000000e+00 0.000000e+00 -1.000000e+00
      outer loop
         vertex 2.100000e+01 2.100000e+01 -3.000000e+00
         vertex 1.623953e+01 1.797721e+01 -3.000000e+00
         vertex -2.100000e+01 2.100000e+01 -3.000000e+00
      endloop
   endfacet
   facet normal 0.000000e+00 0.000000e+00 -1.000000e+00
      outer loop
         vertex 1.623953e+01 1.797721e+01 -3.000000e+00
         vertex 1.535093e+01 1.746418e+01 -3.000000e+00
         vertex -2.100000e+01 2.100000e+01 -3.000000e+00
      endloop
   endfacet
   facet normal -0.000000e+00 0.000000e+00 -1.000000e+00
      outer loop
         vertex -2.100000e+01 2.100000e+01 -3.000000e+00
         vertex -1.800000e+01 1.650000e+01 -3.000000e+00
         vertex -2.100000e+01 -1.800000e+01 -3.000000e+00
      endloop
   endfacet
   facet normal -0.000000e+00 0.000000e+00 -1.000000e+00
      outer loop
         vertex -1.800000e+01 1.650000e+01 -3.000000e+00
         vertex -1.764907e+01 1.553582e+01 -3.000000e+00
         vertex -2.100000e+01 -1.800000e+01 -3.000000e+00
      endloop
   endfacet
   facet normal 0.000000e+00 -0.000000e+00 -1.000000e+00
      outer loop
         vertex -2.100000e+01 -1.800000e+01 -3.000000e+00
         vertex -1.756066e+01 -1.756066e+01 -3.000000e+00
         vertex -1.650000e+01 -1.800000e+01 -3.000000e+00
      endloop
   endfacet
   facet normal 0.000000e+00 0.000000e+00 -1.000000e+00
      outer loop
         vertex -1.756066e+01 -1.756066e+01 -3.000000e+00
         vertex -2.100000e+01 -1.800000e+01 -3.000000e+00
         vertex -1.800000e+01 -1.650000e+01 -3.000000e+00
      endloop
   endfacet
   facet normal 0.000000e+00 0.000000e+00 -1.000000e+00
      outer loop
         vertex -1.800000e+01 -1.650000e+01 -3.000000e+00
         vertex -2.100000e+01 -1.800000e+01 -3.000000e+00
         vertex -1.767275e+01 -1.556476e+01 -3.000000e+00
      endloop
   endfacet
   facet normal 0.000000e+00 0.000000e+00 -1.000000e+00
      outer loop
         vertex -2.100000e+01 -1.800000e+01 -3.000000e+00
         vertex -1.764907e+01 1.553582e+01 -3.000000e+00
         vertex -1.767275e+01 -1.556476e+01 -3.000000e+00
      endloop
   endfacet
   facet normal 0.000000e+00 -0.000000e+00 -1.000000e+00
      outer loop
         vertex -1.767275e+01 -1.556476e+01 -3.000000e+00
         vertex -1.764907e+01 1.553582e+01 -3.000000e+00
         vertex -1.683378e+01 -1.503761e+01 -3.000000e+00
      endloop
   endfacet
   facet normal -0.000000e+00 0.000000e+00 -1.000000e+00
      outer loop
         vertex -1.764907e+01 1.553582e+01 -3.000000e+00
         vertex -1.676047e+01 1.502279e+01 -3.000000e+00
         vertex -1.683378e+01 -1.503761e+01 -3.000000e+00
      endloop
   endfacet
   facet normal 0.000000e+00 -0.000000e+00 -1.000000e+00
      outer loop
         vertex -1.683378e+01 -1.503761e+01 -3.000000e+00
         vertex -1.676047e+01 1.502279e+01 -3.000000e+00
         vertex -1.584917e+01 -1.514855e+01 -3.000000e+00
      endloop
   endfacet
   facet normal 0.000000e+00 0.000000e+00 -1.000000e+00
      outer loop
         vertex -1.676047e+01 1.502279e+01 -3.000000e+00
         vertex -1.575000e+01 1.520096e+01 -3.000000e+00
         vertex -1.584917e+01 -1.514855e+01 -3.000000e+00
      endloop
   endfacet
   facet normal 0.000000e+00 -0.000000e+00 -1.000000e+00
      outer loop
         vertex -1.584917e+01 -1.514855e+01 -3.000000e+00
         vertex -1.575000e+01 1.520096e+01 -3.000000e+00
         vertex -1.514855e+01 -1.584917e+01 -3.000000e+00
      endloop
   endfacet
   facet normal 0.000000e+00 0.000000e+00 -1.000000e+00
      outer loop
         vertex -1.575000e+01 1.520096e+01 -3.000000e+00
         vertex -1.509046e+01 1.598697e+01 -3.000000e+00
         vertex -1.514855e+01 -1.584917e+01 -3.000000e+00
      endloop
   endfacet
   facet normal 0.000000e+00 -0.000000e+00 -1.000000e+00
      outer loop
         vertex -1.514855e+01 -1.584917e+01 -3.000000e+00
         vertex -1.509046e+01 1.598697e+01 -3.000000e+00
         vertex -1.503761e+01 -1.683378e+01 -3.000000e+00
      endloop
   endfacet
   facet normal 0.000000e+00 0.000000e+00 -1.000000e+00
      outer loop
         vertex -1.509046e+01 1.598697e+01 -3.000000e+00
         vertex -1.509046e+01 1.701303e+01 -3.000000e+00
         vertex -1.503761e+01 -1.683378e+01 -3.000000e+00
      endloop
   endfacet
   facet normal 0.000000e+00 0.000000e+00 -1.000000e+00
      outer loop
         vertex -1.764907e+01 1.746418e+01 -3.000000e+00
         vertex -2.100000e+01 2.100000e+01 -3.000000e+00
         vertex -1.676047e+01 1.797721e+01 -3.000000e+00
      endloop
   endfacet
   facet normal 0.000000e+00 0.000000e+00 -1.000000e+00
      outer loop
         vertex -2.100000e+01 2.100000e+01 -3.000000e+00
         vertex 1.535093e+01 1.746418e+01 -3.000000e+00
         vertex -1.676047e+01 1.797721e+01 -3.000000e+00
      endloop
   endfacet
   facet normal 0.000000e+00 0.000000e+00 -1.000000e+00
      outer loop
         vertex -1.676047e+01 1.797721e+01 -3.000000e+00
         vertex 1.535093e+01 1.746418e+01 -3.000000e+00
         vertex -1.575000e+01 1.779904e+01 -3.000000e+00
      endloop
   endfacet
   facet normal 0.000000e+00 0.000000e+00 -1.000000e+00
      outer loop
         vertex 1.535093e+01 1.746418e+01 -3.000000e+00
         vertex 1.500000e+01 1.650000e+01 -3.000000e+00
         vertex -1.575000e+01 1.779904e+01 -3.000000e+00
      endloop
   endfacet
   facet normal 0.000000e+00 0.000000e+00 -1.000000e+00
      outer loop
         vertex -1.575000e+01 1.779904e+01 -3.000000e+00
         vertex 1.500000e+01 1.650000e+01 -3.000000e+00
         vertex -1.509046e+01 1.701303e+01 -3.000000e+00
      endloop
   endfacet
   facet normal 0.000000e+00 0.000000e+00 -1.000000e+00
      outer loop
         vertex 1.500000e+01 1.650000e+01 -3.000000e+00
         vertex 1.535093e+01 1.553582e+01 -3.000000e+00
         vertex -1.509046e+01 1.701303e+01 -3.000000e+00
      endloop
   endfacet
   facet normal -0.000000e+00 0.000000e+00 -1.000000e+00
      outer loop
         vertex -1.509046e+01 1.701303e+01 -3.000000e+00
         vertex -1.059209e+01 2.967764e+00 -3.000000e+00
         vertex -1.503761e+01 -1.683378e+01 -3.000000e+00
      endloop
   endfacet
   facet normal -0.000000e+00 0.000000e+00 -1.000000e+00
      outer loop
         vertex -1.059209e+01 2.967764e+00 -3.000000e+00
         vertex -1.100000e+01 1.347111e-15 -3.000000e+00
         vertex -1.503761e+01 -1.683378e+01 -3.000000e+00
      endloop
   endfacet
   facet normal -0.000000e+00 0.000000e+00 -1.000000e+00
      outer loop
         vertex -1.100000e+01 1.347111e-15 -3.000000e+00
         vertex -1.059209e+01 -2.967764e+00 -3.000000e+00
         vertex -1.503761e+01 -1.683378e+01 -3.000000e+00
      endloop
   endfacet
   facet normal -0.000000e+00 0.000000e+00 -1.000000e+00
      outer loop
         vertex -1.059209e+01 -2.967764e+00 -3.000000e+00
         vertex -9.398613e+00 -5.715424e+00 -3.000000e+00
         vertex -1.503761e+01 -1.683378e+01 -3.000000e+00
      endloop
   endfacet
   facet normal -0.000000e+00 0.000000e+00 -1.000000e+00
      outer loop
         vertex -9.398613e+00 -5.715424e+00 -3.000000e+00
         vertex -7.508085e+00 -8.039196e+00 -3.000000e+00
         vertex -1.503761e+01 -1.683378e+01 -3.000000e+00
      endloop
   endfacet
   facet normal -0.000000e+00 0.000000e+00 -1.000000e+00
      outer loop
         vertex -7.508085e+00 -8.039196e+00 -3.000000e+00
         vertex -5.060715e+00 -9.766737e+00 -3.000000e+00
         vertex -1.503761e+01 -1.683378e+01 -3.000000e+00
      endloop
   endfacet
   facet normal 0.000000e+00 0.000000e+00 -1.000000e+00
      outer loop
         vertex -1.503761e+01 -1.683378e+01 -3.000000e+00
         vertex -5.060715e+00 -9.766737e+00 -3.000000e+00
         vertex -1.556476e+01 -1.767275e+01 -3.000000e+00
      endloop
   endfacet
   facet normal -0.000000e+00 0.000000e+00 -1.000000e+00
      outer loop
         vertex -5.060715e+00 -9.766737e+00 -3.000000e+00
         vertex -2.238016e+00 -1.076993e+01 -3.000000e+00
         vertex -1.556476e+01 -1.767275e+01 -3.000000e+00
      endloop
   endfacet
   facet normal -0.000000e+00 0.000000e+00 -1.000000e+00
      outer loop
         vertex -2.238016e+00 -1.076993e+01 -3.000000e+00
         vertex 7.506666e-01 -1.097436e+01 -3.000000e+00
         vertex -1.556476e+01 -1.767275e+01 -3.000000e+00
      endloop
   endfacet
   facet normal 0.000000e+00 0.000000e+00 -1.000000e+00
      outer loop
         vertex 7.506666e-01 -1.097436e+01 -3.000000e+00
         vertex 3.683676e+00 -1.036487e+01 -3.000000e+00
         vertex -1.556476e+01 -1.767275e+01 -3.000000e+00
      endloop
   endfacet
   facet normal 0.000000e+00 0.000000e+00 -1.000000e+00
      outer loop
         vertex -7.508085e+00 8.039196e+00 -3.000000e+00
         vertex -1.509046e+01 1.701303e+01 -3.000000e+00
         vertex -5.060715e+00 9.766737e+00 -3.000000e+00
      endloop
   endfacet
   facet normal -0.000000e+00 0.000000e+00 -1.000000e+00
      outer loop
         vertex -1.509046e+01 1.701303e+01 -3.000000e+00
         vertex -2.238016e+00 1.076993e+01 -3.000000e+00
         vertex -5.060715e+00 9.766737e+00 -3.000000e+00
      endloop
   endfacet
   facet normal 0.000000e+00 0.000000e+00 -1.000000e+00
      outer loop
         vertex -1.059209e+01 2.967764e+00 -3.000000e+00
         vertex -1.509046e+01 1.701303e+01 -3.000000e+00
         vertex -9.398613e+00 5.715424e+00 -3.000000e+00
      endloop
   endfacet
   facet normal -0.000000e+00 0.000000e+00 -1.000000e+00
      outer loop
         vertex -1.509046e+01 1.701303e+01 -3.000000e+00
         vertex -7.508085e+00 8.039196e+00 -3.000000e+00
         vertex -9.398613e+00 5.715424e+00 -3.000000e+00
      endloop
   endfacet
   facet normal 0.000000e+00 0.000000e+00 -1.000000e+00
      outer loop
         vertex -2.238016e+00 1.076993e+01 -3.000000e+00
         vertex -1.509046e+01 1.701303e+01 -3.000000e+00
         vertex 7.506666e-01 1.097436e+01 -3.000000e+00
      endloop
   endfacet
   facet normal -0.000000e+00 0.000000e+00 -1.000000e+00
      outer loop
         vertex -1.509046e+01 1.701303e+01 -3.000000e+00
         vertex 1.535093e+01 1.553582e+01 -3.000000e+00
         vertex 7.506666e-01 1.097436e+01 -3.000000e+00
      endloop
   endfacet
   facet normal 0.000000e+00 0.000000e+00 -1.000000e+00
      outer loop
         vertex 7.506666e-01 1.097436e+01 -3.000000e+00
         vertex 1.535093e+01 1.553582e+01 -3.000000e+00
         vertex 3.683676e+00 1.036487e+01 -3.000000e+00
      endloop
   endfacet
   facet normal -0.000000e+00 0.000000e+00 -1.000000e+00
      outer loop
         vertex 1.535093e+01 1.553582e+01 -3.000000e+00
         vertex 1.623953e+01 1.502279e+01 -3.000000e+00
         vertex 3.683676e+00 1.036487e+01 -3.000000e+00
      endloop
   endfacet
   facet normal 0.000000e+00 0.000000e+00 -1.000000e+00
      outer loop
         vertex 3.683676e+00 1.036487e+01 -3.000000e+00
         vertex 1.623953e+01 1.502279e+01 -3.000000e+00
         vertex 6.343483e+00 8.986669e+00 -3.000000e+00
      endloop
   endfacet
   facet normal 0.000000e+00 0.000000e+00 -1.000000e+00
      outer loop
         vertex 1.623953e+01 1.502279e+01 -3.000000e+00
         vertex 1.725000e+01 1.520096e+01 -3.000000e+00
         vertex 6.343483e+00 8.986669e+00 -3.000000e+00
      endloop
   endfacet
   facet normal 0.000000e+00 0.000000e+00 -1.000000e+00
      outer loop
         vertex 6.343483e+00 8.986669e+00 -3.000000e+00
         vertex 1.725000e+01 1.520096e+01 -3.000000e+00
         vertex 8.532825e+00 6.941967e+00 -3.000000e+00
      endloop
   endfacet
   facet normal 0.000000e+00 0.000000e+00 -1.000000e+00
      outer loop
         vertex 1.725000e+01 1.779904e+01 -3.000000e+00
         vertex 2.100000e+01 2.100000e+01 -3.000000e+00
         vertex 1.790954e+01 1.701303e+01 -3.000000e+00
      endloop
   endfacet
   facet normal 0.000000e+00 0.000000e+00 -1.000000e+00
      outer loop
         vertex 1.790954e+01 1.701303e+01 -3.000000e+00
         vertex 2.100000e+01 2.100000e+01 -3.000000e+00
         vertex 1.790954e+01 1.598697e+01 -3.000000e+00
      endloop
   endfacet
   facet normal 0.000000e+00 0.000000e+00 -1.000000e+00
      outer loop
         vertex 2.100000e+01 2.100000e+01 -3.000000e+00
         vertex 2.100000e+01 -1.800000e+01 -3.000000e+00
         vertex 1.790954e+01 1.598697e+01 -3.000000e+00
      endloop
   endfacet
   facet normal 0.000000e+00 0.000000e+00 -1.000000e+00
      outer loop
         vertex 1.790954e+01 1.598697e+01 -3.000000e+00
         vertex 2.100000e+01 -1.800000e+01 -3.000000e+00
         vertex 1.725000e+01 1.520096e+01 -3.000000e+00
      endloop
   endfacet
   facet normal 0.000000e+00 0.000000e+00 -1.000000e+00
      outer loop
         vertex 2.100000e+01 -1.800000e+01 -3.000000e+00
         vertex 1.800000e+01 -1.650000e+01 -3.000000e+00
         vertex 1.725000e+01 1.520096e+01 -3.000000e+00
      endloop
   endfacet
   facet normal 0.000000e+00 0.000000e+00 -1.000000e+00
      outer loop
         vertex 1.725000e+01 1.520096e+01 -3.000000e+00
         vertex 1.008932e+01 4.382412e+00 -3.000000e+00
         vertex 8.532825e+00 6.941967e+00 -3.000000e+00
      endloop
   endfacet
   facet normal 0.000000e+00 0.000000e+00 -1.000000e+00
      outer loop
         vertex 1.800000e+01 -1.650000e+01 -3.000000e+00
         vertex 2.100000e+01 -1.800000e+01 -3.000000e+00
         vertex 1.756066e+01 -1.756066e+01 -3.000000e+00
      endloop
   endfacet
   facet normal 0.000000e+00 0.000000e+00 -1.000000e+00
      outer loop
         vertex 2.100000e+01 -1.800000e+01 -3.000000e+00
         vertex 1.650000e+01 -1.800000e+01 -3.000000e+00
         vertex 1.756066e+01 -1.756066e+01 -3.000000e+00
      endloop
   endfacet
   facet normal 0.000000e+00 0.000000e+00 -1.000000e+00
      outer loop
         vertex 1.008932e+01 4.382412e+00 -3.000000e+00
         vertex 1.725000e+01 1.520096e+01 -3.000000e+00
         vertex 1.089755e+01 1.497833e+00 -3.000000e+00
      endloop
   endfacet
   facet normal 0.000000e+00 0.000000e+00 -1.000000e+00
      outer loop
         vertex 1.725000e+01 1.520096e+01 -3.000000e+00
         vertex 1.800000e+01 -1.650000e+01 -3.000000e+00
         vertex 1.089755e+01 1.497833e+00 -3.000000e+00
      endloop
   endfacet
   facet normal 0.000000e+00 0.000000e+00 -1.000000e+00
      outer loop
         vertex 1.089755e+01 1.497833e+00 -3.000000e+00
         vertex 1.756066e+01 -1.543934e+01 -3.000000e+00
         vertex 1.089755e+01 -1.497833e+00 -3.000000e+00
      endloop
   endfacet
   facet normal 0.000000e+00 0.000000e+00 -1.000000e+00
      outer loop
         vertex 1.756066e+01 -1.543934e+01 -3.000000e+00
         vertex 1.650000e+01 -1.500000e+01 -3.000000e+00
         vertex 1.089755e+01 -1.497833e+00 -3.000000e+00
      endloop
   endfacet
   facet normal 0.000000e+00 0.000000e+00 -1.000000e+00
      outer loop
         vertex 1.089755e+01 -1.497833e+00 -3.000000e+00
         vertex 1.650000e+01 -1.500000e+01 -3.000000e+00
         vertex 1.008932e+01 -4.382412e+00 -3.000000e+00
      endloop
   endfacet
   facet normal 0.000000e+00 0.000000e+00 -1.000000e+00
      outer loop
         vertex 1.650000e+01 -1.500000e+01 -3.000000e+00
         vertex 1.543934e+01 -1.543934e+01 -3.000000e+00
         vertex 1.008932e+01 -4.382412e+00 -3.000000e+00
      endloop
   endfacet
   facet normal 0.000000e+00 0.000000e+00 -1.000000e+00
      outer loop
         vertex 1.008932e+01 -4.382412e+00 -3.000000e+00
         vertex 1.543934e+01 -1.543934e+01 -3.000000e+00
         vertex 8.532825e+00 -6.941967e+00 -3.000000e+00
      endloop
   endfacet
   facet normal 0.000000e+00 0.000000e+00 -1.000000e+00
      outer loop
         vertex 1.543934e+01 -1.543934e+01 -3.000000e+00
         vertex 1.500000e+01 -1.650000e+01 -3.000000e+00
         vertex 8.532825e+00 -6.941967e+00 -3.000000e+00
      endloop
   endfacet
   facet normal 0.000000e+00 0.000000e+00 -1.000000e+00
      outer loop
         vertex 8.532825e+00 -6.941967e+00 -3.000000e+00
         vertex 1.500000e+01 -1.650000e+01 -3.000000e+00
         vertex 6.343483e+00 -8.986669e+00 -3.000000e+00
      endloop
   endfacet
   facet normal 0.000000e+00 0.000000e+00 -1.000000e+00
      outer loop
         vertex 1.500000e+01 -1.650000e+01 -3.000000e+00
         vertex 1.520096e+01 -1.725000e+01 -3.000000e+00
         vertex 6.343483e+00 -8.986669e+00 -3.000000e+00
      endloop
   endfacet
   facet normal 0.000000e+00 0.000000e+00 -1.000000e+00
      outer loop
         vertex 6.343483e+00 -8.986669e+00 -3.000000e+00
         vertex 1.520096e+01 -1.725000e+01 -3.000000e+00
         vertex 3.683676e+00 -1.036487e+01 -3.000000e+00
      endloop
   endfacet
   facet normal 0.000000e+00 0.000000e+00 -1.000000e+00
      outer loop
         vertex 1.520096e+01 -1.725000e+01 -3.000000e+00
         vertex 1.575000e+01 -1.779904e+01 -3.000000e+00
         vertex 3.683676e+00 -1.036487e+01 -3.000000e+00
      endloop
   endfacet
   facet normal 0.000000e+00 0.000000e+00 -1.000000e+00
      outer loop
         vertex 3.683676e+00 -1.036487e+01 -3.000000e+00
         vertex 1.575000e+01 -1.779904e+01 -3.000000e+00
         vertex -1.556476e+01 -1.767275e+01 -3.000000e+00
      endloop
   endfacet
   facet normal 0.000000e+00 0.000000e+00 -1.000000e+00
      outer loop
         vertex 1.575000e+01 -1.779904e+01 -3.000000e+00
         vertex 1.650000e+01 -1.800000e+01 -3.000000e+00
         vertex -1.556476e+01 -1.767275e+01 -3.000000e+00
      endloop
   endfacet
   facet normal 0.000000e+00 0.000000e+00 -1.000000e+00
      outer loop
         vertex -1.556476e+01 -1.767275e+01 -3.000000e+00
         vertex 1.650000e+01 -1.800000e+01 -3.000000e+00
         vertex -1.650000e+01 -1.800000e+01 -3.000000e+00
      endloop
   endfacet
   facet normal 0.000000e+00 0.000000e+00 -1.000000e+00
      outer loop
         vertex 1.756066e+01 -1.543934e+01 -3.000000e+00
         vertex 1.089755e+01 1.497833e+00 -3.000000e+00
         vertex 1.800000e+01 -1.650000e+01 -3.000000e+00
      endloop
   endfacet
   facet normal 0.000000e+00 0.000000e+00 -1.000000e+00
      outer loop
         vertex 1.623953e+01 1.797721e+01 -3.000000e+00
         vertex 2.100000e+01 2.100000e+01 -3.000000e+00
         vertex 1.725000e+01 1.779904e+01 -3.000000e+00
      endloop
   endfacet
   facet normal 0.000000e+00 0.000000e+00 -1.000000e+00
      outer loop
         vertex -1.800000e+01 1.650000e+01 -3.000000e+00
         vertex -2.100000e+01 2.100000e+01 -3.000000e+00
         vertex -1.764907e+01 1.746418e+01 -3.000000e+00
      endloop
   endfacet
   facet normal -1.000000e+00 0.000000e+00 0.000000e+00
      outer loop
         vertex -2.100000e+01 -1.800000e+01 -3.000000e+00
         vertex -2.100000e+01 -2.100000e+01 -1.332268e-15
         vertex -2.100000e+01 2.100000e+01 -3.000000e+00
      endloop
   endfacet
   facet normal -1.000000e+00 0.000000e+00 0.000000e+00
      outer loop
         vertex -2.100000e+01 -2.100000e+01 -1.332268e-15
         vertex -2.100000e+01 -2.100000e+01 3.000000e+00
         vertex -2.100000e+01 2.100000e+01 -3.000000e+00
      endloop
   endfacet
   facet normal -1.000000e+00 -0.000000e+00 0.000000e+00
      outer loop
         vertex -2.100000e+01 -2.100000e+01 3.000000e+00
         vertex -2.100000e+01 2.400000e+01 3.000000e+00
         vertex -2.100000e+01 2.100000e+01 -3.000000e+00
      endloop
   endfacet
   facet normal -1.000000e+00 0.000000e+00 0.000000e+00
      outer loop
         vertex -2.100000e+01 2.400000e+01 3.000000e+00
         vertex -2.100000e+01 2.400000e+01 -4.200000e+01
         vertex -2.100000e+01 2.100000e+01 -3.000000e+00
      endloop
   endfacet
   facet normal -1.000000e+00 0.000000e+00 0.000000e+00
      outer loop
         vertex -2.100000e+01 2.100000e+01 -3.000000e+00
         vertex -2.100000e+01 2.400000e+01 -4.200000e+01
         vertex -2.100000e+01 2.100000e+01 -4.200000e+01
      endloop
   endfacet
   facet normal 0.000000e+00 -1.000000e+00 0.000000e+00
      outer loop
         vertex -2.100000e+01 -2.100000e+01 3.000000e+00
         vertex -2.100000e+01 -2.100000e+01 -1.332268e-15
         vertex 2.400000e+01 -2.100000e+01 0.000000e+00
      endloop
   endfacet
   facet normal 0.000000e+00 -1.000000e+00 0.000000e+00
      outer loop
         vertex -2.100000e+01 -2.100000e+01 3.000000e+00
         vertex 2.400000e+01 -2.100000e+01 0.000000e+00
         vertex 2.400000e+01 -2.100000e+01 3.000000e+00
      endloop
   endfacet
   facet normal -1.000000e+00 0.000000e+00 0.000000e+00
      outer loop
         vertex 2.100000e+01 2.100000e+01 -3.000000e+00
         vertex 2.100000e+01 2.100000e+01 -4.200000e+01
         vertex 2.100000e+01 -1.800000e+01 -3.000000e+00
      endloop
   endfacet
   facet normal 0.000000e+00 0.000000e+00 -1.000000e+00
      outer loop
         vertex 2.400000e+01 2.100000e+01 -4.200000e+01
         vertex 2.100000e+01 2.100000e+01 -4.200000e+01
         vertex 2.400000e+01 2.400000e+01 -4.200000e+01
      endloop
   endfacet
   facet normal 0.000000e+00 0.000000e+00 -1.000000e+00
      outer loop
         vertex 2.100000e+01 2.100000e+01 -4.200000e+01
         vertex -2.100000e+01 2.100000e+01 -4.200000e+01
         vertex 2.400000e+01 2.400000e+01 -4.200000e+01
      endloop
   endfacet
   facet normal 0.000000e+00 0.000000e+00 -1.000000e+00
      outer loop
         vertex 2.400000e+01 2.400000e+01 -4.200000e+01
         vertex -2.100000e+01 2.100000e+01 -4.200000e+01
         vertex -2.100000e+01 2.400000e+01 -4.200000e+01
      endloop
   endfacet
   facet normal 1.000000e+00 0.000000e+00 0.000000e+00
      outer loop
         vertex 2.400000e+01 -2.100000e+01 3.000000e+00
         vertex 2.400000e+01 -2.100000e+01 9.251859e-18
         vertex 2.400000e+01 2.400000e+01 3.000000e+00
      endloop
   endfacet
   facet normal 1.000000e+00 0.000000e+00 -0.000000e+00
      outer loop
         vertex 2.400000e+01 -2.100000e+01 9.251859e-18
         vertex 2.400000e+01 2.100000e+01 -4.200000e+01
         vertex 2.400000e+01 2.400000e+01 3.000000e+00
      endloop
   endfacet
   facet normal 1.000000e+00 0.000000e+00 0.000000e+00
      outer loop
         vertex 2.400000e+01 2.400000e+01 3.000000e+00
         vertex 2.400000e+01 2.100000e+01 -4.200000e+01
         vertex 2.400000e+01 2.400000e+01 -4.200000e+01
      endloop
   endfacet
   facet normal 9.396926e-01 -3.420201e-01 0.000000e+00
      outer loop
         vertex 1.535093e+01 -1.553582e+01 3.000000e+00
         vertex 1.500000e+01 -1.650000e+01 3.000000e+00
         vertex 1.500000e+01 -1.650000e+01 -3.000000e+00
      endloop
   endfacet
   facet normal 4.999893e-01 -8.660067e-01 -6.558248e-03
      outer loop
         vertex 1.543934e+01 -1.543934e+01 -3.000000e+00
         vertex 1.623953e+01 -1.502279e+01 3.000000e+00
         vertex 1.535093e+01 -1.553582e+01 3.000000e+00
      endloop
   endfacet
   facet normal -1.736378e-01 -9.847450e-01 -1.127801e-02
      outer loop
         vertex 1.650000e+01 -1.500000e+01 -3.000000e+00
         vertex 1.725000e+01 -1.520096e+01 3.000000e+00
         vertex 1.623953e+01 -1.502279e+01 3.000000e+00
      endloop
   endfacet
   facet normal -7.659683e-01 -6.427231e-01 -1.412408e-02
      outer loop
         vertex 1.756066e+01 -1.543934e+01 -3.000000e+00
         vertex 1.790954e+01 -1.598697e+01 3.000000e+00
         vertex 1.725000e+01 -1.520096e+01 3.000000e+00
      endloop
   endfacet
   facet normal -9.998864e-01 0.000000e+00 -1.507524e-02
      outer loop
         vertex 1.800000e+01 -1.650000e+01 -3.000000e+00
         vertex 1.790954e+01 -1.701303e+01 3.000000e+00
         vertex 1.790954e+01 -1.598697e+01 3.000000e+00
      endloop
   endfacet
   facet normal -7.659680e-01 6.427236e-01 -1.412394e-02
      outer loop
         vertex 1.756066e+01 -1.756066e+01 -3.000000e+00
         vertex 1.725000e+01 -1.779904e+01 3.000000e+00
         vertex 1.790954e+01 -1.701303e+01 3.000000e+00
      endloop
   endfacet
   facet normal -1.736369e-01 9.847452e-01 -1.127813e-02
      outer loop
         vertex 1.650000e+01 -1.800000e+01 -3.000000e+00
         vertex 1.623953e+01 -1.797721e+01 3.000000e+00
         vertex 1.725000e+01 -1.779904e+01 3.000000e+00
      endloop
   endfacet
   facet normal 4.999419e-01 8.659278e-01 -1.507514e-02
      outer loop
         vertex 1.575000e+01 -1.779904e+01 -3.000000e+00
         vertex 1.535093e+01 -1.746418e+01 3.000000e+00
         vertex 1.623953e+01 -1.797721e+01 3.000000e+00
      endloop
   endfacet
   facet normal 9.396330e-01 3.419980e-01 -1.127799e-02
      outer loop
         vertex 1.520096e+01 -1.725000e+01 -3.000000e+00
         vertex 1.500000e+01 -1.650000e+01 3.000000e+00
         vertex 1.535093e+01 -1.746418e+01 3.000000e+00
      endloop
   endfacet
   facet normal 9.659258e-01 2.588193e-01 -0.000000e+00
      outer loop
         vertex 1.520096e+01 -1.725000e+01 -3.000000e+00
         vertex 1.500000e+01 -1.650000e+01 -3.000000e+00
         vertex 1.500000e+01 -1.650000e+01 3.000000e+00
      endloop
   endfacet
   facet normal 7.070865e-01 7.070865e-01 7.567110e-03
      outer loop
         vertex 1.535093e+01 -1.746418e+01 3.000000e+00
         vertex 1.575000e+01 -1.779904e+01 -3.000000e+00
         vertex 1.520096e+01 -1.725000e+01 -3.000000e+00
      endloop
   endfacet
   facet normal 2.588118e-01 9.658981e-01 7.566869e-03
      outer loop
         vertex 1.623953e+01 -1.797721e+01 3.000000e+00
         vertex 1.650000e+01 -1.800000e+01 -3.000000e+00
         vertex 1.575000e+01 -1.779904e+01 -3.000000e+00
      endloop
   endfacet
   facet normal -3.826297e-01 9.237474e-01 1.688901e-02
      outer loop
         vertex 1.725000e+01 -1.779904e+01 3.000000e+00
         vertex 1.756066e+01 -1.756066e+01 -3.000000e+00
         vertex 1.650000e+01 -1.800000e+01 -3.000000e+00
      endloop
   endfacet
   facet normal -9.237161e-01 3.826167e-01 1.878888e-02
      outer loop
         vertex 1.790954e+01 -1.701303e+01 3.000000e+00
         vertex 1.800000e+01 -1.650000e+01 -3.000000e+00
         vertex 1.756066e+01 -1.756066e+01 -3.000000e+00
      endloop
   endfacet
   facet normal -9.237162e-01 -3.826164e-01 1.878879e-02
      outer loop
         vertex 1.790954e+01 -1.598697e+01 3.000000e+00
         vertex 1.756066e+01 -1.543934e+01 -3.000000e+00
         vertex 1.800000e+01 -1.650000e+01 -3.000000e+00
      endloop
   endfacet
   facet normal -3.826289e-01 -9.237477e-01 1.688891e-02
      outer loop
         vertex 1.725000e+01 -1.520096e+01 3.000000e+00
         vertex 1.650000e+01 -1.500000e+01 -3.000000e+00
         vertex 1.756066e+01 -1.543934e+01 -3.000000e+00
      endloop
   endfacet
   facet normal 3.826504e-01 -9.238003e-01 1.310298e-02
      outer loop
         vertex 1.623953e+01 -1.502279e+01 3.000000e+00
         vertex 1.543934e+01 -1.543934e+01 -3.000000e+00
         vertex 1.650000e+01 -1.500000e+01 -3.000000e+00
      endloop
   endfacet
   facet normal 9.238539e-01 -3.826726e-01 7.459120e-03
      outer loop
         vertex 1.535093e+01 -1.553582e+01 3.000000e+00
         vertex 1.500000e+01 -1.650000e+01 -3.000000e+00
         vertex 1.543934e+01 -1.543934e+01 -3.000000e+00
      endloop
   endfacet
   facet normal 9.438832e-01 -3.302795e-01 0.000000e+00
      outer loop
         vertex -1.767275e+01 -1.556476e+01 -3.000000e+00
         vertex -1.800000e+01 -1.650000e+01 3.000000e+00
         vertex -1.800000e+01 -1.650000e+01 -3.000000e+00
      endloop
   endfacet
   facet normal 9.396907e-01 -3.420193e-01 -2.058593e-03
      outer loop
         vertex -1.767275e+01 -1.556476e+01 -3.000000e+00
         vertex -1.764907e+01 -1.553582e+01 3.000000e+00
         vertex -1.800000e+01 -1.650000e+01 3.000000e+00
      endloop
   endfacet
   facet normal 4.999961e-01 -8.660185e-01 -3.970110e-03
      outer loop
         vertex -1.683378e+01 -1.503761e+01 -3.000000e+00
         vertex -1.676047e+01 -1.502279e+01 3.000000e+00
         vertex -1.764907e+01 -1.553582e+01 3.000000e+00
      endloop
   endfacet
   facet normal -1.736459e-01 -9.847915e-01 -5.732748e-03
      outer loop
         vertex -1.584917e+01 -1.514855e+01 -3.000000e+00
         vertex -1.575000e+01 -1.520096e+01 3.000000e+00
         vertex -1.676047e+01 -1.502279e+01 3.000000e+00
      endloop
   endfacet
   facet normal -7.660236e-01 -6.427704e-01 -7.345882e-03
      outer loop
         vertex -1.514855e+01 -1.584917e+01 -3.000000e+00
         vertex -1.509046e+01 -1.598697e+01 3.000000e+00
         vertex -1.575000e+01 -1.520096e+01 3.000000e+00
      endloop
   endfacet
   facet normal -9.999612e-01 0.000000e+00 -8.808430e-03
      outer loop
         vertex -1.503761e+01 -1.683378e+01 -3.000000e+00
         vertex -1.509046e+01 -1.701303e+01 3.000000e+00
         vertex -1.509046e+01 -1.598697e+01 3.000000e+00
      endloop
   endfacet
   facet normal -7.660047e-01 6.427553e-01 -1.011942e-02
      outer loop
         vertex -1.556476e+01 -1.767275e+01 -3.000000e+00
         vertex -1.575000e+01 -1.779904e+01 3.000000e+00
         vertex -1.509046e+01 -1.701303e+01 3.000000e+00
      endloop
   endfacet
   facet normal -1.736369e-01 9.847452e-01 -1.127813e-02
      outer loop
         vertex -1.650000e+01 -1.800000e+01 -3.000000e+00
         vertex -1.676047e+01 -1.797721e+01 3.000000e+00
         vertex -1.575000e+01 -1.779904e+01 3.000000e+00
      endloop
   endfacet
   facet normal 4.999879e-01 8.660075e-01 -6.557926e-03
      outer loop
         vertex -1.756066e+01 -1.756066e+01 -3.000000e+00
         vertex -1.764907e+01 -1.746418e+01 3.000000e+00
         vertex -1.676047e+01 -1.797721e+01 3.000000e+00
      endloop
   endfacet
   facet normal 9.396928e-01 3.420198e-01 0.000000e+00
      outer loop
         vertex -1.800000e+01 -1.650000e+01 -3.000000e+00
         vertex -1.800000e+01 -1.650000e+01 3.000000e+00
         vertex -1.764907e+01 -1.746418e+01 3.000000e+00
      endloop
   endfacet
   facet normal 9.238535e-01 3.826736e-01 7.459366e-03
      outer loop
         vertex -1.764907e+01 -1.746418e+01 3.000000e+00
         vertex -1.756066e+01 -1.756066e+01 -3.000000e+00
         vertex -1.800000e+01 -1.650000e+01 -3.000000e+00
      endloop
   endfacet
   facet normal 3.826514e-01 9.237999e-01 1.310287e-02
      outer loop
         vertex -1.676047e+01 -1.797721e+01 3.000000e+00
         vertex -1.650000e+01 -1.800000e+01 -3.000000e+00
         vertex -1.756066e+01 -1.756066e+01 -3.000000e+00
      endloop
   endfacet
   facet normal -3.302640e-01 9.438391e-01 9.670362e-03
      outer loop
         vertex -1.575000e+01 -1.779904e+01 3.000000e+00
         vertex -1.556476e+01 -1.767275e+01 -3.000000e+00
         vertex -1.650000e+01 -1.800000e+01 -3.000000e+00
      endloop
   endfacet
   facet normal -8.466938e-01 5.320135e-01 8.435466e-03
      outer loop
         vertex -1.509046e+01 -1.701303e+01 3.000000e+00
         vertex -1.503761e+01 -1.683378e+01 -3.000000e+00
         vertex -1.556476e+01 -1.767275e+01 -3.000000e+00
      endloop
   endfacet
   facet normal -9.936875e-01 -1.119621e-01 7.048643e-03
      outer loop
         vertex -1.509046e+01 -1.598697e+01 3.000000e+00
         vertex -1.514855e+01 -1.584917e+01 -3.000000e+00
         vertex -1.503761e+01 -1.683378e+01 -3.000000e+00
      endloop
   endfacet
   facet normal -7.070960e-01 -7.070960e-01 5.510589e-03
      outer loop
         vertex -1.575000e+01 -1.520096e+01 3.000000e+00
         vertex -1.584917e+01 -1.514855e+01 -3.000000e+00
         vertex -1.514855e+01 -1.584917e+01 -3.000000e+00
      endloop
   endfacet
   facet normal -1.119640e-01 -9.937049e-01 3.822497e-03
      outer loop
         vertex -1.676047e+01 -1.502279e+01 3.000000e+00
         vertex -1.683378e+01 -1.503761e+01 -3.000000e+00
         vertex -1.584917e+01 -1.514855e+01 -3.000000e+00
      endloop
   endfacet
   facet normal 5.320314e-01 -8.467223e-01 1.985133e-03
      outer loop
         vertex -1.764907e+01 -1.553582e+01 3.000000e+00
         vertex -1.767275e+01 -1.556476e+01 -3.000000e+00
         vertex -1.683378e+01 -1.503761e+01 -3.000000e+00
      endloop
   endfacet
   facet normal 0.000000e+00 -1.000000e+00 -0.000000e+00
      outer loop
         vertex 2.100000e+01 2.100000e+01 -4.200000e+01
         vertex 2.100000e+01 2.100000e+01 -3.000000e+00
         vertex -2.100000e+01 2.100000e+01 -4.200000e+01
      endloop
   endfacet
   facet normal 0.000000e+00 -1.000000e+00 0.000000e+00
      outer loop
         vertex 2.100000e+01 2.100000e+01 -3.000000e+00
         vertex -2.100000e+01 2.100000e+01 -3.000000e+00
         vertex -2.100000e+01 2.100000e+01 -4.200000e+01
      endloop
   endfacet
   facet normal 9.396926e-01 3.420201e-01 -0.000000e+00
      outer loop
         vertex -1.764907e+01 1.553582e+01 3.000000e+00
         vertex -1.764907e+01 1.553582e+01 -3.000000e+00
         vertex -1.800000e+01 1.650000e+01 -3.000000e+00
      endloop
   endfacet
   facet normal 9.396926e-01 3.420201e-01 0.000000e+00
      outer loop
         vertex -1.800000e+01 1.650000e+01 3.000000e+00
         vertex -1.764907e+01 1.553582e+01 3.000000e+00
         vertex -1.800000e+01 1.650000e+01 -3.000000e+00
      endloop
   endfacet
   facet normal 5.000001e-01 8.660254e-01 -0.000000e+00
      outer loop
         vertex -1.676047e+01 1.502279e+01 3.000000e+00
         vertex -1.676047e+01 1.502279e+01 -3.000000e+00
         vertex -1.764907e+01 1.553582e+01 -3.000000e+00
      endloop
   endfacet
   facet normal 5.000001e-01 8.660254e-01 0.000000e+00
      outer loop
         vertex -1.764907e+01 1.553582e+01 3.000000e+00
         vertex -1.676047e+01 1.502279e+01 3.000000e+00
         vertex -1.764907e+01 1.553582e+01 -3.000000e+00
      endloop
   endfacet
   facet normal -1.736488e-01 9.848076e-01 0.000000e+00
      outer loop
         vertex -1.575000e+01 1.520096e+01 3.000000e+00
         vertex -1.575000e+01 1.520096e+01 -3.000000e+00
         vertex -1.676047e+01 1.502279e+01 -3.000000e+00
      endloop
   endfacet
   facet normal -1.736488e-01 9.848076e-01 0.000000e+00
      outer loop
         vertex -1.676047e+01 1.502279e+01 3.000000e+00
         vertex -1.575000e+01 1.520096e+01 3.000000e+00
         vertex -1.676047e+01 1.502279e+01 -3.000000e+00
      endloop
   endfacet
   facet normal -7.660443e-01 6.427878e-01 0.000000e+00
      outer loop
         vertex -1.509046e+01 1.598697e+01 3.000000e+00
         vertex -1.509046e+01 1.598697e+01 -3.000000e+00
         vertex -1.575000e+01 1.520096e+01 -3.000000e+00
      endloop
   endfacet
   facet normal -7.660443e-01 6.427878e-01 0.000000e+00
      outer loop
         vertex -1.575000e+01 1.520096e+01 3.000000e+00
         vertex -1.509046e+01 1.598697e+01 3.000000e+00
         vertex -1.575000e+01 1.520096e+01 -3.000000e+00
      endloop
   endfacet
   facet normal -1.000000e+00 0.000000e+00 0.000000e+00
      outer loop
         vertex -1.509046e+01 1.701303e+01 3.000000e+00
         vertex -1.509046e+01 1.701303e+01 -3.000000e+00
         vertex -1.509046e+01 1.598697e+01 -3.000000e+00
      endloop
   endfacet
   facet normal -1.000000e+00 -0.000000e+00 0.000000e+00
      outer loop
         vertex -1.509046e+01 1.598697e+01 3.000000e+00
         vertex -1.509046e+01 1.701303e+01 3.000000e+00
         vertex -1.509046e+01 1.598697e+01 -3.000000e+00
      endloop
   endfacet
   facet normal -7.660439e-01 -6.427882e-01 0.000000e+00
      outer loop
         vertex -1.575000e+01 1.779904e+01 3.000000e+00
         vertex -1.575000e+01 1.779904e+01 -3.000000e+00
         vertex -1.509046e+01 1.701303e+01 -3.000000e+00
      endloop
   endfacet
   facet normal -7.660439e-01 -6.427882e-01 0.000000e+00
      outer loop
         vertex -1.509046e+01 1.701303e+01 3.000000e+00
         vertex -1.575000e+01 1.779904e+01 3.000000e+00
         vertex -1.509046e+01 1.701303e+01 -3.000000e+00
      endloop
   endfacet
   facet normal -1.736479e-01 -9.848078e-01 0.000000e+00
      outer loop
         vertex -1.676047e+01 1.797721e+01 3.000000e+00
         vertex -1.676047e+01 1.797721e+01 -3.000000e+00
         vertex -1.575000e+01 1.779904e+01 -3.000000e+00
      endloop
   endfacet
   facet normal -1.736479e-01 -9.848078e-01 0.000000e+00
      outer loop
         vertex -1.575000e+01 1.779904e+01 3.000000e+00
         vertex -1.676047e+01 1.797721e+01 3.000000e+00
         vertex -1.575000e+01 1.779904e+01 -3.000000e+00
      endloop
   endfacet
   facet normal 4.999987e-01 -8.660262e-01 0.000000e+00
      outer loop
         vertex -1.764907e+01 1.746418e+01 3.000000e+00
         vertex -1.764907e+01 1.746418e+01 -3.000000e+00
         vertex -1.676047e+01 1.797721e+01 -3.000000e+00
      endloop
   endfacet
   facet normal 4.999987e-01 -8.660262e-01 0.000000e+00
      outer loop
         vertex -1.676047e+01 1.797721e+01 3.000000e+00
         vertex -1.764907e+01 1.746418e+01 3.000000e+00
         vertex -1.676047e+01 1.797721e+01 -3.000000e+00
      endloop
   endfacet
   facet normal 9.396928e-01 -3.420198e-01 0.000000e+00
      outer loop
         vertex -1.800000e+01 1.650000e+01 3.000000e+00
         vertex -1.800000e+01 1.650000e+01 -3.000000e+00
         vertex -1.764907e+01 1.746418e+01 -3.000000e+00
      endloop
   endfacet
   facet normal 9.396928e-01 -3.420198e-01 0.000000e+00
      outer loop
         vertex -1.764907e+01 1.746418e+01 3.000000e+00
         vertex -1.800000e+01 1.650000e+01 3.000000e+00
         vertex -1.764907e+01 1.746418e+01 -3.000000e+00
      endloop
   endfacet
   facet normal 9.396926e-01 3.420201e-01 -0.000000e+00
      outer loop
         vertex 1.535093e+01 1.553582e+01 3.000000e+00
         vertex 1.535093e+01 1.553582e+01 -3.000000e+00
         vertex 1.500000e+01 1.650000e+01 -3.000000e+00
      endloop
   endfacet
   facet normal 9.396926e-01 3.420201e-01 0.000000e+00
      outer loop
         vertex 1.500000e+01 1.650000e+01 3.000000e+00
         vertex 1.535093e+01 1.553582e+01 3.000000e+00
         vertex 1.500000e+01 1.650000e+01 -3.000000e+00
      endloop
   endfacet
   facet normal 5.000001e-01 8.660254e-01 -0.000000e+00
      outer loop
         vertex 1.623953e+01 1.502279e+01 3.000000e+00
         vertex 1.623953e+01 1.502279e+01 -3.000000e+00
         vertex 1.535093e+01 1.553582e+01 -3.000000e+00
      endloop
   endfacet
   facet normal 5.000001e-01 8.660254e-01 0.000000e+00
      outer loop
         vertex 1.535093e+01 1.553582e+01 3.000000e+00
         vertex 1.623953e+01 1.502279e+01 3.000000e+00
         vertex 1.535093e+01 1.553582e+01 -3.000000e+00
      endloop
   endfacet
   facet normal -1.736488e-01 9.848076e-01 0.000000e+00
      outer loop
         vertex 1.725000e+01 1.520096e+01 3.000000e+00
         vertex 1.725000e+01 1.520096e+01 -3.000000e+00
         vertex 1.623953e+01 1.502279e+01 -3.000000e+00
      endloop
   endfacet
   facet normal -1.736488e-01 9.848076e-01 0.000000e+00
      outer loop
         vertex 1.623953e+01 1.502279e+01 3.000000e+00
         vertex 1.725000e+01 1.520096e+01 3.000000e+00
         vertex 1.623953e+01 1.502279e+01 -3.000000e+00
      endloop
   endfacet
   facet normal -7.660448e-01 6.427872e-01 0.000000e+00
      outer loop
         vertex 1.790954e+01 1.598697e+01 3.000000e+00
         vertex 1.790954e+01 1.598697e+01 -3.000000e+00
         vertex 1.725000e+01 1.520096e+01 -3.000000e+00
      endloop
   endfacet
   facet normal -7.660448e-01 6.427872e-01 0.000000e+00
      outer loop
         vertex 1.725000e+01 1.520096e+01 3.000000e+00
         vertex 1.790954e+01 1.598697e+01 3.000000e+00
         vertex 1.725000e+01 1.520096e+01 -3.000000e+00
      endloop
   endfacet
   facet normal -1.000000e+00 0.000000e+00 0.000000e+00
      outer loop
         vertex 1.790954e+01 1.701303e+01 3.000000e+00
         vertex 1.790954e+01 1.701303e+01 -3.000000e+00
         vertex 1.790954e+01 1.598697e+01 -3.000000e+00
      endloop
   endfacet
   facet normal -1.000000e+00 -0.000000e+00 0.000000e+00
      outer loop
         vertex 1.790954e+01 1.598697e+01 3.000000e+00
         vertex 1.790954e+01 1.701303e+01 3.000000e+00
         vertex 1.790954e+01 1.598697e+01 -3.000000e+00
      endloop
   endfacet
   facet normal -7.660444e-01 -6.427877e-01 0.000000e+00
      outer loop
         vertex 1.725000e+01 1.779904e+01 3.000000e+00
         vertex 1.725000e+01 1.779904e+01 -3.000000e+00
         vertex 1.790954e+01 1.701303e+01 -3.000000e+00
      endloop
   endfacet
   facet normal -7.660444e-01 -6.427877e-01 0.000000e+00
      outer loop
         vertex 1.790954e+01 1.701303e+01 3.000000e+00
         vertex 1.725000e+01 1.779904e+01 3.000000e+00
         vertex 1.790954e+01 1.701303e+01 -3.000000e+00
      endloop
   endfacet
   facet normal -1.736479e-01 -9.848078e-01 0.000000e+00
      outer loop
         vertex 1.623953e+01 1.797721e+01 3.000000e+00
         vertex 1.623953e+01 1.797721e+01 -3.000000e+00
         vertex 1.725000e+01 1.779904e+01 -3.000000e+00
      endloop
   endfacet
   facet normal -1.736479e-01 -9.848078e-01 0.000000e+00
      outer loop
         vertex 1.725000e+01 1.779904e+01 3.000000e+00
         vertex 1.623953e+01 1.797721e+01 3.000000e+00
         vertex 1.725000e+01 1.779904e+01 -3.000000e+00
      endloop
   endfacet
   facet normal 4.999987e-01 -8.660262e-01 0.000000e+00
      outer loop
         vertex 1.535093e+01 1.746418e+01 3.000000e+00
         vertex 1.535093e+01 1.746418e+01 -3.000000e+00
         vertex 1.623953e+01 1.797721e+01 -3.000000e+00
      endloop
   endfacet
   facet normal 4.999987e-01 -8.660262e-01 0.000000e+00
      outer loop
         vertex 1.623953e+01 1.797721e+01 3.000000e+00
         vertex 1.535093e+01 1.746418e+01 3.000000e+00
         vertex 1.623953e+01 1.797721e+01 -3.000000e+00
      endloop
   endfacet
   facet normal 9.396928e-01 -3.420198e-01 0.000000e+00
      outer loop
         vertex 1.500000e+01 1.650000e+01 3.000000e+00
         vertex 1.500000e+01 1.650000e+01 -3.000000e+00
         vertex 1.535093e+01 1.746418e+01 -3.000000e+00
      endloop
   endfacet
   facet normal 9.396928e-01 -3.420198e-01 0.000000e+00
      outer loop
         vertex 1.535093e+01 1.746418e+01 3.000000e+00
         vertex 1.500000e+01 1.650000e+01 3.000000e+00
         vertex 1.535093e+01 1.746418e+01 -3.000000e+00
      endloop
   endfacet
   facet normal 9.906860e-01 1.361665e-01 -0.000000e+00
      outer loop
         vertex -1.059209e+01 -2.967764e+00 3.000000e+00
         vertex -1.059209e+01 -2.967764e+00 -3.000000e+00
         vertex -1.100000e+01 1.347111e-15 -3.000000e+00
      endloop
   endfacet
   facet normal 9.906860e-01 1.361665e-01 0.000000e+00
      outer loop
         vertex -1.100000e+01 1.347111e-15 3.000000e+00
         vertex -1.059209e+01 -2.967764e+00 3.000000e+00
         vertex -1.100000e+01 1.347111e-15 -3.000000e+00
      endloop
   endfacet
   facet normal 9.172112e-01 3.984013e-01 -0.000000e+00
      outer loop
         vertex -9.398613e+00 -5.715424e+00 3.000000e+00
         vertex -9.398613e+00 -5.715424e+00 -3.000000e+00
         vertex -1.059209e+01 -2.967764e+00 -3.000000e+00
      endloop
   endfacet
   facet normal 9.172112e-01 3.984013e-01 0.000000e+00
      outer loop
         vertex -1.059209e+01 -2.967764e+00 3.000000e+00
         vertex -9.398613e+00 -5.715424e+00 3.000000e+00
         vertex -1.059209e+01 -2.967764e+00 -3.000000e+00
      endloop
   endfacet
   facet normal 7.757114e-01 6.310878e-01 -0.000000e+00
      outer loop
         vertex -7.508085e+00 -8.039196e+00 3.000000e+00
         vertex -7.508085e+00 -8.039196e+00 -3.000000e+00
         vertex -9.398613e+00 -5.715424e+00 -3.000000e+00
      endloop
   endfacet
   facet normal 7.757114e-01 6.310878e-01 0.000000e+00
      outer loop
         vertex -9.398613e+00 -5.715424e+00 3.000000e+00
         vertex -7.508085e+00 -8.039196e+00 3.000000e+00
         vertex -9.398613e+00 -5.715424e+00 -3.000000e+00
      endloop
   endfacet
   facet normal 5.766801e-01 8.169701e-01 -0.000000e+00
      outer loop
         vertex -5.060715e+00 -9.766737e+00 3.000000e+00
         vertex -5.060715e+00 -9.766737e+00 -3.000000e+00
         vertex -7.508085e+00 -8.039196e+00 -3.000000e+00
      endloop
   endfacet
   facet normal 5.766801e-01 8.169701e-01 0.000000e+00
      outer loop
         vertex -7.508085e+00 -8.039196e+00 3.000000e+00
         vertex -5.060715e+00 -9.766737e+00 3.000000e+00
         vertex -7.508085e+00 -8.039196e+00 -3.000000e+00
      endloop
   endfacet
   facet normal 3.348798e-01 9.422609e-01 -0.000000e+00
      outer loop
         vertex -2.238016e+00 -1.076993e+01 3.000000e+00
         vertex -2.238016e+00 -1.076993e+01 -3.000000e+00
         vertex -5.060715e+00 -9.766737e+00 -3.000000e+00
      endloop
   endfacet
   facet normal 3.348798e-01 9.422609e-01 0.000000e+00
      outer loop
         vertex -5.060715e+00 -9.766737e+00 3.000000e+00
         vertex -2.238016e+00 -1.076993e+01 3.000000e+00
         vertex -5.060715e+00 -9.766737e+00 -3.000000e+00
      endloop
   endfacet
   facet normal 6.824243e-02 9.976688e-01 -0.000000e+00
      outer loop
         vertex 7.506666e-01 -1.097436e+01 3.000000e+00
         vertex 7.506666e-01 -1.097436e+01 -3.000000e+00
         vertex -2.238016e+00 -1.076993e+01 -3.000000e+00
      endloop
   endfacet
   facet normal 6.824243e-02 9.976688e-01 0.000000e+00
      outer loop
         vertex -2.238016e+00 -1.076993e+01 3.000000e+00
         vertex 7.506666e-01 -1.097436e+01 3.000000e+00
         vertex -2.238016e+00 -1.076993e+01 -3.000000e+00
      endloop
   endfacet
   facet normal -2.034561e-01 9.790841e-01 0.000000e+00
      outer loop
         vertex 3.683676e+00 -1.036487e+01 3.000000e+00
         vertex 3.683676e+00 -1.036487e+01 -3.000000e+00
         vertex 7.506666e-01 -1.097436e+01 -3.000000e+00
      endloop
   endfacet
   facet normal -2.034561e-01 9.790841e-01 0.000000e+00
      outer loop
         vertex 7.506666e-01 -1.097436e+01 3.000000e+00
         vertex 3.683676e+00 -1.036487e+01 3.000000e+00
         vertex 7.506666e-01 -1.097436e+01 -3.000000e+00
      endloop
   endfacet
   facet normal -4.600651e-01 8.878852e-01 0.000000e+00
      outer loop
         vertex 6.343483e+00 -8.986669e+00 3.000000e+00
         vertex 6.343483e+00 -8.986669e+00 -3.000000e+00
         vertex 3.683676e+00 -1.036487e+01 -3.000000e+00
      endloop
   endfacet
   facet normal -4.600651e-01 8.878852e-01 0.000000e+00
      outer loop
         vertex 3.683676e+00 -1.036487e+01 3.000000e+00
         vertex 6.343483e+00 -8.986669e+00 3.000000e+00
         vertex 3.683676e+00 -1.036487e+01 -3.000000e+00
      endloop
   endfacet
   facet normal -6.825530e-01 7.308361e-01 0.000000e+00
      outer loop
         vertex 8.532825e+00 -6.941967e+00 3.000000e+00
         vertex 8.532825e+00 -6.941967e+00 -3.000000e+00
         vertex 6.343483e+00 -8.986669e+00 -3.000000e+00
      endloop
   endfacet
   facet normal -6.825530e-01 7.308361e-01 0.000000e+00
      outer loop
         vertex 6.343483e+00 -8.986669e+00 3.000000e+00
         vertex 8.532825e+00 -6.941967e+00 3.000000e+00
         vertex 6.343483e+00 -8.986669e+00 -3.000000e+00
      endloop
   endfacet
   facet normal -8.544195e-01 5.195838e-01 0.000000e+00
      outer loop
         vertex 1.008932e+01 -4.382412e+00 3.000000e+00
         vertex 1.008932e+01 -4.382412e+00 -3.000000e+00
         vertex 8.532825e+00 -6.941967e+00 -3.000000e+00
      endloop
   endfacet
   facet normal -8.544195e-01 5.195838e-01 0.000000e+00
      outer loop
         vertex 8.532825e+00 -6.941967e+00 3.000000e+00
         vertex 1.008932e+01 -4.382412e+00 3.000000e+00
         vertex 8.532825e+00 -6.941967e+00 -3.000000e+00
      endloop
   endfacet
   facet normal -9.629172e-01 2.697970e-01 0.000000e+00
      outer loop
         vertex 1.089755e+01 -1.497833e+00 3.000000e+00
         vertex 1.089755e+01 -1.497833e+00 -3.000000e+00
         vertex 1.008932e+01 -4.382412e+00 -3.000000e+00
      endloop
   endfacet
   facet normal -9.629172e-01 2.697970e-01 0.000000e+00
      outer loop
         vertex 1.008932e+01 -4.382412e+00 3.000000e+00
         vertex 1.089755e+01 -1.497833e+00 3.000000e+00
         vertex 1.008932e+01 -4.382412e+00 -3.000000e+00
      endloop
   endfacet
   facet normal -1.000000e+00 0.000000e+00 0.000000e+00
      outer loop
         vertex 1.089755e+01 1.497833e+00 3.000000e+00
         vertex 1.089755e+01 1.497833e+00 -3.000000e+00
         vertex 1.089755e+01 -1.497833e+00 -3.000000e+00
      endloop
   endfacet
   facet normal -1.000000e+00 -0.000000e+00 0.000000e+00
      outer loop
         vertex 1.089755e+01 -1.497833e+00 3.000000e+00
         vertex 1.089755e+01 1.497833e+00 3.000000e+00
         vertex 1.089755e+01 -1.497833e+00 -3.000000e+00
      endloop
   endfacet
   facet normal -9.629172e-01 -2.697970e-01 0.000000e+00
      outer loop
         vertex 1.008932e+01 4.382412e+00 3.000000e+00
         vertex 1.008932e+01 4.382412e+00 -3.000000e+00
         vertex 1.089755e+01 1.497833e+00 -3.000000e+00
      endloop
   endfacet
   facet normal -9.629172e-01 -2.697970e-01 0.000000e+00
      outer loop
         vertex 1.089755e+01 1.497833e+00 3.000000e+00
         vertex 1.008932e+01 4.382412e+00 3.000000e+00
         vertex 1.089755e+01 1.497833e+00 -3.000000e+00
      endloop
   endfacet
   facet normal -8.544195e-01 -5.195838e-01 0.000000e+00
      outer loop
         vertex 8.532825e+00 6.941967e+00 3.000000e+00
         vertex 8.532825e+00 6.941967e+00 -3.000000e+00
         vertex 1.008932e+01 4.382412e+00 -3.000000e+00
      endloop
   endfacet
   facet normal -8.544195e-01 -5.195838e-01 0.000000e+00
      outer loop
         vertex 1.008932e+01 4.382412e+00 3.000000e+00
         vertex 8.532825e+00 6.941967e+00 3.000000e+00
         vertex 1.008932e+01 4.382412e+00 -3.000000e+00
      endloop
   endfacet
   facet normal -6.825530e-01 -7.308361e-01 0.000000e+00
      outer loop
         vertex 6.343483e+00 8.986669e+00 3.000000e+00
         vertex 6.343483e+00 8.986669e+00 -3.000000e+00
         vertex 8.532825e+00 6.941967e+00 -3.000000e+00
      endloop
   endfacet
   facet normal -6.825530e-01 -7.308361e-01 0.000000e+00
      outer loop
         vertex 8.532825e+00 6.941967e+00 3.000000e+00
         vertex 6.343483e+00 8.986669e+00 3.000000e+00
         vertex 8.532825e+00 6.941967e+00 -3.000000e+00
      endloop
   endfacet
   facet normal -4.600651e-01 -8.878852e-01 0.000000e+00
      outer loop
         vertex 3.683676e+00 1.036487e+01 3.000000e+00
         vertex 3.683676e+00 1.036487e+01 -3.000000e+00
         vertex 6.343483e+00 8.986669e+00 -3.000000e+00
      endloop
   endfacet
   facet normal -4.600651e-01 -8.878852e-01 0.000000e+00
      outer loop
         vertex 6.343483e+00 8.986669e+00 3.000000e+00
         vertex 3.683676e+00 1.036487e+01 3.000000e+00
         vertex 6.343483e+00 8.986669e+00 -3.000000e+00
      endloop
   endfacet
   facet normal -2.034561e-01 -9.790841e-01 0.000000e+00
      outer loop
         vertex 7.506666e-01 1.097436e+01 3.000000e+00
         vertex 7.506666e-01 1.097436e+01 -3.000000e+00
         vertex 3.683676e+00 1.036487e+01 -3.000000e+00
      endloop
   endfacet
   facet normal -2.034561e-01 -9.790841e-01 0.000000e+00
      outer loop
         vertex 3.683676e+00 1.036487e+01 3.000000e+00
         vertex 7.506666e-01 1.097436e+01 3.000000e+00
         vertex 3.683676e+00 1.036487e+01 -3.000000e+00
      endloop
   endfacet
   facet normal 6.824243e-02 -9.976688e-01 0.000000e+00
      outer loop
         vertex -2.238016e+00 1.076993e+01 3.000000e+00
         vertex -2.238016e+00 1.076993e+01 -3.000000e+00
         vertex 7.506666e-01 1.097436e+01 -3.000000e+00
      endloop
   endfacet
   facet normal 6.824243e-02 -9.976688e-01 0.000000e+00
      outer loop
         vertex 7.506666e-01 1.097436e+01 3.000000e+00
         vertex -2.238016e+00 1.076993e+01 3.000000e+00
         vertex 7.506666e-01 1.097436e+01 -3.000000e+00
      endloop
   endfacet
   facet normal 3.348798e-01 -9.422609e-01 0.000000e+00
      outer loop
         vertex -5.060715e+00 9.766737e+00 3.000000e+00
         vertex -5.060715e+00 9.766737e+00 -3.000000e+00
         vertex -2.238016e+00 1.076993e+01 -3.000000e+00
      endloop
   endfacet
   facet normal 3.348798e-01 -9.422609e-01 0.000000e+00
      outer loop
         vertex -2.238016e+00 1.076993e+01 3.000000e+00
         vertex -5.060715e+00 9.766737e+00 3.000000e+00
         vertex -2.238016e+00 1.076993e+01 -3.000000e+00
      endloop
   endfacet
   facet normal 5.766801e-01 -8.169701e-01 0.000000e+00
      outer loop
         vertex -7.508085e+00 8.039196e+00 3.000000e+00
         vertex -7.508085e+00 8.039196e+00 -3.000000e+00
         vertex -5.060715e+00 9.766737e+00 -3.000000e+00
      endloop
   endfacet
   facet normal 5.766801e-01 -8.169701e-01 0.000000e+00
      outer loop
         vertex -5.060715e+00 9.766737e+00 3.000000e+00
         vertex -7.508085e+00 8.039196e+00 3.000000e+00
         vertex -5.060715e+00 9.766737e+00 -3.000000e+00
      endloop
   endfacet
   facet normal 7.757114e-01 -6.310878e-01 0.000000e+00
      outer loop
         vertex -9.398613e+00 5.715424e+00 3.000000e+00
         vertex -9.398613e+00 5.715424e+00 -3.000000e+00
         vertex -7.508085e+00 8.039196e+00 -3.000000e+00
      endloop
   endfacet
   facet normal 7.757114e-01 -6.310878e-01 0.000000e+00
      outer loop
         vertex -7.508085e+00 8.039196e+00 3.000000e+00
         vertex -9.398613e+00 5.715424e+00 3.000000e+00
         vertex -7.508085e+00 8.039196e+00 -3.000000e+00
      endloop
   endfacet
   facet normal 9.172112e-01 -3.984013e-01 0.000000e+00
      outer loop
         vertex -1.059209e+01 2.967764e+00 3.000000e+00
         vertex -1.059209e+01 2.967764e+00 -3.000000e+00
         vertex -9.398613e+00 5.715424e+00 -3.000000e+00
      endloop
   endfacet
   facet normal 9.172112e-01 -3.984013e-01 0.000000e+00
      outer loop
         vertex -9.398613e+00 5.715424e+00 3.000000e+00
         vertex -1.059209e+01 2.967764e+00 3.000000e+00
         vertex -9.398613e+00 5.715424e+00 -3.000000e+00
      endloop
   endfacet
   facet normal 9.906860e-01 -1.361665e-01 0.000000e+00
      outer loop
         vertex -1.100000e+01 4.041334e-15 3.000000e+00
         vertex -1.100000e+01 4.041334e-15 -3.000000e+00
         vertex -1.059209e+01 2.967764e+00 -3.000000e+00
      endloop
   endfacet
   facet normal 9.906860e-01 -1.361665e-01 0.000000e+00
      outer loop
         vertex -1.059209e+01 2.967764e+00 3.000000e+00
         vertex -1.100000e+01 4.041334e-15 3.000000e+00
         vertex -1.059209e+01 2.967764e+00 -3.000000e+00
      endloop
   endfacet
   facet normal 0.000000e+00 0.000000e+00 1.000000e+00
      outer loop
         vertex 2.400000e+01 -2.100000e+01 3.000000e+00
         vertex 1.623953e+01 -1.797721e+01 3.000000e+00
         vertex -2.100000e+01 -2.100000e+01 3.000000e+00
      endloop
   endfacet
   facet normal 0.000000e+00 0.000000e+00 1.000000e+00
      outer loop
         vertex 1.623953e+01 -1.797721e+01 3.000000e+00
         vertex 1.535093e+01 -1.746418e+01 3.000000e+00
         vertex -2.100000e+01 -2.100000e+01 3.000000e+00
      endloop
   endfacet
   facet normal 0.000000e+00 0.000000e+00 1.000000e+00
      outer loop
         vertex -2.100000e+01 -2.100000e+01 3.000000e+00
         vertex -1.800000e+01 -1.650000e+01 3.000000e+00
         vertex -2.100000e+01 2.400000e+01 3.000000e+00
      endloop
   endfacet
   facet normal 0.000000e+00 0.000000e+00 1.000000e+00
      outer loop
         vertex -1.800000e+01 -1.650000e+01 3.000000e+00
         vertex -1.764907e+01 -1.553582e+01 3.000000e+00
         vertex -2.100000e+01 2.400000e+01 3.000000e+00
      endloop
   endfacet
   facet normal 0.000000e+00 -0.000000e+00 1.000000e+00
      outer loop
         vertex -2.100000e+01 2.400000e+01 3.000000e+00
         vertex -1.676047e+01 1.797721e+01 3.000000e+00
         vertex 2.400000e+01 2.400000e+01 3.000000e+00
      endloop
   endfacet
   facet normal 0.000000e+00 -0.000000e+00 1.000000e+00
      outer loop
         vertex -1.676047e+01 1.797721e+01 3.000000e+00
         vertex -1.575000e+01 1.779904e+01 3.000000e+00
         vertex 2.400000e+01 2.400000e+01 3.000000e+00
      endloop
   endfacet
   facet normal -0.000000e+00 0.000000e+00 1.000000e+00
      outer loop
         vertex 2.400000e+01 2.400000e+01 3.000000e+00
         vertex 1.790954e+01 1.701303e+01 3.000000e+00
         vertex 2.400000e+01 -2.100000e+01 3.000000e+00
      endloop
   endfacet
   facet normal -0.000000e+00 0.000000e+00 1.000000e+00
      outer loop
         vertex 1.790954e+01 1.701303e+01 3.000000e+00
         vertex 1.790954e+01 1.598697e+01 3.000000e+00
         vertex 2.400000e+01 -2.100000e+01 3.000000e+00
      endloop
   endfacet
   facet normal 0.000000e+00 0.000000e+00 1.000000e+00
      outer loop
         vertex 2.400000e+01 -2.100000e+01 3.000000e+00
         vertex 1.790954e+01 -1.701303e+01 3.000000e+00
         vertex 1.725000e+01 -1.779904e+01 3.000000e+00
      endloop
   endfacet
   facet normal 0.000000e+00 0.000000e+00 1.000000e+00
      outer loop
         vertex 1.790954e+01 -1.701303e+01 3.000000e+00
         vertex 2.400000e+01 -2.100000e+01 3.000000e+00
         vertex 1.790954e+01 -1.598697e+01 3.000000e+00
      endloop
   endfacet
   facet normal 0.000000e+00 0.000000e+00 1.000000e+00
      outer loop
         vertex 2.400000e+01 -2.100000e+01 3.000000e+00
         vertex 1.790954e+01 1.598697e+01 3.000000e+00
         vertex 1.790954e+01 -1.598697e+01 3.000000e+00
      endloop
   endfacet
   facet normal 0.000000e+00 0.000000e+00 1.000000e+00
      outer loop
         vertex 1.790954e+01 -1.598697e+01 3.000000e+00
         vertex 1.790954e+01 1.598697e+01 3.000000e+00
         vertex 1.725000e+01 -1.520096e+01 3.000000e+00
      endloop
   endfacet
   facet normal -0.000000e+00 0.000000e+00 1.000000e+00
      outer loop
         vertex 1.790954e+01 1.598697e+01 3.000000e+00
         vertex 1.725000e+01 1.520096e+01 3.000000e+00
         vertex 1.725000e+01 -1.520096e+01 3.000000e+00
      endloop
   endfacet
   facet normal 0.000000e+00 0.000000e+00 1.000000e+00
      outer loop
         vertex 1.725000e+01 -1.520096e+01 3.000000e+00
         vertex 1.725000e+01 1.520096e+01 3.000000e+00
         vertex 1.623953e+01 -1.502279e+01 3.000000e+00
      endloop
   endfacet
   facet normal -0.000000e+00 0.000000e+00 1.000000e+00
      outer loop
         vertex 1.725000e+01 1.520096e+01 3.000000e+00
         vertex 1.623953e+01 1.502279e+01 3.000000e+00
         vertex 1.623953e+01 -1.502279e+01 3.000000e+00
      endloop
   endfacet
   facet normal 0.000000e+00 0.000000e+00 1.000000e+00
      outer loop
         vertex 1.623953e+01 -1.502279e+01 3.000000e+00
         vertex 1.623953e+01 1.502279e+01 3.000000e+00
         vertex 1.535093e+01 -1.553582e+01 3.000000e+00
      endloop
   endfacet
   facet normal 0.000000e+00 0.000000e+00 1.000000e+00
      outer loop
         vertex 1.623953e+01 1.502279e+01 3.000000e+00
         vertex 1.535093e+01 1.553582e+01 3.000000e+00
         vertex 1.535093e+01 -1.553582e+01 3.000000e+00
      endloop
   endfacet
   facet normal 0.000000e+00 0.000000e+00 1.000000e+00
      outer loop
         vertex 1.535093e+01 -1.553582e+01 3.000000e+00
         vertex 1.535093e+01 1.553582e+01 3.000000e+00
         vertex 1.500000e+01 -1.650000e+01 3.000000e+00
      endloop
   endfacet
   facet normal 0.000000e+00 0.000000e+00 1.000000e+00
      outer loop
         vertex 1.535093e+01 1.553582e+01 3.000000e+00
         vertex 1.500000e+01 1.650000e+01 3.000000e+00
         vertex 1.500000e+01 -1.650000e+01 3.000000e+00
      endloop
   endfacet
   facet normal 0.000000e+00 0.000000e+00 1.000000e+00
      outer loop
         vertex 1.725000e+01 1.779904e+01 3.000000e+00
         vertex 2.400000e+01 2.400000e+01 3.000000e+00
         vertex 1.623953e+01 1.797721e+01 3.000000e+00
      endloop
   endfacet
   facet normal 0.000000e+00 0.000000e+00 1.000000e+00
      outer loop
         vertex 2.400000e+01 2.400000e+01 3.000000e+00
         vertex -1.575000e+01 1.779904e+01 3.000000e+00
         vertex 1.623953e+01 1.797721e+01 3.000000e+00
      endloop
   endfacet
   facet normal -0.000000e+00 0.000000e+00 1.000000e+00
      outer loop
         vertex 1.623953e+01 1.797721e+01 3.000000e+00
         vertex -1.575000e+01 1.779904e+01 3.000000e+00
         vertex 1.535093e+01 1.746418e+01 3.000000e+00
      endloop
   endfacet
   facet normal 0.000000e+00 -0.000000e+00 1.000000e+00
      outer loop
         vertex -1.575000e+01 1.779904e+01 3.000000e+00
         vertex -1.509046e+01 1.701303e+01 3.000000e+00
         vertex 1.535093e+01 1.746418e+01 3.000000e+00
      endloop
   endfacet
   facet normal -0.000000e+00 0.000000e+00 1.000000e+00
      outer loop
         vertex 1.535093e+01 1.746418e+01 3.000000e+00
         vertex -1.509046e+01 1.701303e+01 3.000000e+00
         vertex 1.500000e+01 1.650000e+01 3.000000e+00
      endloop
   endfacet
   facet normal 0.000000e+00 0.000000e+00 1.000000e+00
      outer loop
         vertex -1.509046e+01 1.701303e+01 3.000000e+00
         vertex -1.509046e+01 1.598697e+01 3.000000e+00
         vertex 1.500000e+01 1.650000e+01 3.000000e+00
      endloop
   endfacet
   facet normal -0.000000e+00 0.000000e+00 1.000000e+00
      outer loop
         vertex 1.500000e+01 1.650000e+01 3.000000e+00
         vertex 1.089755e+01 1.497833e+00 3.000000e+00
         vertex 1.500000e+01 -1.650000e+01 3.000000e+00
      endloop
   endfacet
   facet normal -0.000000e+00 0.000000e+00 1.000000e+00
      outer loop
         vertex 1.089755e+01 1.497833e+00 3.000000e+00
         vertex 1.089755e+01 -1.497833e+00 3.000000e+00
         vertex 1.500000e+01 -1.650000e+01 3.000000e+00
      endloop
   endfacet
   facet normal -0.000000e+00 0.000000e+00 1.000000e+00
      outer loop
         vertex 1.089755e+01 -1.497833e+00 3.000000e+00
         vertex 1.008932e+01 -4.382412e+00 3.000000e+00
         vertex 1.500000e+01 -1.650000e+01 3.000000e+00
      endloop
   endfacet
   facet normal -0.000000e+00 0.000000e+00 1.000000e+00
      outer loop
         vertex 1.008932e+01 -4.382412e+00 3.000000e+00
         vertex 8.532825e+00 -6.941967e+00 3.000000e+00
         vertex 1.500000e+01 -1.650000e+01 3.000000e+00
      endloop
   endfacet
   facet normal 0.000000e+00 0.000000e+00 1.000000e+00
      outer loop
         vertex 1.500000e+01 -1.650000e+01 3.000000e+00
         vertex 8.532825e+00 -6.941967e+00 3.000000e+00
         vertex 1.535093e+01 -1.746418e+01 3.000000e+00
      endloop
   endfacet
   facet normal -0.000000e+00 0.000000e+00 1.000000e+00
      outer loop
         vertex 8.532825e+00 -6.941967e+00 3.000000e+00
         vertex 6.343483e+00 -8.986669e+00 3.000000e+00
         vertex 1.535093e+01 -1.746418e+01 3.000000e+00
      endloop
   endfacet
   facet normal 0.000000e+00 0.000000e+00 1.000000e+00
      outer loop
         vertex 1.535093e+01 -1.746418e+01 3.000000e+00
         vertex 3.683676e+00 -1.036487e+01 3.000000e+00
         vertex -2.100000e+01 -2.100000e+01 3.000000e+00
      endloop
   endfacet
   facet normal -0.000000e+00 0.000000e+00 1.000000e+00
      outer loop
         vertex 3.683676e+00 -1.036487e+01 3.000000e+00
         vertex 7.506666e-01 -1.097436e+01 3.000000e+00
         vertex -2.100000e+01 -2.100000e+01 3.000000e+00
      endloop
   endfacet
   facet normal 0.000000e+00 0.000000e+00 1.000000e+00
      outer loop
         vertex -2.100000e+01 -2.100000e+01 3.000000e+00
         vertex -1.676047e+01 -1.797721e+01 3.000000e+00
         vertex -1.764907e+01 -1.746418e+01 3.000000e+00
      endloop
   endfacet
   facet normal 0.000000e+00 0.000000e+00 1.000000e+00
      outer loop
         vertex -1.676047e+01 -1.797721e+01 3.000000e+00
         vertex -2.100000e+01 -2.100000e+01 3.000000e+00
         vertex -1.575000e+01 -1.779904e+01 3.000000e+00
      endloop
   endfacet
   facet normal 0.000000e+00 0.000000e+00 1.000000e+00
      outer loop
         vertex -2.100000e+01 -2.100000e+01 3.000000e+00
         vertex 7.506666e-01 -1.097436e+01 3.000000e+00
         vertex -1.575000e+01 -1.779904e+01 3.000000e+00
      endloop
   endfacet
   facet normal 0.000000e+00 0.000000e+00 1.000000e+00
      outer loop
         vertex 7.506666e-01 -1.097436e+01 3.000000e+00
         vertex -2.238016e+00 -1.076993e+01 3.000000e+00
         vertex -1.575000e+01 -1.779904e+01 3.000000e+00
      endloop
   endfacet
   facet normal 0.000000e+00 0.000000e+00 1.000000e+00
      outer loop
         vertex -1.575000e+01 -1.779904e+01 3.000000e+00
         vertex -2.238016e+00 -1.076993e+01 3.000000e+00
         vertex -1.509046e+01 -1.701303e+01 3.000000e+00
      endloop
   endfacet
   facet normal 0.000000e+00 0.000000e+00 1.000000e+00
      outer loop
         vertex -2.238016e+00 -1.076993e+01 3.000000e+00
         vertex -5.060715e+00 -9.766737e+00 3.000000e+00
         vertex -1.509046e+01 -1.701303e+01 3.000000e+00
      endloop
   endfacet
   facet normal 0.000000e+00 0.000000e+00 1.000000e+00
      outer loop
         vertex -1.509046e+01 -1.701303e+01 3.000000e+00
         vertex -5.060715e+00 -9.766737e+00 3.000000e+00
         vertex -1.509046e+01 -1.598697e+01 3.000000e+00
      endloop
   endfacet
   facet normal 0.000000e+00 0.000000e+00 1.000000e+00
      outer loop
         vertex -5.060715e+00 -9.766737e+00 3.000000e+00
         vertex -7.508085e+00 -8.039196e+00 3.000000e+00
         vertex -1.509046e+01 -1.598697e+01 3.000000e+00
      endloop
   endfacet
   facet normal 0.000000e+00 0.000000e+00 1.000000e+00
      outer loop
         vertex -1.509046e+01 -1.598697e+01 3.000000e+00
         vertex -7.508085e+00 -8.039196e+00 3.000000e+00
         vertex -1.575000e+01 -1.520096e+01 3.000000e+00
      endloop
   endfacet
   facet normal 0.000000e+00 0.000000e+00 1.000000e+00
      outer loop
         vertex -7.508085e+00 -8.039196e+00 3.000000e+00
         vertex -9.398613e+00 -5.715424e+00 3.000000e+00
         vertex -1.575000e+01 -1.520096e+01 3.000000e+00
      endloop
   endfacet
   facet normal 0.000000e+00 0.000000e+00 1.000000e+00
      outer loop
         vertex -1.575000e+01 -1.520096e+01 3.000000e+00
         vertex -9.398613e+00 -5.715424e+00 3.000000e+00
         vertex -1.676047e+01 -1.502279e+01 3.000000e+00
      endloop
   endfacet
   facet normal 0.000000e+00 0.000000e+00 1.000000e+00
      outer loop
         vertex -9.398613e+00 -5.715424e+00 3.000000e+00
         vertex -1.059209e+01 -2.967764e+00 3.000000e+00
         vertex -1.676047e+01 -1.502279e+01 3.000000e+00
      endloop
   endfacet
   facet normal 0.000000e+00 0.000000e+00 1.000000e+00
      outer loop
         vertex -1.676047e+01 -1.502279e+01 3.000000e+00
         vertex -1.059209e+01 -2.967764e+00 3.000000e+00
         vertex -1.764907e+01 -1.553582e+01 3.000000e+00
      endloop
   endfacet
   facet normal 0.000000e+00 0.000000e+00 1.000000e+00
      outer loop
         vertex -1.059209e+01 -2.967764e+00 3.000000e+00
         vertex -1.100000e+01 1.347111e-15 3.000000e+00
         vertex -1.764907e+01 -1.553582e+01 3.000000e+00
      endloop
   endfacet
   facet normal 0.000000e+00 0.000000e+00 1.000000e+00
      outer loop
         vertex -1.764907e+01 -1.553582e+01 3.000000e+00
         vertex -1.764907e+01 1.553582e+01 3.000000e+00
         vertex -2.100000e+01 2.400000e+01 3.000000e+00
      endloop
   endfacet
   facet normal 0.000000e+00 0.000000e+00 1.000000e+00
      outer loop
         vertex -1.764907e+01 1.553582e+01 3.000000e+00
         vertex -1.800000e+01 1.650000e+01 3.000000e+00
         vertex -2.100000e+01 2.400000e+01 3.000000e+00
      endloop
   endfacet
   facet normal 0.000000e+00 -0.000000e+00 1.000000e+00
      outer loop
         vertex -2.100000e+01 2.400000e+01 3.000000e+00
         vertex -1.800000e+01 1.650000e+01 3.000000e+00
         vertex -1.764907e+01 1.746418e+01 3.000000e+00
      endloop
   endfacet
   facet normal 0.000000e+00 0.000000e+00 1.000000e+00
      outer loop
         vertex -1.764907e+01 1.553582e+01 3.000000e+00
         vertex -1.764907e+01 -1.553582e+01 3.000000e+00
         vertex -1.676047e+01 1.502279e+01 3.000000e+00
      endloop
   endfacet
   facet normal 0.000000e+00 0.000000e+00 1.000000e+00
      outer loop
         vertex -1.764907e+01 -1.553582e+01 3.000000e+00
         vertex -1.100000e+01 1.347111e-15 3.000000e+00
         vertex -1.676047e+01 1.502279e+01 3.000000e+00
      endloop
   endfacet
   facet normal 0.000000e+00 0.000000e+00 1.000000e+00
      outer loop
         vertex -1.676047e+01 1.502279e+01 3.000000e+00
         vertex -1.100000e+01 1.347111e-15 3.000000e+00
         vertex -1.575000e+01 1.520096e+01 3.000000e+00
      endloop
   endfacet
   facet normal 0.000000e+00 0.000000e+00 1.000000e+00
      outer loop
         vertex -1.100000e+01 1.347111e-15 3.000000e+00
         vertex -1.059209e+01 2.967764e+00 3.000000e+00
         vertex -1.575000e+01 1.520096e+01 3.000000e+00
      endloop
   endfacet
   facet normal 0.000000e+00 0.000000e+00 1.000000e+00
      outer loop
         vertex -1.575000e+01 1.520096e+01 3.000000e+00
         vertex -1.059209e+01 2.967764e+00 3.000000e+00
         vertex -1.509046e+01 1.598697e+01 3.000000e+00
      endloop
   endfacet
   facet normal 0.000000e+00 0.000000e+00 1.000000e+00
      outer loop
         vertex -1.059209e+01 2.967764e+00 3.000000e+00
         vertex -9.398613e+00 5.715424e+00 3.000000e+00
         vertex -1.509046e+01 1.598697e+01 3.000000e+00
      endloop
   endfacet
   facet normal 0.000000e+00 -0.000000e+00 1.000000e+00
      outer loop
         vertex -1.509046e+01 1.598697e+01 3.000000e+00
         vertex -2.238016e+00 1.076993e+01 3.000000e+00
         vertex 1.500000e+01 1.650000e+01 3.000000e+00
      endloop
   endfacet
   facet normal 0.000000e+00 -0.000000e+00 1.000000e+00
      outer loop
         vertex -2.238016e+00 1.076993e+01 3.000000e+00
         vertex 7.506666e-01 1.097436e+01 3.000000e+00
         vertex 1.500000e+01 1.650000e+01 3.000000e+00
      endloop
   endfacet
   facet normal -0.000000e+00 0.000000e+00 1.000000e+00
      outer loop
         vertex 1.500000e+01 1.650000e+01 3.000000e+00
         vertex 6.343483e+00 8.986669e+00 3.000000e+00
         vertex 8.532825e+00 6.941967e+00 3.000000e+00
      endloop
   endfacet
   facet normal 0.000000e+00 0.000000e+00 1.000000e+00
      outer loop
         vertex 6.343483e+00 8.986669e+00 3.000000e+00
         vertex 1.500000e+01 1.650000e+01 3.000000e+00
         vertex 3.683676e+00 1.036487e+01 3.000000e+00
      endloop
   endfacet
   facet normal -0.000000e+00 0.000000e+00 1.000000e+00
      outer loop
         vertex 1.500000e+01 1.650000e+01 3.000000e+00
         vertex 7.506666e-01 1.097436e+01 3.000000e+00
         vertex 3.683676e+00 1.036487e+01 3.000000e+00
      endloop
   endfacet
   facet normal 0.000000e+00 0.000000e+00 1.000000e+00
      outer loop
         vertex -5.060715e+00 9.766737e+00 3.000000e+00
         vertex -1.509046e+01 1.598697e+01 3.000000e+00
         vertex -7.508085e+00 8.039196e+00 3.000000e+00
      endloop
   endfacet
   facet normal 0.000000e+00 -0.000000e+00 1.000000e+00
      outer loop
         vertex -1.509046e+01 1.598697e+01 3.000000e+00
         vertex -9.398613e+00 5.715424e+00 3.000000e+00
         vertex -7.508085e+00 8.039196e+00 3.000000e+00
      endloop
   endfacet
   facet normal 0.000000e+00 0.000000e+00 1.000000e+00
      outer loop
         vertex -2.238016e+00 1.076993e+01 3.000000e+00
         vertex -1.509046e+01 1.598697e+01 3.000000e+00
         vertex -5.060715e+00 9.766737e+00 3.000000e+00
      endloop
   endfacet
   facet normal 0.000000e+00 0.000000e+00 1.000000e+00
      outer loop
         vertex 1.790954e+01 1.701303e+01 3.000000e+00
         vertex 2.400000e+01 2.400000e+01 3.000000e+00
         vertex 1.725000e+01 1.779904e+01 3.000000e+00
      endloop
   endfacet
   facet normal 0.000000e+00 0.000000e+00 1.000000e+00
      outer loop
         vertex 1.623953e+01 -1.797721e+01 3.000000e+00
         vertex 2.400000e+01 -2.100000e+01 3.000000e+00
         vertex 1.725000e+01 -1.779904e+01 3.000000e+00
      endloop
   endfacet
   facet normal 0.000000e+00 0.000000e+00 1.000000e+00
      outer loop
         vertex 1.089755e+01 1.497833e+00 3.000000e+00
         vertex 1.500000e+01 1.650000e+01 3.000000e+00
         vertex 1.008932e+01 4.382412e+00 3.000000e+00
      endloop
   endfacet
   facet normal -0.000000e+00 0.000000e+00 1.000000e+00
      outer loop
         vertex 1.500000e+01 1.650000e+01 3.000000e+00
         vertex 8.532825e+00 6.941967e+00 3.000000e+00
         vertex 1.008932e+01 4.382412e+00 3.000000e+00
      endloop
   endfacet
   facet normal 0.000000e+00 0.000000e+00 1.000000e+00
      outer loop
         vertex -1.800000e+01 -1.650000e+01 3.000000e+00
         vertex -2.100000e+01 -2.100000e+01 3.000000e+00
         vertex -1.764907e+01 -1.746418e+01 3.000000e+00
      endloop
   endfacet
   facet normal 0.000000e+00 0.000000e+00 1.000000e+00
      outer loop
         vertex -1.676047e+01 1.797721e+01 3.000000e+00
         vertex -2.100000e+01 2.400000e+01 3.000000e+00
         vertex -1.764907e+01 1.746418e+01 3.000000e+00
      endloop
   endfacet
   facet normal 0.000000e+00 0.000000e+00 1.000000e+00
      outer loop
         vertex 3.683676e+00 -1.036487e+01 3.000000e+00
         vertex 1.535093e+01 -1.746418e+01 3.000000e+00
         vertex 6.343483e+00 -8.986669e+00 3.000000e+00
      endloop
   endfacet
   facet normal 0.000000e+00 1.000000e+00 -0.000000e+00
      outer loop
         vertex 2.400000e+01 2.400000e+01 3.000000e+00
         vertex 2.400000e+01 2.400000e+01 -4.200000e+01
         vertex -2.100000e+01 2.400000e+01 -4.200000e+01
      endloop
   endfacet
   facet normal 0.000000e+00 1.000000e+00 0.000000e+00
      outer loop
         vertex 2.400000e+01 2.400000e+01 3.000000e+00
         vertex -2.100000e+01 2.400000e+01 -4.200000e+01
         vertex -2.100000e+01 2.400000e+01 3.000000e+00
      endloop
   endfacet
endsolid
