solid 
   facet normal 0.000000e+00 -1.000000e+00 0.000000e+00
      outer loop
         vertex 2.500000e+01 -1.050000e+01 2.100000e+01
         vertex 0.000000e+00 -1.050000e+01 2.100000e+01
         vertex 0.000000e+00 -1.050000e+01 0.000000e+00
      endloop
   endfacet
   facet normal 0.000000e+00 -1.000000e+00 0.000000e+00
      outer loop
         vertex 2.500000e+01 -1.050000e+01 2.100000e+01
         vertex 0.000000e+00 -1.050000e+01 0.000000e+00
         vertex 2.500000e+01 -1.050000e+01 0.000000e+00
      endloop
   endfacet
   facet normal -0.000000e+00 0.000000e+00 1.000000e+00
      outer loop
         vertex 2.500000e+01 1.050000e+01 2.100000e+01
         vertex 1.285879e-15 1.050000e+01 2.100000e+01
         vertex 5.819548e-15 -1.050000e+01 2.100000e+01
      endloop
   endfacet
   facet normal 0.000000e+00 0.000000e+00 1.000000e+00
      outer loop
         vertex 2.500000e+01 1.050000e+01 2.100000e+01
         vertex 5.819548e-15 -1.050000e+01 2.100000e+01
         vertex 2.500000e+01 -1.050000e+01 2.100000e+01
      endloop
   endfacet
   facet normal 0.000000e+00 1.000000e+00 0.000000e+00
      outer loop
         vertex 2.500000e+01 1.050000e+01 0.000000e+00
         vertex 0.000000e+00 1.050000e+01 0.000000e+00
         vertex 0.000000e+00 1.050000e+01 2.100000e+01
      endloop
   endfacet
   facet normal -0.000000e+00 1.000000e+00 0.000000e+00
      outer loop
         vertex 2.500000e+01 1.050000e+01 0.000000e+00
         vertex 0.000000e+00 1.050000e+01 2.100000e+01
         vertex 2.500000e+01 1.050000e+01 2.100000e+01
      endloop
   endfacet
   facet normal 0.000000e+00 0.000000e+00 -1.000000e+00
      outer loop
         vertex 2.500000e+01 -1.050000e+01 0.000000e+00
         vertex -1.285879e-15 -1.050000e+01 0.000000e+00
         vertex 0.000000e+00 1.050000e+01 0.000000e+00
      endloop
   endfacet
   facet normal 0.000000e+00 0.000000e+00 -1.000000e+00
      outer loop
         vertex 2.500000e+01 1.050000e+01 0.000000e+00
         vertex 2.500000e+01 -1.050000e+01 0.000000e+00
         vertex 0.000000e+00 1.050000e+01 0.000000e+00
      endloop
   endfacet
   facet normal 0.000000e+00 9.863613e-01 -1.645947e-01
      outer loop
         vertex 2.182816e-15 -7.235502e+00 1.298395e+01
         vertex 2.000000e+01 -7.235502e+00 1.298395e+01
         vertex 2.000000e+01 -7.650000e+00 1.050000e+01
      endloop
   endfacet
   facet normal 0.000000e+00 9.863613e-01 -1.645947e-01
      outer loop
         vertex 2.030718e-15 -7.650000e+00 1.050000e+01
         vertex 2.182816e-15 -7.235502e+00 1.298395e+01
         vertex 2.000000e+01 -7.650000e+00 1.050000e+01
      endloop
   endfacet
   facet normal 0.000000e+00 8.794738e-01 -4.759473e-01
      outer loop
         vertex 2.318433e-15 -6.036925e+00 1.519873e+01
         vertex 2.000000e+01 -6.036925e+00 1.519873e+01
         vertex 2.000000e+01 -7.235502e+00 1.298395e+01
      endloop
   endfacet
   facet normal 0.000000e+00 8.794738e-01 -4.759473e-01
      outer loop
         vertex 2.182816e-15 -7.235502e+00 1.298395e+01
         vertex 2.318433e-15 -6.036925e+00 1.519873e+01
         vertex 2.000000e+01 -7.235502e+00 1.298395e+01
      endloop
   endfacet
   facet normal 0.000000e+00 6.772815e-01 -7.357239e-01
      outer loop
         vertex 2.422870e-15 -4.184154e+00 1.690432e+01
         vertex 2.000000e+01 -4.184154e+00 1.690432e+01
         vertex 2.000000e+01 -6.036925e+00 1.519873e+01
      endloop
   endfacet
   facet normal 0.000000e+00 6.772815e-01 -7.357239e-01
      outer loop
         vertex 2.318433e-15 -6.036925e+00 1.519873e+01
         vertex 2.422870e-15 -4.184154e+00 1.690432e+01
         vertex 2.000000e+01 -6.036925e+00 1.519873e+01
      endloop
   endfacet
   facet normal 0.000000e+00 4.016956e-01 -9.157732e-01
      outer loop
         vertex 2.484812e-15 -1.877964e+00 1.791591e+01
         vertex 2.000000e+01 -1.877964e+00 1.791591e+01
         vertex 2.000000e+01 -4.184154e+00 1.690432e+01
      endloop
   endfacet
   facet normal 0.000000e+00 4.016956e-01 -9.157732e-01
      outer loop
         vertex 2.422870e-15 -4.184154e+00 1.690432e+01
         vertex 2.484812e-15 -1.877964e+00 1.791591e+01
         vertex 2.000000e+01 -4.184154e+00 1.690432e+01
      endloop
   endfacet
   facet normal 0.000000e+00 8.257890e-02 -9.965845e-01
      outer loop
         vertex 2.497546e-15 6.317320e-01 1.812387e+01
         vertex 2.000000e+01 6.317320e-01 1.812387e+01
         vertex 2.000000e+01 -1.877964e+00 1.791591e+01
      endloop
   endfacet
   facet normal 0.000000e+00 8.257890e-02 -9.965845e-01
      outer loop
         vertex 2.484812e-15 -1.877964e+00 1.791591e+01
         vertex 2.497546e-15 6.317320e-01 1.812387e+01
         vertex 2.000000e+01 -1.877964e+00 1.791591e+01
      endloop
   endfacet
   facet normal -0.000000e+00 -2.454850e-01 -9.694004e-01
      outer loop
         vertex 2.459692e-15 3.072970e+00 1.750567e+01
         vertex 2.000000e+01 3.072970e+00 1.750567e+01
         vertex 2.000000e+01 6.317320e-01 1.812387e+01
      endloop
   endfacet
   facet normal 0.000000e+00 -2.454850e-01 -9.694004e-01
      outer loop
         vertex 2.497546e-15 6.317320e-01 1.812387e+01
         vertex 2.459692e-15 3.072970e+00 1.750567e+01
         vertex 2.000000e+01 6.317320e-01 1.812387e+01
      endloop
   endfacet
   facet normal -0.000000e+00 -5.469483e-01 -8.371664e-01
      outer loop
         vertex 2.375352e-15 5.181204e+00 1.612829e+01
         vertex 2.000000e+01 5.181204e+00 1.612829e+01
         vertex 2.000000e+01 3.072970e+00 1.750567e+01
      endloop
   endfacet
   facet normal 0.000000e+00 -5.469483e-01 -8.371664e-01
      outer loop
         vertex 2.459692e-15 3.072970e+00 1.750567e+01
         vertex 2.375352e-15 5.181204e+00 1.612829e+01
         vertex 2.000000e+01 3.072970e+00 1.750567e+01
      endloop
   endfacet
   facet normal -0.000000e+00 -7.891404e-01 -6.142128e-01
      outer loop
         vertex 2.253665e-15 6.727974e+00 1.414100e+01
         vertex 2.000000e+01 6.727974e+00 1.414100e+01
         vertex 2.000000e+01 5.181204e+00 1.612829e+01
      endloop
   endfacet
   facet normal 0.000000e+00 -7.891404e-01 -6.142128e-01
      outer loop
         vertex 2.375352e-15 5.181204e+00 1.612829e+01
         vertex 2.253665e-15 6.727974e+00 1.414100e+01
         vertex 2.000000e+01 5.181204e+00 1.612829e+01
      endloop
   endfacet
   facet normal -0.000000e+00 -9.458173e-01 -3.246993e-01
      outer loop
         vertex 2.107819e-15 7.545664e+00 1.175915e+01
         vertex 2.000000e+01 7.545664e+00 1.175915e+01
         vertex 2.000000e+01 6.727974e+00 1.414100e+01
      endloop
   endfacet
   facet normal 0.000000e+00 -9.458173e-01 -3.246993e-01
      outer loop
         vertex 2.253665e-15 6.727974e+00 1.414100e+01
         vertex 2.107819e-15 7.545664e+00 1.175915e+01
         vertex 2.000000e+01 6.727974e+00 1.414100e+01
      endloop
   endfacet
   facet normal 0.000000e+00 -1.000000e+00 0.000000e+00
      outer loop
         vertex 1.953618e-15 7.545664e+00 9.240851e+00
         vertex 2.000000e+01 7.545664e+00 9.240851e+00
         vertex 2.000000e+01 7.545664e+00 1.175915e+01
      endloop
   endfacet
   facet normal 0.000000e+00 -1.000000e+00 0.000000e+00
      outer loop
         vertex 2.107819e-15 7.545664e+00 1.175915e+01
         vertex 1.953618e-15 7.545664e+00 9.240851e+00
         vertex 2.000000e+01 7.545664e+00 1.175915e+01
      endloop
   endfacet
   facet normal 0.000000e+00 -9.458173e-01 3.246994e-01
      outer loop
         vertex 1.807772e-15 6.727974e+00 6.859003e+00
         vertex 2.000000e+01 6.727974e+00 6.859003e+00
         vertex 2.000000e+01 7.545664e+00 9.240851e+00
      endloop
   endfacet
   facet normal 0.000000e+00 -9.458173e-01 3.246994e-01
      outer loop
         vertex 1.953618e-15 7.545664e+00 9.240851e+00
         vertex 1.807772e-15 6.727974e+00 6.859003e+00
         vertex 2.000000e+01 7.545664e+00 9.240851e+00
      endloop
   endfacet
   facet normal 0.000000e+00 -7.891404e-01 6.142128e-01
      outer loop
         vertex 1.686085e-15 5.181204e+00 4.871712e+00
         vertex 2.000000e+01 5.181204e+00 4.871712e+00
         vertex 2.000000e+01 6.727974e+00 6.859003e+00
      endloop
   endfacet
   facet normal 0.000000e+00 -7.891404e-01 6.142128e-01
      outer loop
         vertex 1.807772e-15 6.727974e+00 6.859003e+00
         vertex 1.686085e-15 5.181204e+00 4.871712e+00
         vertex 2.000000e+01 6.727974e+00 6.859003e+00
      endloop
   endfacet
   facet normal 0.000000e+00 -5.469482e-01 8.371664e-01
      outer loop
         vertex 1.601745e-15 3.072970e+00 3.494334e+00
         vertex 2.000000e+01 3.072970e+00 3.494334e+00
         vertex 2.000000e+01 5.181204e+00 4.871712e+00
      endloop
   endfacet
   facet normal 0.000000e+00 -5.469482e-01 8.371664e-01
      outer loop
         vertex 1.686085e-15 5.181204e+00 4.871712e+00
         vertex 1.601745e-15 3.072970e+00 3.494334e+00
         vertex 2.000000e+01 5.181204e+00 4.871712e+00
      endloop
   endfacet
   facet normal 0.000000e+00 -2.454855e-01 9.694003e-01
      outer loop
         vertex 1.563891e-15 6.317320e-01 2.876129e+00
         vertex 2.000000e+01 6.317320e-01 2.876129e+00
         vertex 2.000000e+01 3.072970e+00 3.494334e+00
      endloop
   endfacet
   facet normal 0.000000e+00 -2.454855e-01 9.694003e-01
      outer loop
         vertex 1.601745e-15 3.072970e+00 3.494334e+00
         vertex 1.563891e-15 6.317320e-01 2.876129e+00
         vertex 2.000000e+01 3.072970e+00 3.494334e+00
      endloop
   endfacet
   facet normal 0.000000e+00 8.257928e-02 9.965845e-01
      outer loop
         vertex 1.576625e-15 -1.877964e+00 3.084088e+00
         vertex 2.000000e+01 -1.877964e+00 3.084088e+00
         vertex 2.000000e+01 6.317320e-01 2.876129e+00
      endloop
   endfacet
   facet normal 0.000000e+00 8.257928e-02 9.965845e-01
      outer loop
         vertex 1.563891e-15 6.317320e-01 2.876129e+00
         vertex 1.576625e-15 -1.877964e+00 3.084088e+00
         vertex 2.000000e+01 6.317320e-01 2.876129e+00
      endloop
   endfacet
   facet normal 0.000000e+00 4.016954e-01 9.157733e-01
      outer loop
         vertex 1.638567e-15 -4.184154e+00 4.095676e+00
         vertex 2.000000e+01 -4.184154e+00 4.095676e+00
         vertex 2.000000e+01 -1.877964e+00 3.084088e+00
      endloop
   endfacet
   facet normal 0.000000e+00 4.016954e-01 9.157733e-01
      outer loop
         vertex 1.576625e-15 -1.877964e+00 3.084088e+00
         vertex 1.638567e-15 -4.184154e+00 4.095676e+00
         vertex 2.000000e+01 -1.877964e+00 3.084088e+00
      endloop
   endfacet
   facet normal 0.000000e+00 6.772816e-01 7.357238e-01
      outer loop
         vertex 1.743004e-15 -6.036925e+00 5.801273e+00
         vertex 2.000000e+01 -6.036925e+00 5.801273e+00
         vertex 2.000000e+01 -4.184154e+00 4.095676e+00
      endloop
   endfacet
   facet normal 0.000000e+00 6.772816e-01 7.357238e-01
      outer loop
         vertex 1.638567e-15 -4.184154e+00 4.095676e+00
         vertex 1.743004e-15 -6.036925e+00 5.801273e+00
         vertex 2.000000e+01 -4.184154e+00 4.095676e+00
      endloop
   endfacet
   facet normal 0.000000e+00 8.794738e-01 4.759473e-01
      outer loop
         vertex 1.878620e-15 -7.235502e+00 8.016049e+00
         vertex 2.000000e+01 -7.235502e+00 8.016049e+00
         vertex 2.000000e+01 -6.036925e+00 5.801273e+00
      endloop
   endfacet
   facet normal 0.000000e+00 8.794738e-01 4.759473e-01
      outer loop
         vertex 1.743004e-15 -6.036925e+00 5.801273e+00
         vertex 1.878620e-15 -7.235502e+00 8.016049e+00
         vertex 2.000000e+01 -6.036925e+00 5.801273e+00
      endloop
   endfacet
   facet normal 0.000000e+00 9.863613e-01 1.645947e-01
      outer loop
         vertex 2.030718e-15 -7.650000e+00 1.050000e+01
         vertex 2.000000e+01 -7.650000e+00 1.050000e+01
         vertex 2.000000e+01 -7.235502e+00 8.016049e+00
      endloop
   endfacet
   facet normal 0.000000e+00 9.863613e-01 1.645947e-01
      outer loop
         vertex 1.878620e-15 -7.235502e+00 8.016049e+00
         vertex 2.030718e-15 -7.650000e+00 1.050000e+01
         vertex 2.000000e+01 -7.235502e+00 8.016049e+00
      endloop
   endfacet
   facet normal -1.000000e+00 -2.771213e-16 4.662450e-16
      outer loop
         vertex 6.429396e-16 1.050000e+01 2.100000e+01
         vertex 1.071913e-15 3.072970e+00 1.750567e+01
         vertex 6.462488e-15 -1.050000e+01 2.100000e+01
      endloop
   endfacet
   facet normal -1.000000e+00 2.291865e-14 9.056513e-14
      outer loop
         vertex 1.071913e-15 3.072970e+00 1.750567e+01
         vertex 1.109767e-15 6.317320e-01 1.812387e+01
         vertex 6.462488e-15 -1.050000e+01 2.100000e+01
      endloop
   endfacet
   facet normal -1.000000e+00 -9.052510e-16 3.383537e-16
      outer loop
         vertex 6.462488e-15 -1.050000e+01 2.100000e+01
         vertex 7.950377e-16 -7.235502e+00 1.298395e+01
         vertex -6.429396e-16 -1.050000e+01 0.000000e+00
      endloop
   endfacet
   facet normal -1.000000e+00 7.193139e-15 -1.697789e-15
      outer loop
         vertex 7.950377e-16 -7.235502e+00 1.298395e+01
         vertex 2.030718e-15 -7.650000e+00 1.050000e+01
         vertex -6.429396e-16 -1.050000e+01 0.000000e+00
      endloop
   endfacet
   facet normal -1.000000e+00 6.123234e-17 9.851796e-17
      outer loop
         vertex -6.429396e-16 -1.050000e+01 0.000000e+00
         vertex 1.888459e-16 -1.877964e+00 3.084088e+00
         vertex 6.429396e-16 1.050000e+01 0.000000e+00
      endloop
   endfacet
   facet normal -1.000000e+00 -2.588170e-17 -2.511136e-16
      outer loop
         vertex 1.888459e-16 -1.877964e+00 3.084088e+00
         vertex 1.761121e-16 6.317320e-01 2.876129e+00
         vertex 6.429396e-16 1.050000e+01 0.000000e+00
      endloop
   endfacet
   facet normal -1.000000e+00 2.609743e-17 0.000000e+00
      outer loop
         vertex 6.429396e-16 1.050000e+01 0.000000e+00
         vertex 5.658390e-16 7.545664e+00 9.240851e+00
         vertex 6.429396e-16 1.050000e+01 2.100000e+01
      endloop
   endfacet
   facet normal -1.000000e+00 -2.176257e-16 6.123234e-17
      outer loop
         vertex 5.658390e-16 7.545664e+00 9.240851e+00
         vertex 7.200402e-16 7.545664e+00 1.175915e+01
         vertex 6.429396e-16 1.050000e+01 2.100000e+01
      endloop
   endfacet
   facet normal -1.000000e+00 -7.057046e-17 6.305111e-18
      outer loop
         vertex 6.429396e-16 1.050000e+01 2.100000e+01
         vertex 8.658864e-16 6.727974e+00 1.414100e+01
         vertex 9.875728e-16 5.181204e+00 1.612829e+01
      endloop
   endfacet
   facet normal -1.000000e+00 -1.049402e-16 2.520633e-17
      outer loop
         vertex 8.658864e-16 6.727974e+00 1.414100e+01
         vertex 6.429396e-16 1.050000e+01 2.100000e+01
         vertex 7.200402e-16 7.545664e+00 1.175915e+01
      endloop
   endfacet
   facet normal -1.000000e+00 1.049402e-16 2.520635e-17
      outer loop
         vertex 5.658390e-16 7.545664e+00 9.240851e+00
         vertex 6.429396e-16 1.050000e+01 0.000000e+00
         vertex 4.199928e-16 6.727974e+00 6.859003e+00
      endloop
   endfacet
   facet normal -1.000000e+00 7.057047e-17 6.305117e-18
      outer loop
         vertex 4.199928e-16 6.727974e+00 6.859003e+00
         vertex 6.429396e-16 1.050000e+01 0.000000e+00
         vertex 2.983063e-16 5.181204e+00 4.871712e+00
      endloop
   endfacet
   facet normal -1.000000e+00 5.032596e-17 -1.579726e-17
      outer loop
         vertex 6.429396e-16 1.050000e+01 0.000000e+00
         vertex 2.139663e-16 3.072970e+00 3.494334e+00
         vertex 2.983063e-16 5.181204e+00 4.871712e+00
      endloop
   endfacet
   facet normal -1.000000e+00 3.029041e-17 -5.838180e-17
      outer loop
         vertex 2.139663e-16 3.072970e+00 3.494334e+00
         vertex 6.429396e-16 1.050000e+01 0.000000e+00
         vertex 1.761121e-16 6.317320e-01 2.876129e+00
      endloop
   endfacet
   facet normal -1.000000e+00 4.107440e-17 1.548725e-16
      outer loop
         vertex 1.888459e-16 -1.877964e+00 3.084088e+00
         vertex -6.429396e-16 -1.050000e+01 0.000000e+00
         vertex 2.507878e-16 -4.184154e+00 4.095676e+00
      endloop
   endfacet
   facet normal -1.000000e+00 5.972535e-17 1.261113e-16
      outer loop
         vertex 2.507878e-16 -4.184154e+00 4.095676e+00
         vertex -6.429396e-16 -1.050000e+01 0.000000e+00
         vertex 3.552255e-16 -6.036925e+00 5.801273e+00
      endloop
   endfacet
   facet normal -1.000000e+00 8.456875e-17 1.069987e-16
      outer loop
         vertex -6.429396e-16 -1.050000e+01 0.000000e+00
         vertex 4.908415e-16 -7.235502e+00 8.016049e+00
         vertex 3.552255e-16 -6.036925e+00 5.801273e+00
      endloop
   endfacet
   facet normal -1.000000e+00 -8.334409e-16 4.808538e-16
      outer loop
         vertex 4.908415e-16 -7.235502e+00 8.016049e+00
         vertex -6.429396e-16 -1.050000e+01 0.000000e+00
         vertex 2.030718e-15 -7.650000e+00 1.050000e+01
      endloop
   endfacet
   facet normal -1.000000e+00 -6.809029e-16 4.297184e-16
      outer loop
         vertex 7.950377e-16 -7.235502e+00 1.298395e+01
         vertex 6.462488e-15 -1.050000e+01 2.100000e+01
         vertex 9.306536e-16 -6.036925e+00 1.519873e+01
      endloop
   endfacet
   facet normal -1.000000e+00 -4.808768e-16 5.836039e-16
      outer loop
         vertex 9.306536e-16 -6.036925e+00 1.519873e+01
         vertex 6.462488e-15 -1.050000e+01 2.100000e+01
         vertex 1.035091e-15 -4.184154e+00 1.690432e+01
      endloop
   endfacet
   facet normal -1.000000e+00 -3.307094e-16 8.151734e-16
      outer loop
         vertex 6.462488e-15 -1.050000e+01 2.100000e+01
         vertex 1.097033e-15 -1.877964e+00 1.791591e+01
         vertex 1.035091e-15 -4.184154e+00 1.690432e+01
      endloop
   endfacet
   facet normal -1.000000e+00 -1.129237e-16 1.424026e-15
      outer loop
         vertex 1.097033e-15 -1.877964e+00 1.791591e+01
         vertex 6.462488e-15 -1.050000e+01 2.100000e+01
         vertex 1.109767e-15 6.317320e-01 1.812387e+01
      endloop
   endfacet
   facet normal -1.000000e+00 -5.032597e-17 -1.579725e-17
      outer loop
         vertex 1.071913e-15 3.072970e+00 1.750567e+01
         vertex 6.429396e-16 1.050000e+01 2.100000e+01
         vertex 9.875728e-16 5.181204e+00 1.612829e+01
      endloop
   endfacet
   facet normal 1.000000e+00 0.000000e+00 -0.000000e+00
      outer loop
         vertex 2.500000e+01 -1.050000e+01 2.100000e+01
         vertex 2.500000e+01 -1.778923e+00 1.419397e+01
         vertex 2.500000e+01 1.050000e+01 2.100000e+01
      endloop
   endfacet
   facet normal 1.000000e+00 0.000000e+00 -0.000000e+00
      outer loop
         vertex 2.500000e+01 -1.778923e+00 1.419397e+01
         vertex 2.500000e+01 5.021052e-16 1.460000e+01
         vertex 2.500000e+01 1.050000e+01 2.100000e+01
      endloop
   endfacet
   facet normal 1.000000e+00 -0.000000e+00 0.000000e+00
      outer loop
         vertex 2.500000e+01 1.050000e+01 2.100000e+01
         vertex 2.500000e+01 3.205509e+00 1.305631e+01
         vertex 2.500000e+01 1.050000e+01 0.000000e+00
      endloop
   endfacet
   facet normal 1.000000e+00 -0.000000e+00 -0.000000e+00
      outer loop
         vertex 2.500000e+01 3.205509e+00 1.305631e+01
         vertex 2.500000e+01 3.997205e+00 1.141234e+01
         vertex 2.500000e+01 1.050000e+01 0.000000e+00
      endloop
   endfacet
   facet normal 1.000000e+00 0.000000e+00 0.000000e+00
      outer loop
         vertex 2.500000e+01 1.050000e+01 0.000000e+00
         vertex 2.500000e+01 1.778923e+00 6.806027e+00
         vertex 2.500000e+01 -1.050000e+01 0.000000e+00
      endloop
   endfacet
   facet normal 1.000000e+00 -0.000000e+00 0.000000e+00
      outer loop
         vertex 2.500000e+01 1.778923e+00 6.806027e+00
         vertex 2.500000e+01 -2.510526e-16 6.400000e+00
         vertex 2.500000e+01 -1.050000e+01 0.000000e+00
      endloop
   endfacet
   facet normal 1.000000e+00 0.000000e+00 0.000000e+00
      outer loop
         vertex 2.500000e+01 -1.050000e+01 0.000000e+00
         vertex 2.500000e+01 -3.205509e+00 7.943692e+00
         vertex 2.500000e+01 -1.050000e+01 2.100000e+01
      endloop
   endfacet
   facet normal 1.000000e+00 0.000000e+00 0.000000e+00
      outer loop
         vertex 2.500000e+01 -3.205509e+00 7.943692e+00
         vertex 2.500000e+01 -3.997205e+00 9.587665e+00
         vertex 2.500000e+01 -1.050000e+01 2.100000e+01
      endloop
   endfacet
   facet normal 1.000000e+00 0.000000e+00 -0.000000e+00
      outer loop
         vertex 2.500000e+01 -1.050000e+01 2.100000e+01
         vertex 2.500000e+01 -3.997205e+00 1.141234e+01
         vertex 2.500000e+01 -3.205509e+00 1.305631e+01
      endloop
   endfacet
   facet normal 1.000000e+00 0.000000e+00 0.000000e+00
      outer loop
         vertex 2.500000e+01 -3.997205e+00 1.141234e+01
         vertex 2.500000e+01 -1.050000e+01 2.100000e+01
         vertex 2.500000e+01 -3.997205e+00 9.587665e+00
      endloop
   endfacet
   facet normal 1.000000e+00 0.000000e+00 0.000000e+00
      outer loop
         vertex 2.500000e+01 -3.205509e+00 7.943692e+00
         vertex 2.500000e+01 -1.050000e+01 0.000000e+00
         vertex 2.500000e+01 -1.778923e+00 6.806027e+00
      endloop
   endfacet
   facet normal 1.000000e+00 0.000000e+00 0.000000e+00
      outer loop
         vertex 2.500000e+01 -1.050000e+01 0.000000e+00
         vertex 2.500000e+01 -2.510526e-16 6.400000e+00
         vertex 2.500000e+01 -1.778923e+00 6.806027e+00
      endloop
   endfacet
   facet normal 1.000000e+00 0.000000e+00 0.000000e+00
      outer loop
         vertex 2.500000e+01 1.778923e+00 6.806027e+00
         vertex 2.500000e+01 1.050000e+01 0.000000e+00
         vertex 2.500000e+01 3.205509e+00 7.943692e+00
      endloop
   endfacet
   facet normal 1.000000e+00 0.000000e+00 0.000000e+00
      outer loop
         vertex 2.500000e+01 1.050000e+01 0.000000e+00
         vertex 2.500000e+01 3.997205e+00 9.587665e+00
         vertex 2.500000e+01 3.205509e+00 7.943692e+00
      endloop
   endfacet
   facet normal 1.000000e+00 0.000000e+00 0.000000e+00
      outer loop
         vertex 2.500000e+01 3.997205e+00 9.587665e+00
         vertex 2.500000e+01 1.050000e+01 0.000000e+00
         vertex 2.500000e+01 3.997205e+00 1.141234e+01
      endloop
   endfacet
   facet normal 1.000000e+00 0.000000e+00 0.000000e+00
      outer loop
         vertex 2.500000e+01 3.205509e+00 1.305631e+01
         vertex 2.500000e+01 1.050000e+01 2.100000e+01
         vertex 2.500000e+01 1.778923e+00 1.419397e+01
      endloop
   endfacet
   facet normal 1.000000e+00 -0.000000e+00 0.000000e+00
      outer loop
         vertex 2.500000e+01 1.050000e+01 2.100000e+01
         vertex 2.500000e+01 5.021052e-16 1.460000e+01
         vertex 2.500000e+01 1.778923e+00 1.419397e+01
      endloop
   endfacet
   facet normal 1.000000e+00 0.000000e+00 0.000000e+00
      outer loop
         vertex 2.500000e+01 -1.778923e+00 1.419397e+01
         vertex 2.500000e+01 -1.050000e+01 2.100000e+01
         vertex 2.500000e+01 -3.205509e+00 1.305631e+01
      endloop
   endfacet
   facet normal -1.000000e+00 0.000000e+00 0.000000e+00
      outer loop
         vertex 2.000000e+01 -7.235502e+00 8.016049e+00
         vertex 2.000000e+01 -7.650000e+00 1.050000e+01
         vertex 2.000000e+01 -6.036925e+00 5.801273e+00
      endloop
   endfacet
   facet normal -1.000000e+00 0.000000e+00 -0.000000e+00
      outer loop
         vertex 2.000000e+01 -7.650000e+00 1.050000e+01
         vertex 2.000000e+01 -7.235502e+00 1.298395e+01
         vertex 2.000000e+01 -6.036925e+00 5.801273e+00
      endloop
   endfacet
   facet normal -1.000000e+00 0.000000e+00 0.000000e+00
      outer loop
         vertex 2.000000e+01 -6.036925e+00 5.801273e+00
         vertex 2.000000e+01 -7.235502e+00 1.298395e+01
         vertex 2.000000e+01 -4.184154e+00 4.095676e+00
      endloop
   endfacet
   facet normal -1.000000e+00 0.000000e+00 -0.000000e+00
      outer loop
         vertex 2.000000e+01 -7.235502e+00 1.298395e+01
         vertex 2.000000e+01 -6.036925e+00 1.519873e+01
         vertex 2.000000e+01 -4.184154e+00 4.095676e+00
      endloop
   endfacet
   facet normal -1.000000e+00 0.000000e+00 0.000000e+00
      outer loop
         vertex 2.000000e+01 -4.184154e+00 4.095676e+00
         vertex 2.000000e+01 -6.036925e+00 1.519873e+01
         vertex 2.000000e+01 -1.877964e+00 3.084088e+00
      endloop
   endfacet
   facet normal -1.000000e+00 -0.000000e+00 -0.000000e+00
      outer loop
         vertex 2.000000e+01 -6.036925e+00 1.519873e+01
         vertex 2.000000e+01 -3.997205e+00 9.587665e+00
         vertex 2.000000e+01 -1.877964e+00 3.084088e+00
      endloop
   endfacet
   facet normal -1.000000e+00 0.000000e+00 0.000000e+00
      outer loop
         vertex 2.000000e+01 -1.877964e+00 3.084088e+00
         vertex 2.000000e+01 -3.205509e+00 7.943692e+00
         vertex 2.000000e+01 6.317320e-01 2.876129e+00
      endloop
   endfacet
   facet normal -1.000000e+00 -0.000000e+00 -0.000000e+00
      outer loop
         vertex 2.000000e+01 -3.205509e+00 7.943692e+00
         vertex 2.000000e+01 -1.778923e+00 6.806027e+00
         vertex 2.000000e+01 6.317320e-01 2.876129e+00
      endloop
   endfacet
   facet normal -1.000000e+00 0.000000e+00 0.000000e+00
      outer loop
         vertex 2.000000e+01 6.317320e-01 2.876129e+00
         vertex 2.000000e+01 -1.778923e+00 6.806027e+00
         vertex 2.000000e+01 3.072970e+00 3.494334e+00
      endloop
   endfacet
   facet normal -1.000000e+00 -0.000000e+00 -0.000000e+00
      outer loop
         vertex 2.000000e+01 -1.778923e+00 6.806027e+00
         vertex 2.000000e+01 -5.021052e-16 6.400000e+00
         vertex 2.000000e+01 3.072970e+00 3.494334e+00
      endloop
   endfacet
   facet normal -1.000000e+00 0.000000e+00 0.000000e+00
      outer loop
         vertex 2.000000e+01 3.072970e+00 3.494334e+00
         vertex 2.000000e+01 -5.021052e-16 6.400000e+00
         vertex 2.000000e+01 5.181204e+00 4.871712e+00
      endloop
   endfacet
   facet normal -1.000000e+00 0.000000e+00 -0.000000e+00
      outer loop
         vertex 2.000000e+01 -5.021052e-16 6.400000e+00
         vertex 2.000000e+01 1.778923e+00 6.806027e+00
         vertex 2.000000e+01 5.181204e+00 4.871712e+00
      endloop
   endfacet
   facet normal -1.000000e+00 0.000000e+00 0.000000e+00
      outer loop
         vertex 2.000000e+01 5.181204e+00 4.871712e+00
         vertex 2.000000e+01 1.778923e+00 6.806027e+00
         vertex 2.000000e+01 6.727974e+00 6.859003e+00
      endloop
   endfacet
   facet normal -1.000000e+00 0.000000e+00 -0.000000e+00
      outer loop
         vertex 2.000000e+01 1.778923e+00 6.806027e+00
         vertex 2.000000e+01 3.205509e+00 7.943692e+00
         vertex 2.000000e+01 6.727974e+00 6.859003e+00
      endloop
   endfacet
   facet normal -1.000000e+00 0.000000e+00 0.000000e+00
      outer loop
         vertex 2.000000e+01 6.727974e+00 6.859003e+00
         vertex 2.000000e+01 3.205509e+00 7.943692e+00
         vertex 2.000000e+01 7.545664e+00 9.240851e+00
      endloop
   endfacet
   facet normal -1.000000e+00 0.000000e+00 -0.000000e+00
      outer loop
         vertex 2.000000e+01 3.205509e+00 7.943692e+00
         vertex 2.000000e+01 3.997205e+00 9.587665e+00
         vertex 2.000000e+01 7.545664e+00 9.240851e+00
      endloop
   endfacet
   facet normal -1.000000e+00 0.000000e+00 0.000000e+00
      outer loop
         vertex 2.000000e+01 7.545664e+00 9.240851e+00
         vertex 2.000000e+01 3.997205e+00 9.587665e+00
         vertex 2.000000e+01 7.545664e+00 1.175915e+01
      endloop
   endfacet
   facet normal -1.000000e+00 0.000000e+00 0.000000e+00
      outer loop
         vertex 2.000000e+01 3.997205e+00 9.587665e+00
         vertex 2.000000e+01 3.997205e+00 1.141234e+01
         vertex 2.000000e+01 7.545664e+00 1.175915e+01
      endloop
   endfacet
   facet normal -1.000000e+00 0.000000e+00 0.000000e+00
      outer loop
         vertex 2.000000e+01 7.545664e+00 1.175915e+01
         vertex 2.000000e+01 3.997205e+00 1.141234e+01
         vertex 2.000000e+01 6.727974e+00 1.414100e+01
      endloop
   endfacet
   facet normal -1.000000e+00 0.000000e+00 0.000000e+00
      outer loop
         vertex 2.000000e+01 3.997205e+00 1.141234e+01
         vertex 2.000000e+01 3.205509e+00 1.305631e+01
         vertex 2.000000e+01 6.727974e+00 1.414100e+01
      endloop
   endfacet
   facet normal -1.000000e+00 0.000000e+00 0.000000e+00
      outer loop
         vertex 2.000000e+01 6.727974e+00 1.414100e+01
         vertex 2.000000e+01 3.205509e+00 1.305631e+01
         vertex 2.000000e+01 5.181204e+00 1.612829e+01
      endloop
   endfacet
   facet normal -1.000000e+00 0.000000e+00 0.000000e+00
      outer loop
         vertex 2.000000e+01 3.205509e+00 1.305631e+01
         vertex 2.000000e+01 1.778923e+00 1.419397e+01
         vertex 2.000000e+01 5.181204e+00 1.612829e+01
      endloop
   endfacet
   facet normal -1.000000e+00 0.000000e+00 0.000000e+00
      outer loop
         vertex 2.000000e+01 5.181204e+00 1.612829e+01
         vertex 2.000000e+01 1.778923e+00 1.419397e+01
         vertex 2.000000e+01 3.072970e+00 1.750567e+01
      endloop
   endfacet
   facet normal -1.000000e+00 0.000000e+00 0.000000e+00
      outer loop
         vertex 2.000000e+01 1.778923e+00 1.419397e+01
         vertex 2.000000e+01 5.021052e-16 1.460000e+01
         vertex 2.000000e+01 3.072970e+00 1.750567e+01
      endloop
   endfacet
   facet normal -1.000000e+00 0.000000e+00 0.000000e+00
      outer loop
         vertex 2.000000e+01 3.072970e+00 1.750567e+01
         vertex 2.000000e+01 5.021052e-16 1.460000e+01
         vertex 2.000000e+01 6.317320e-01 1.812387e+01
      endloop
   endfacet
   facet normal -1.000000e+00 0.000000e+00 0.000000e+00
      outer loop
         vertex 2.000000e+01 5.021052e-16 1.460000e+01
         vertex 2.000000e+01 -1.778923e+00 1.419397e+01
         vertex 2.000000e+01 6.317320e-01 1.812387e+01
      endloop
   endfacet
   facet normal -1.000000e+00 0.000000e+00 0.000000e+00
      outer loop
         vertex 2.000000e+01 6.317320e-01 1.812387e+01
         vertex 2.000000e+01 -1.778923e+00 1.419397e+01
         vertex 2.000000e+01 -1.877964e+00 1.791591e+01
      endloop
   endfacet
   facet normal -1.000000e+00 0.000000e+00 0.000000e+00
      outer loop
         vertex 2.000000e+01 -1.778923e+00 1.419397e+01
         vertex 2.000000e+01 -3.205509e+00 1.305631e+01
         vertex 2.000000e+01 -1.877964e+00 1.791591e+01
      endloop
   endfacet
   facet normal -1.000000e+00 0.000000e+00 0.000000e+00
      outer loop
         vertex 2.000000e+01 -1.877964e+00 1.791591e+01
         vertex 2.000000e+01 -3.205509e+00 1.305631e+01
         vertex 2.000000e+01 -4.184154e+00 1.690432e+01
      endloop
   endfacet
   facet normal -1.000000e+00 0.000000e+00 0.000000e+00
      outer loop
         vertex 2.000000e+01 -3.205509e+00 1.305631e+01
         vertex 2.000000e+01 -3.997205e+00 1.141234e+01
         vertex 2.000000e+01 -4.184154e+00 1.690432e+01
      endloop
   endfacet
   facet normal -1.000000e+00 0.000000e+00 0.000000e+00
      outer loop
         vertex 2.000000e+01 -4.184154e+00 1.690432e+01
         vertex 2.000000e+01 -3.997205e+00 1.141234e+01
         vertex 2.000000e+01 -6.036925e+00 1.519873e+01
      endloop
   endfacet
   facet normal -1.000000e+00 0.000000e+00 0.000000e+00
      outer loop
         vertex 2.000000e+01 -3.997205e+00 1.141234e+01
         vertex 2.000000e+01 -3.997205e+00 9.587665e+00
         vertex 2.000000e+01 -6.036925e+00 1.519873e+01
      endloop
   endfacet
   facet normal -1.000000e+00 0.000000e+00 0.000000e+00
      outer loop
         vertex 2.000000e+01 -3.205509e+00 7.943692e+00
         vertex 2.000000e+01 -1.877964e+00 3.084088e+00
         vertex 2.000000e+01 -3.997205e+00 9.587665e+00
      endloop
   endfacet
   facet normal 0.000000e+00 2.225210e-01 -9.749279e-01
      outer loop
         vertex 2.500000e+01 -1.778923e+00 1.419397e+01
         vertex 2.000000e+01 -1.778923e+00 1.419397e+01
         vertex 2.000000e+01 0.000000e+00 1.460000e+01
      endloop
   endfacet
   facet normal 0.000000e+00 2.225210e-01 -9.749279e-01
      outer loop
         vertex 2.500000e+01 0.000000e+00 1.460000e+01
         vertex 2.500000e+01 -1.778923e+00 1.419397e+01
         vertex 2.000000e+01 0.000000e+00 1.460000e+01
      endloop
   endfacet
   facet normal 0.000000e+00 6.234900e-01 -7.818314e-01
      outer loop
         vertex 2.500000e+01 -3.205509e+00 1.305631e+01
         vertex 2.000000e+01 -3.205509e+00 1.305631e+01
         vertex 2.000000e+01 -1.778923e+00 1.419397e+01
      endloop
   endfacet
   facet normal 0.000000e+00 6.234900e-01 -7.818314e-01
      outer loop
         vertex 2.500000e+01 -1.778923e+00 1.419397e+01
         vertex 2.500000e+01 -3.205509e+00 1.305631e+01
         vertex 2.000000e+01 -1.778923e+00 1.419397e+01
      endloop
   endfacet
   facet normal 0.000000e+00 9.009689e-01 -4.338837e-01
      outer loop
         vertex 2.500000e+01 -3.997205e+00 1.141234e+01
         vertex 2.000000e+01 -3.997205e+00 1.141234e+01
         vertex 2.000000e+01 -3.205509e+00 1.305631e+01
      endloop
   endfacet
   facet normal 0.000000e+00 9.009689e-01 -4.338837e-01
      outer loop
         vertex 2.500000e+01 -3.205509e+00 1.305631e+01
         vertex 2.500000e+01 -3.997205e+00 1.141234e+01
         vertex 2.000000e+01 -3.205509e+00 1.305631e+01
      endloop
   endfacet
   facet normal 0.000000e+00 1.000000e+00 0.000000e+00
      outer loop
         vertex 2.500000e+01 -3.997205e+00 9.587665e+00
         vertex 2.000000e+01 -3.997205e+00 9.587665e+00
         vertex 2.000000e+01 -3.997205e+00 1.141234e+01
      endloop
   endfacet
   facet normal 0.000000e+00 1.000000e+00 -0.000000e+00
      outer loop
         vertex 2.500000e+01 -3.997205e+00 1.141234e+01
         vertex 2.500000e+01 -3.997205e+00 9.587665e+00
         vertex 2.000000e+01 -3.997205e+00 1.141234e+01
      endloop
   endfacet
   facet normal -0.000000e+00 9.009689e-01 4.338836e-01
      outer loop
         vertex 2.500000e+01 -3.205509e+00 7.943692e+00
         vertex 2.000000e+01 -3.205509e+00 7.943692e+00
         vertex 2.000000e+01 -3.997205e+00 9.587665e+00
      endloop
   endfacet
   facet normal 0.000000e+00 9.009689e-01 4.338836e-01
      outer loop
         vertex 2.500000e+01 -3.997205e+00 9.587665e+00
         vertex 2.500000e+01 -3.205509e+00 7.943692e+00
         vertex 2.000000e+01 -3.997205e+00 9.587665e+00
      endloop
   endfacet
   facet normal -0.000000e+00 6.234898e-01 7.818315e-01
      outer loop
         vertex 2.500000e+01 -1.778923e+00 6.806027e+00
         vertex 2.000000e+01 -1.778923e+00 6.806027e+00
         vertex 2.000000e+01 -3.205509e+00 7.943692e+00
      endloop
   endfacet
   facet normal 0.000000e+00 6.234898e-01 7.818315e-01
      outer loop
         vertex 2.500000e+01 -3.205509e+00 7.943692e+00
         vertex 2.500000e+01 -1.778923e+00 6.806027e+00
         vertex 2.000000e+01 -3.205509e+00 7.943692e+00
      endloop
   endfacet
   facet normal -0.000000e+00 2.225208e-01 9.749279e-01
      outer loop
         vertex 2.500000e+01 -5.021052e-16 6.400000e+00
         vertex 2.000000e+01 -5.021052e-16 6.400000e+00
         vertex 2.000000e+01 -1.778923e+00 6.806027e+00
      endloop
   endfacet
   facet normal 0.000000e+00 2.225208e-01 9.749279e-01
      outer loop
         vertex 2.500000e+01 -1.778923e+00 6.806027e+00
         vertex 2.500000e+01 -5.021052e-16 6.400000e+00
         vertex 2.000000e+01 -1.778923e+00 6.806027e+00
      endloop
   endfacet
   facet normal 0.000000e+00 -2.225208e-01 9.749279e-01
      outer loop
         vertex 2.500000e+01 1.778923e+00 6.806027e+00
         vertex 2.000000e+01 1.778923e+00 6.806027e+00
         vertex 2.000000e+01 -5.021052e-16 6.400000e+00
      endloop
   endfacet
   facet normal 0.000000e+00 -2.225208e-01 9.749279e-01
      outer loop
         vertex 2.500000e+01 -5.021052e-16 6.400000e+00
         vertex 2.500000e+01 1.778923e+00 6.806027e+00
         vertex 2.000000e+01 -5.021052e-16 6.400000e+00
      endloop
   endfacet
   facet normal 0.000000e+00 -6.234898e-01 7.818315e-01
      outer loop
         vertex 2.500000e+01 3.205509e+00 7.943692e+00
         vertex 2.000000e+01 3.205509e+00 7.943692e+00
         vertex 2.000000e+01 1.778923e+00 6.806027e+00
      endloop
   endfacet
   facet normal 0.000000e+00 -6.234898e-01 7.818315e-01
      outer loop
         vertex 2.500000e+01 1.778923e+00 6.806027e+00
         vertex 2.500000e+01 3.205509e+00 7.943692e+00
         vertex 2.000000e+01 1.778923e+00 6.806027e+00
      endloop
   endfacet
   facet normal 0.000000e+00 -9.009689e-01 4.338836e-01
      outer loop
         vertex 2.500000e+01 3.997205e+00 9.587665e+00
         vertex 2.000000e+01 3.997205e+00 9.587665e+00
         vertex 2.000000e+01 3.205509e+00 7.943692e+00
      endloop
   endfacet
   facet normal 0.000000e+00 -9.009689e-01 4.338836e-01
      outer loop
         vertex 2.500000e+01 3.205509e+00 7.943692e+00
         vertex 2.500000e+01 3.997205e+00 9.587665e+00
         vertex 2.000000e+01 3.205509e+00 7.943692e+00
      endloop
   endfacet
   facet normal 0.000000e+00 -1.000000e+00 0.000000e+00
      outer loop
         vertex 2.500000e+01 3.997205e+00 1.141234e+01
         vertex 2.000000e+01 3.997205e+00 1.141234e+01
         vertex 2.000000e+01 3.997205e+00 9.587665e+00
      endloop
   endfacet
   facet normal 0.000000e+00 -1.000000e+00 -0.000000e+00
      outer loop
         vertex 2.500000e+01 3.997205e+00 9.587665e+00
         vertex 2.500000e+01 3.997205e+00 1.141234e+01
         vertex 2.000000e+01 3.997205e+00 9.587665e+00
      endloop
   endfacet
   facet normal 0.000000e+00 -9.009689e-01 -4.338837e-01
      outer loop
         vertex 2.500000e+01 3.205509e+00 1.305631e+01
         vertex 2.000000e+01 3.205509e+00 1.305631e+01
         vertex 2.000000e+01 3.997205e+00 1.141234e+01
      endloop
   endfacet
   facet normal 0.000000e+00 -9.009689e-01 -4.338837e-01
      outer loop
         vertex 2.500000e+01 3.997205e+00 1.141234e+01
         vertex 2.500000e+01 3.205509e+00 1.305631e+01
         vertex 2.000000e+01 3.997205e+00 1.141234e+01
      endloop
   endfacet
   facet normal 0.000000e+00 -6.234900e-01 -7.818314e-01
      outer loop
         vertex 2.500000e+01 1.778923e+00 1.419397e+01
         vertex 2.000000e+01 1.778923e+00 1.419397e+01
         vertex 2.000000e+01 3.205509e+00 1.305631e+01
      endloop
   endfacet
   facet normal 0.000000e+00 -6.234900e-01 -7.818314e-01
      outer loop
         vertex 2.500000e+01 3.205509e+00 1.305631e+01
         vertex 2.500000e+01 1.778923e+00 1.419397e+01
         vertex 2.000000e+01 3.205509e+00 1.305631e+01
      endloop
   endfacet
   facet normal 0.000000e+00 -2.225210e-01 -9.749279e-01
      outer loop
         vertex 2.500000e+01 1.004210e-15 1.460000e+01
         vertex 2.000000e+01 1.004210e-15 1.460000e+01
         vertex 2.000000e+01 1.778923e+00 1.419397e+01
      endloop
   endfacet
   facet normal 0.000000e+00 -2.225210e-01 -9.749279e-01
      outer loop
         vertex 2.500000e+01 1.778923e+00 1.419397e+01
         vertex 2.500000e+01 1.004210e-15 1.460000e+01
         vertex 2.000000e+01 1.778923e+00 1.419397e+01
      endloop
   endfacet
endsolid
